<?xml version="1.0" encoding="ISO-8859-1"?>
<!DOCTYPE svg PUBLIC "-//W3C//DTD SVG 1.0//EN" "http://www.w3.org/TR/2001/REC-SVG-20010904/DTD/svg10.dtd">
<!-- generated by Grace-5.1.22 -->
<svg xml:space="preserve" width="11.6944in" height="8.2639in" viewBox="0.0000 0.0000 842.0000 595.0000">
 <g transform="translate(0,595.0000) scale(1,-1)">
  <g style="fill:#FFFFFF; fill-rule:nonzero">
   <path  d="M0.0000,0.0000L0.0000,595.0000L842.0000,595.0000L842.0000,0.0000z"/>
  </g>
  <g style="fill:none; stroke:#000000; stroke-width:  0.8925; stroke-linecap:butt; stroke-linejoin:miter; stroke-dasharray:none">
   <path d="M102.6970,267.7203L106.0587,291.8620L109.4205,251.3712L112.7822,228.4804L116.1440,274.9368L129.5910,181.8407L132.9527,211.8856L136.3145,177.0246L139.6762,179.1640L143.0380,146.4438
            L146.3997,186.4486L149.7615,225.9647L156.4850,210.6014L159.8467,167.8769L163.2085,210.8749L169.9320,227.1892L173.2937,298.4163L176.6555,247.2618L180.0172,263.9148L183.3790,183.6706
            L186.7407,191.2439L190.1025,220.4794L196.8260,202.1590L200.1877,183.5914L203.5495,180.3649L206.9112,167.6117L210.2730,220.6363L216.9965,219.0550L220.3582,245.5888L223.7200,181.0188
            L223.7200,414.5185L227.0817,203.4210L240.5287,183.4123L243.8905,219.0258L247.2522,198.1051L250.6140,201.6481L253.9758,316.0259L257.3375,196.4793L260.6993,314.6695L264.0610,256.2471
            L274.1463,245.3389L277.5080,236.3814L280.8697,293.5502L284.2315,211.0110L287.5933,232.5135L290.9550,207.4569L294.3168,244.3477L297.6785,234.7876L301.0403,210.0711L304.4020,210.0183
            L307.7638,174.6728L311.1255,223.0242L314.4872,217.5056L317.8490,157.3200L321.2107,173.8897L324.5725,344.0619L327.9342,242.3485L331.2960,298.4982L334.6577,175.1448L338.0195,269.0822
            L341.3812,269.7306L344.7430,203.9777L351.4665,293.7862L354.8282,184.5160L358.1900,174.1105L361.5517,199.7322L368.2753,182.5168L371.6370,173.6607L381.7222,140.7502L385.0840,171.0673
            L388.4457,193.2584L391.8075,200.5957L395.1693,201.2427L401.8927,252.0640L408.6163,120.5833L415.3398,178.3338L418.7015,162.5568L425.4250,123.8625L432.1485,159.6371L435.5103,172.9526
            L438.8720,172.5930L442.2338,174.2646L445.5955,167.1688L448.9573,158.6000L452.3190,191.1634L455.6808,208.5578L459.0425,190.5400L462.4042,218.5149L465.7660,215.1413L469.1278,203.7125
            L472.4895,191.5813L475.8513,263.3831L479.2130,266.1223L482.5748,332.2805L485.9365,286.9889L489.2982,264.4896L492.6600,233.4479L496.0217,207.0306L499.3835,260.1622L502.7453,322.8690
            L509.4688,339.4291L516.1923,363.9790L519.5540,302.8395L526.2775,208.4828L529.6392,216.2228L533.0010,170.5092L536.3628,258.4045L539.7245,274.0108L543.0862,221.2680L549.8098,199.9154
            L553.1715,231.8429L559.8950,266.0890L566.6185,231.8846L569.9802,205.3397L573.3420,257.7603L580.0655,221.5248L586.7890,201.7619L590.1508,163.4911L593.5125,160.1147L596.8742,193.4972
            L603.5978,194.6967L606.9595,177.6799L610.3212,218.5621L613.6830,247.7394L617.0448,207.3999L620.4065,184.5008L623.7683,237.3185L627.1300,222.4800L630.4918,224.2876L633.8535,292.5728
            L640.5770,249.1721L643.9387,271.6950"/>
  </g>
  <g style="fill:none; stroke:#000000; stroke-width:  0.4463; stroke-linecap:butt; stroke-linejoin:miter; stroke-dasharray:none">
   <path d="M102.6970,267.7203L102.6970,272.1629"/>
   <path d="M99.7220,272.1629L105.6720,272.1629"/>
   <path d="M102.6970,267.7203L102.6970,263.2776"/>
   <path d="M105.6720,263.2776L99.7220,263.2776"/>
   <path d="M106.0587,291.8620L106.0587,296.3046"/>
   <path d="M103.0837,296.3046L109.0337,296.3046"/>
   <path d="M106.0587,291.8620L106.0587,287.4193"/>
   <path d="M109.0337,287.4193L103.0837,287.4193"/>
   <path d="M109.4205,251.3712L109.4205,255.8139"/>
   <path d="M106.4455,255.8139L112.3955,255.8139"/>
   <path d="M109.4205,251.3712L109.4205,246.9286"/>
   <path d="M112.3955,246.9286L106.4455,246.9286"/>
   <path d="M112.7822,228.4804L112.7822,232.9231"/>
   <path d="M109.8072,232.9231L115.7572,232.9231"/>
   <path d="M112.7822,228.4804L112.7822,224.0377"/>
   <path d="M115.7572,224.0377L109.8072,224.0377"/>
   <path d="M116.1440,274.9368L116.1440,279.3795"/>
   <path d="M113.1690,279.3795L119.1190,279.3795"/>
   <path d="M116.1440,274.9368L116.1440,270.4941"/>
   <path d="M119.1190,270.4941L113.1690,270.4941"/>
   <path d="M129.5910,181.8407L129.5910,186.2834"/>
   <path d="M126.6160,186.2834L132.5660,186.2834"/>
   <path d="M129.5910,181.8407L129.5910,177.3981"/>
   <path d="M132.5660,177.3981L126.6160,177.3981"/>
   <path d="M132.9527,211.8856L132.9527,216.3283"/>
   <path d="M129.9777,216.3283L135.9277,216.3283"/>
   <path d="M132.9527,211.8856L132.9527,207.4430"/>
   <path d="M135.9277,207.4430L129.9777,207.4430"/>
   <path d="M136.3145,177.0246L136.3145,181.4673"/>
   <path d="M133.3395,181.4673L139.2895,181.4673"/>
   <path d="M136.3145,177.0246L136.3145,172.5819"/>
   <path d="M139.2895,172.5819L133.3395,172.5819"/>
   <path d="M139.6762,179.1640L139.6762,183.6067"/>
   <path d="M136.7012,183.6067L142.6512,183.6067"/>
   <path d="M139.6762,179.1640L139.6762,174.7214"/>
   <path d="M142.6512,174.7214L136.7012,174.7214"/>
   <path d="M143.0380,146.4438L143.0380,150.8864"/>
   <path d="M140.0630,150.8864L146.0130,150.8864"/>
   <path d="M143.0380,146.4438L143.0380,142.0011"/>
   <path d="M146.0130,142.0011L140.0630,142.0011"/>
   <path d="M146.3997,186.4486L146.3997,190.8913"/>
   <path d="M143.4247,190.8913L149.3747,190.8913"/>
   <path d="M146.3997,186.4486L146.3997,182.0059"/>
   <path d="M149.3747,182.0059L143.4247,182.0059"/>
   <path d="M149.7615,225.9647L149.7615,230.4074"/>
   <path d="M146.7865,230.4074L152.7365,230.4074"/>
   <path d="M149.7615,225.9647L149.7615,221.5221"/>
   <path d="M152.7365,221.5221L146.7865,221.5221"/>
   <path d="M156.4850,210.6014L156.4850,215.0441"/>
   <path d="M153.5100,215.0441L159.4600,215.0441"/>
   <path d="M156.4850,210.6014L156.4850,206.1588"/>
   <path d="M159.4600,206.1588L153.5100,206.1588"/>
   <path d="M159.8467,167.8769L159.8467,172.3195"/>
   <path d="M156.8717,172.3195L162.8217,172.3195"/>
   <path d="M159.8467,167.8769L159.8467,163.4342"/>
   <path d="M162.8217,163.4342L156.8717,163.4342"/>
   <path d="M163.2085,210.8749L163.2085,215.3176"/>
   <path d="M160.2335,215.3176L166.1835,215.3176"/>
   <path d="M163.2085,210.8749L163.2085,206.4323"/>
   <path d="M166.1835,206.4323L160.2335,206.4323"/>
   <path d="M169.9320,227.1892L169.9320,231.6319"/>
   <path d="M166.9570,231.6319L172.9070,231.6319"/>
   <path d="M169.9320,227.1892L169.9320,222.7466"/>
   <path d="M172.9070,222.7466L166.9570,222.7466"/>
   <path d="M173.2937,298.4163L173.2937,302.8590"/>
   <path d="M170.3187,302.8590L176.2687,302.8590"/>
   <path d="M173.2937,298.4163L173.2937,293.9736"/>
   <path d="M176.2687,293.9736L170.3187,293.9736"/>
   <path d="M176.6555,247.2618L176.6555,251.7044"/>
   <path d="M173.6805,251.7044L179.6305,251.7044"/>
   <path d="M176.6555,247.2618L176.6555,242.8191"/>
   <path d="M179.6305,242.8191L173.6805,242.8191"/>
   <path d="M180.0172,263.9148L180.0172,268.3575"/>
   <path d="M177.0422,268.3575L182.9922,268.3575"/>
   <path d="M180.0172,263.9148L180.0172,259.4722"/>
   <path d="M182.9922,259.4722L177.0422,259.4722"/>
   <path d="M183.3790,183.6706L183.3790,188.1132"/>
   <path d="M180.4040,188.1132L186.3540,188.1132"/>
   <path d="M183.3790,183.6706L183.3790,179.2279"/>
   <path d="M186.3540,179.2279L180.4040,179.2279"/>
   <path d="M186.7407,191.2439L186.7407,195.6866"/>
   <path d="M183.7657,195.6866L189.7157,195.6866"/>
   <path d="M186.7407,191.2439L186.7407,186.8012"/>
   <path d="M189.7157,186.8012L183.7657,186.8012"/>
   <path d="M190.1025,220.4794L190.1025,224.9221"/>
   <path d="M187.1275,224.9221L193.0775,224.9221"/>
   <path d="M190.1025,220.4794L190.1025,216.0368"/>
   <path d="M193.0775,216.0368L187.1275,216.0368"/>
   <path d="M196.8260,202.1590L196.8260,206.6017"/>
   <path d="M193.8510,206.6017L199.8010,206.6017"/>
   <path d="M196.8260,202.1590L196.8260,197.7163"/>
   <path d="M199.8010,197.7163L193.8510,197.7163"/>
   <path d="M200.1877,183.5914L200.1877,188.0341"/>
   <path d="M197.2127,188.0341L203.1627,188.0341"/>
   <path d="M200.1877,183.5914L200.1877,179.1487"/>
   <path d="M203.1627,179.1487L197.2127,179.1487"/>
   <path d="M203.5495,180.3649L203.5495,184.8076"/>
   <path d="M200.5745,184.8076L206.5245,184.8076"/>
   <path d="M203.5495,180.3649L203.5495,175.9223"/>
   <path d="M206.5245,175.9223L200.5745,175.9223"/>
   <path d="M206.9112,167.6117L206.9112,172.0544"/>
   <path d="M203.9362,172.0544L209.8862,172.0544"/>
   <path d="M206.9112,167.6117L206.9112,163.1690"/>
   <path d="M209.8862,163.1690L203.9362,163.1690"/>
   <path d="M210.2730,220.6363L210.2730,225.0790"/>
   <path d="M207.2980,225.0790L213.2480,225.0790"/>
   <path d="M210.2730,220.6363L210.2730,216.1936"/>
   <path d="M213.2480,216.1936L207.2980,216.1936"/>
   <path d="M216.9965,219.0550L216.9965,223.4977"/>
   <path d="M214.0215,223.4977L219.9715,223.4977"/>
   <path d="M216.9965,219.0550L216.9965,214.6123"/>
   <path d="M219.9715,214.6123L214.0215,214.6123"/>
   <path d="M220.3582,245.5888L220.3582,250.0315"/>
   <path d="M217.3832,250.0315L223.3332,250.0315"/>
   <path d="M220.3582,245.5888L220.3582,241.1462"/>
   <path d="M223.3332,241.1462L217.3832,241.1462"/>
   <path d="M223.7200,181.0188L223.7200,185.4615"/>
   <path d="M220.7450,185.4615L226.6950,185.4615"/>
   <path d="M223.7200,181.0188L223.7200,176.5762"/>
   <path d="M226.6950,176.5762L220.7450,176.5762"/>
   <path d="M223.7200,414.5185L223.7200,418.9611"/>
   <path d="M220.7450,418.9611L226.6950,418.9611"/>
   <path d="M223.7200,414.5185L223.7200,410.0758"/>
   <path d="M226.6950,410.0758L220.7450,410.0758"/>
   <path d="M227.0817,203.4210L227.0817,207.8636"/>
   <path d="M224.1067,207.8636L230.0567,207.8636"/>
   <path d="M227.0817,203.4210L227.0817,198.9783"/>
   <path d="M230.0567,198.9783L224.1067,198.9783"/>
   <path d="M240.5287,183.4123L240.5287,187.8550"/>
   <path d="M237.5537,187.8550L243.5037,187.8550"/>
   <path d="M240.5287,183.4123L240.5287,178.9697"/>
   <path d="M243.5037,178.9697L237.5537,178.9697"/>
   <path d="M243.8905,219.0258L243.8905,223.4685"/>
   <path d="M240.9155,223.4685L246.8655,223.4685"/>
   <path d="M243.8905,219.0258L243.8905,214.5832"/>
   <path d="M246.8655,214.5832L240.9155,214.5832"/>
   <path d="M247.2522,198.1051L247.2522,202.5477"/>
   <path d="M244.2772,202.5477L250.2272,202.5477"/>
   <path d="M247.2522,198.1051L247.2522,193.6624"/>
   <path d="M250.2272,193.6624L244.2772,193.6624"/>
   <path d="M250.6140,201.6481L250.6140,206.0907"/>
   <path d="M247.6390,206.0907L253.5890,206.0907"/>
   <path d="M250.6140,201.6481L250.6140,197.2054"/>
   <path d="M253.5890,197.2054L247.6390,197.2054"/>
   <path d="M253.9758,316.0259L253.9758,320.4686"/>
   <path d="M251.0008,320.4686L256.9508,320.4686"/>
   <path d="M253.9758,316.0259L253.9758,311.5833"/>
   <path d="M256.9508,311.5833L251.0008,311.5833"/>
   <path d="M257.3375,196.4793L257.3375,200.9220"/>
   <path d="M254.3625,200.9220L260.3125,200.9220"/>
   <path d="M257.3375,196.4793L257.3375,192.0366"/>
   <path d="M260.3125,192.0366L254.3625,192.0366"/>
   <path d="M260.6993,314.6695L260.6993,319.1122"/>
   <path d="M257.7242,319.1122L263.6742,319.1122"/>
   <path d="M260.6993,314.6695L260.6993,310.2269"/>
   <path d="M263.6742,310.2269L257.7242,310.2269"/>
   <path d="M264.0610,256.2471L264.0610,260.6897"/>
   <path d="M261.0860,260.6897L267.0360,260.6897"/>
   <path d="M264.0610,256.2471L264.0610,251.8044"/>
   <path d="M267.0360,251.8044L261.0860,251.8044"/>
   <path d="M274.1463,245.3389L274.1463,249.7816"/>
   <path d="M271.1712,249.7816L277.1212,249.7816"/>
   <path d="M274.1463,245.3389L274.1463,240.8963"/>
   <path d="M277.1212,240.8963L271.1712,240.8963"/>
   <path d="M277.5080,236.3814L277.5080,240.8241"/>
   <path d="M274.5330,240.8241L280.4830,240.8241"/>
   <path d="M277.5080,236.3814L277.5080,231.9387"/>
   <path d="M280.4830,231.9387L274.5330,231.9387"/>
   <path d="M280.8697,293.5502L280.8697,297.9929"/>
   <path d="M277.8947,297.9929L283.8447,297.9929"/>
   <path d="M280.8697,293.5502L280.8697,289.1075"/>
   <path d="M283.8447,289.1075L277.8947,289.1075"/>
   <path d="M284.2315,211.0110L284.2315,215.4537"/>
   <path d="M281.2565,215.4537L287.2065,215.4537"/>
   <path d="M284.2315,211.0110L284.2315,206.5683"/>
   <path d="M287.2065,206.5683L281.2565,206.5683"/>
   <path d="M287.5933,232.5135L287.5933,236.9562"/>
   <path d="M284.6182,236.9562L290.5682,236.9562"/>
   <path d="M287.5933,232.5135L287.5933,228.0708"/>
   <path d="M290.5682,228.0708L284.6182,228.0708"/>
   <path d="M290.9550,207.4569L290.9550,211.8995"/>
   <path d="M287.9800,211.8995L293.9300,211.8995"/>
   <path d="M290.9550,207.4569L290.9550,203.0142"/>
   <path d="M293.9300,203.0142L287.9800,203.0142"/>
   <path d="M294.3168,244.3477L294.3168,248.7903"/>
   <path d="M291.3417,248.7903L297.2917,248.7903"/>
   <path d="M294.3168,244.3477L294.3168,239.9050"/>
   <path d="M297.2917,239.9050L291.3417,239.9050"/>
   <path d="M297.6785,234.7876L297.6785,239.2303"/>
   <path d="M294.7035,239.2303L300.6535,239.2303"/>
   <path d="M297.6785,234.7876L297.6785,230.3449"/>
   <path d="M300.6535,230.3449L294.7035,230.3449"/>
   <path d="M301.0403,210.0711L301.0403,214.5138"/>
   <path d="M298.0652,214.5138L304.0153,214.5138"/>
   <path d="M301.0403,210.0711L301.0403,205.6284"/>
   <path d="M304.0153,205.6284L298.0652,205.6284"/>
   <path d="M304.4020,210.0183L304.4020,214.4610"/>
   <path d="M301.4270,214.4610L307.3770,214.4610"/>
   <path d="M304.4020,210.0183L304.4020,205.5757"/>
   <path d="M307.3770,205.5757L301.4270,205.5757"/>
   <path d="M307.7638,174.6728L307.7638,179.1154"/>
   <path d="M304.7887,179.1154L310.7387,179.1154"/>
   <path d="M307.7638,174.6728L307.7638,170.2301"/>
   <path d="M310.7387,170.2301L304.7887,170.2301"/>
   <path d="M311.1255,223.0242L311.1255,227.4669"/>
   <path d="M308.1505,227.4669L314.1005,227.4669"/>
   <path d="M311.1255,223.0242L311.1255,218.5816"/>
   <path d="M314.1005,218.5816L308.1505,218.5816"/>
   <path d="M314.4872,217.5056L314.4872,221.9483"/>
   <path d="M311.5122,221.9483L317.4622,221.9483"/>
   <path d="M314.4872,217.5056L314.4872,213.0630"/>
   <path d="M317.4622,213.0630L311.5122,213.0630"/>
   <path d="M317.8490,157.3200L317.8490,161.7627"/>
   <path d="M314.8740,161.7627L320.8240,161.7627"/>
   <path d="M317.8490,157.3200L317.8490,152.8773"/>
   <path d="M320.8240,152.8773L314.8740,152.8773"/>
   <path d="M321.2107,173.8897L321.2107,178.3324"/>
   <path d="M318.2357,178.3324L324.1857,178.3324"/>
   <path d="M321.2107,173.8897L321.2107,169.4471"/>
   <path d="M324.1857,169.4471L318.2357,169.4471"/>
   <path d="M324.5725,344.0619L324.5725,348.5046"/>
   <path d="M321.5975,348.5046L327.5475,348.5046"/>
   <path d="M324.5725,344.0619L324.5725,339.6193"/>
   <path d="M327.5475,339.6193L321.5975,339.6193"/>
   <path d="M327.9342,242.3485L327.9342,246.7911"/>
   <path d="M324.9592,246.7911L330.9092,246.7911"/>
   <path d="M327.9342,242.3485L327.9342,237.9058"/>
   <path d="M330.9092,237.9058L324.9592,237.9058"/>
   <path d="M331.2960,298.4982L331.2960,302.9409"/>
   <path d="M328.3210,302.9409L334.2710,302.9409"/>
   <path d="M331.2960,298.4982L331.2960,294.0555"/>
   <path d="M334.2710,294.0555L328.3210,294.0555"/>
   <path d="M334.6577,175.1448L334.6577,179.5875"/>
   <path d="M331.6827,179.5875L337.6327,179.5875"/>
   <path d="M334.6577,175.1448L334.6577,170.7021"/>
   <path d="M337.6327,170.7021L331.6827,170.7021"/>
   <path d="M338.0195,269.0822L338.0195,273.5249"/>
   <path d="M335.0445,273.5249L340.9945,273.5249"/>
   <path d="M338.0195,269.0822L338.0195,264.6395"/>
   <path d="M340.9945,264.6395L335.0445,264.6395"/>
   <path d="M341.3812,269.7306L341.3812,274.1732"/>
   <path d="M338.4062,274.1732L344.3562,274.1732"/>
   <path d="M341.3812,269.7306L341.3812,265.2879"/>
   <path d="M344.3562,265.2879L338.4062,265.2879"/>
   <path d="M344.7430,203.9777L344.7430,208.4204"/>
   <path d="M341.7680,208.4204L347.7180,208.4204"/>
   <path d="M344.7430,203.9777L344.7430,199.5350"/>
   <path d="M347.7180,199.5350L341.7680,199.5350"/>
   <path d="M351.4665,293.7862L351.4665,298.2289"/>
   <path d="M348.4915,298.2289L354.4415,298.2289"/>
   <path d="M351.4665,293.7862L351.4665,289.3435"/>
   <path d="M354.4415,289.3435L348.4915,289.3435"/>
   <path d="M354.8282,184.5160L354.8282,188.9587"/>
   <path d="M351.8532,188.9587L357.8032,188.9587"/>
   <path d="M354.8282,184.5160L354.8282,180.0734"/>
   <path d="M357.8032,180.0734L351.8532,180.0734"/>
   <path d="M358.1900,174.1105L358.1900,178.5532"/>
   <path d="M355.2150,178.5532L361.1650,178.5532"/>
   <path d="M358.1900,174.1105L358.1900,169.6678"/>
   <path d="M361.1650,169.6678L355.2150,169.6678"/>
   <path d="M361.5517,199.7322L361.5517,204.1748"/>
   <path d="M358.5767,204.1748L364.5267,204.1748"/>
   <path d="M361.5517,199.7322L361.5517,195.2895"/>
   <path d="M364.5267,195.2895L358.5767,195.2895"/>
   <path d="M368.2753,182.5168L368.2753,186.9595"/>
   <path d="M365.3003,186.9595L371.2502,186.9595"/>
   <path d="M368.2753,182.5168L368.2753,178.0742"/>
   <path d="M371.2502,178.0742L365.3003,178.0742"/>
   <path d="M371.6370,173.6607L371.6370,178.1033"/>
   <path d="M368.6620,178.1033L374.6120,178.1033"/>
   <path d="M371.6370,173.6607L371.6370,169.2180"/>
   <path d="M374.6120,169.2180L368.6620,169.2180"/>
   <path d="M381.7222,140.7502L381.7222,145.1929"/>
   <path d="M378.7472,145.1929L384.6972,145.1929"/>
   <path d="M381.7222,140.7502L381.7222,136.3076"/>
   <path d="M384.6972,136.3076L378.7472,136.3076"/>
   <path d="M385.0840,171.0673L385.0840,175.5099"/>
   <path d="M382.1090,175.5099L388.0590,175.5099"/>
   <path d="M385.0840,171.0673L385.0840,166.6246"/>
   <path d="M388.0590,166.6246L382.1090,166.6246"/>
   <path d="M388.4457,193.2584L388.4457,197.7010"/>
   <path d="M385.4707,197.7010L391.4207,197.7010"/>
   <path d="M388.4457,193.2584L388.4457,188.8157"/>
   <path d="M391.4207,188.8157L385.4707,188.8157"/>
   <path d="M391.8075,200.5957L391.8075,205.0384"/>
   <path d="M388.8325,205.0384L394.7825,205.0384"/>
   <path d="M391.8075,200.5957L391.8075,196.1531"/>
   <path d="M394.7825,196.1531L388.8325,196.1531"/>
   <path d="M395.1693,201.2427L395.1693,205.6854"/>
   <path d="M392.1943,205.6854L398.1442,205.6854"/>
   <path d="M395.1693,201.2427L395.1693,196.8000"/>
   <path d="M398.1442,196.8000L392.1943,196.8000"/>
   <path d="M401.8927,252.0640L401.8927,256.5067"/>
   <path d="M398.9178,256.5067L404.8678,256.5067"/>
   <path d="M401.8927,252.0640L401.8927,247.6213"/>
   <path d="M404.8678,247.6213L398.9178,247.6213"/>
   <path d="M408.6163,120.5833L408.6163,125.0260"/>
   <path d="M405.6413,125.0260L411.5913,125.0260"/>
   <path d="M408.6163,120.5833L408.6163,116.1406"/>
   <path d="M411.5913,116.1406L405.6413,116.1406"/>
   <path d="M415.3398,178.3338L415.3398,182.7765"/>
   <path d="M412.3648,182.7765L418.3148,182.7765"/>
   <path d="M415.3398,178.3338L415.3398,173.8911"/>
   <path d="M418.3148,173.8911L412.3648,173.8911"/>
   <path d="M418.7015,162.5568L418.7015,166.9994"/>
   <path d="M415.7265,166.9994L421.6765,166.9994"/>
   <path d="M418.7015,162.5568L418.7015,158.1141"/>
   <path d="M421.6765,158.1141L415.7265,158.1141"/>
   <path d="M425.4250,123.8625L425.4250,128.3052"/>
   <path d="M422.4500,128.3052L428.4000,128.3052"/>
   <path d="M425.4250,123.8625L425.4250,119.4199"/>
   <path d="M428.4000,119.4199L422.4500,119.4199"/>
   <path d="M432.1485,159.6371L432.1485,164.0798"/>
   <path d="M429.1735,164.0798L435.1235,164.0798"/>
   <path d="M432.1485,159.6371L432.1485,155.1944"/>
   <path d="M435.1235,155.1944L429.1735,155.1944"/>
   <path d="M435.5103,172.9526L435.5103,177.3953"/>
   <path d="M432.5353,177.3953L438.4853,177.3953"/>
   <path d="M435.5103,172.9526L435.5103,168.5100"/>
   <path d="M438.4853,168.5100L432.5353,168.5100"/>
   <path d="M438.8720,172.5930L438.8720,177.0357"/>
   <path d="M435.8970,177.0357L441.8470,177.0357"/>
   <path d="M438.8720,172.5930L438.8720,168.1504"/>
   <path d="M441.8470,168.1504L435.8970,168.1504"/>
   <path d="M442.2338,174.2646L442.2338,178.7073"/>
   <path d="M439.2588,178.7073L445.2088,178.7073"/>
   <path d="M442.2338,174.2646L442.2338,169.8219"/>
   <path d="M445.2088,169.8219L439.2588,169.8219"/>
   <path d="M445.5955,167.1688L445.5955,171.6115"/>
   <path d="M442.6205,171.6115L448.5705,171.6115"/>
   <path d="M445.5955,167.1688L445.5955,162.7262"/>
   <path d="M448.5705,162.7262L442.6205,162.7262"/>
   <path d="M448.9573,158.6000L448.9573,163.0427"/>
   <path d="M445.9823,163.0427L451.9323,163.0427"/>
   <path d="M448.9573,158.6000L448.9573,154.1574"/>
   <path d="M451.9323,154.1574L445.9823,154.1574"/>
   <path d="M452.3190,191.1634L452.3190,195.6061"/>
   <path d="M449.3440,195.6061L455.2940,195.6061"/>
   <path d="M452.3190,191.1634L452.3190,186.7207"/>
   <path d="M455.2940,186.7207L449.3440,186.7207"/>
   <path d="M455.6808,208.5578L455.6808,213.0005"/>
   <path d="M452.7058,213.0005L458.6558,213.0005"/>
   <path d="M455.6808,208.5578L455.6808,204.1151"/>
   <path d="M458.6558,204.1151L452.7058,204.1151"/>
   <path d="M459.0425,190.5400L459.0425,194.9827"/>
   <path d="M456.0675,194.9827L462.0175,194.9827"/>
   <path d="M459.0425,190.5400L459.0425,186.0974"/>
   <path d="M462.0175,186.0974L456.0675,186.0974"/>
   <path d="M462.4042,218.5149L462.4042,222.9576"/>
   <path d="M459.4293,222.9576L465.3793,222.9576"/>
   <path d="M462.4042,218.5149L462.4042,214.0723"/>
   <path d="M465.3793,214.0723L459.4293,214.0723"/>
   <path d="M465.7660,215.1413L465.7660,219.5840"/>
   <path d="M462.7910,219.5840L468.7410,219.5840"/>
   <path d="M465.7660,215.1413L465.7660,210.6986"/>
   <path d="M468.7410,210.6986L462.7910,210.6986"/>
   <path d="M469.1278,203.7125L469.1278,208.1552"/>
   <path d="M466.1528,208.1552L472.1028,208.1552"/>
   <path d="M469.1278,203.7125L469.1278,199.2699"/>
   <path d="M472.1028,199.2699L466.1528,199.2699"/>
   <path d="M472.4895,191.5813L472.4895,212.4063"/>
   <path d="M469.5145,212.4063L475.4645,212.4063"/>
   <path d="M472.4895,191.5813L472.4895,170.7563"/>
   <path d="M475.4645,170.7563L469.5145,170.7563"/>
   <path d="M475.8513,263.3831L475.8513,267.8258"/>
   <path d="M472.8763,267.8258L478.8263,267.8258"/>
   <path d="M475.8513,263.3831L475.8513,258.9404"/>
   <path d="M478.8263,258.9404L472.8763,258.9404"/>
   <path d="M479.2130,266.1223L479.2130,270.5649"/>
   <path d="M476.2380,270.5649L482.1880,270.5649"/>
   <path d="M479.2130,266.1223L479.2130,261.6796"/>
   <path d="M482.1880,261.6796L476.2380,261.6796"/>
   <path d="M482.5748,332.2805L482.5748,336.7232"/>
   <path d="M479.5998,336.7232L485.5498,336.7232"/>
   <path d="M482.5748,332.2805L482.5748,327.8379"/>
   <path d="M485.5498,327.8379L479.5998,327.8379"/>
   <path d="M485.9365,286.9889L485.9365,291.4316"/>
   <path d="M482.9615,291.4316L488.9115,291.4316"/>
   <path d="M485.9365,286.9889L485.9365,282.5463"/>
   <path d="M488.9115,282.5463L482.9615,282.5463"/>
   <path d="M489.2982,264.4896L489.2982,268.9323"/>
   <path d="M486.3233,268.9323L492.2733,268.9323"/>
   <path d="M489.2982,264.4896L489.2982,260.0469"/>
   <path d="M492.2733,260.0469L486.3233,260.0469"/>
   <path d="M492.6600,233.4479L492.6600,237.8905"/>
   <path d="M489.6850,237.8905L495.6350,237.8905"/>
   <path d="M492.6600,233.4479L492.6600,229.0052"/>
   <path d="M495.6350,229.0052L489.6850,229.0052"/>
   <path d="M496.0217,207.0306L496.0217,211.4733"/>
   <path d="M493.0467,211.4733L498.9968,211.4733"/>
   <path d="M496.0217,207.0306L496.0217,202.5880"/>
   <path d="M498.9968,202.5880L493.0467,202.5880"/>
   <path d="M499.3835,260.1622L499.3835,264.6048"/>
   <path d="M496.4085,264.6048L502.3585,264.6048"/>
   <path d="M499.3835,260.1622L499.3835,255.7195"/>
   <path d="M502.3585,255.7195L496.4085,255.7195"/>
   <path d="M502.7453,322.8690L502.7453,327.3117"/>
   <path d="M499.7703,327.3117L505.7203,327.3117"/>
   <path d="M502.7453,322.8690L502.7453,318.4263"/>
   <path d="M505.7203,318.4263L499.7703,318.4263"/>
   <path d="M509.4688,339.4291L509.4688,343.8717"/>
   <path d="M506.4938,343.8717L512.4438,343.8717"/>
   <path d="M509.4688,339.4291L509.4688,334.9864"/>
   <path d="M512.4438,334.9864L506.4938,334.9864"/>
   <path d="M516.1923,363.9790L516.1923,368.4216"/>
   <path d="M513.2173,368.4216L519.1673,368.4216"/>
   <path d="M516.1923,363.9790L516.1923,359.5363"/>
   <path d="M519.1673,359.5363L513.2173,359.5363"/>
   <path d="M519.5540,302.8395L519.5540,307.2822"/>
   <path d="M516.5790,307.2822L522.5290,307.2822"/>
   <path d="M519.5540,302.8395L519.5540,298.3969"/>
   <path d="M522.5290,298.3969L516.5790,298.3969"/>
   <path d="M526.2775,208.4828L526.2775,212.9255"/>
   <path d="M523.3025,212.9255L529.2525,212.9255"/>
   <path d="M526.2775,208.4828L526.2775,204.0402"/>
   <path d="M529.2525,204.0402L523.3025,204.0402"/>
   <path d="M529.6392,216.2228L529.6392,220.6655"/>
   <path d="M526.6643,220.6655L532.6142,220.6655"/>
   <path d="M529.6392,216.2228L529.6392,211.7801"/>
   <path d="M532.6142,211.7801L526.6643,211.7801"/>
   <path d="M533.0010,170.5092L533.0010,174.9518"/>
   <path d="M530.0260,174.9518L535.9760,174.9518"/>
   <path d="M533.0010,170.5092L533.0010,166.0665"/>
   <path d="M535.9760,166.0665L530.0260,166.0665"/>
   <path d="M536.3628,258.4045L536.3628,262.8472"/>
   <path d="M533.3877,262.8472L539.3378,262.8472"/>
   <path d="M536.3628,258.4045L536.3628,253.9619"/>
   <path d="M539.3378,253.9619L533.3877,253.9619"/>
   <path d="M539.7245,274.0108L539.7245,278.4535"/>
   <path d="M536.7495,278.4535L542.6995,278.4535"/>
   <path d="M539.7245,274.0108L539.7245,269.5681"/>
   <path d="M542.6995,269.5681L536.7495,269.5681"/>
   <path d="M543.0862,221.2680L543.0862,225.7107"/>
   <path d="M540.1112,225.7107L546.0612,225.7107"/>
   <path d="M543.0862,221.2680L543.0862,216.8253"/>
   <path d="M546.0612,216.8253L540.1112,216.8253"/>
   <path d="M549.8098,199.9154L549.8098,204.3581"/>
   <path d="M546.8347,204.3581L552.7848,204.3581"/>
   <path d="M549.8098,199.9154L549.8098,195.4728"/>
   <path d="M552.7848,195.4728L546.8347,195.4728"/>
   <path d="M553.1715,231.8429L553.1715,236.2856"/>
   <path d="M550.1965,236.2856L556.1465,236.2856"/>
   <path d="M553.1715,231.8429L553.1715,227.4003"/>
   <path d="M556.1465,227.4003L550.1965,227.4003"/>
   <path d="M559.8950,266.0890L559.8950,270.5316"/>
   <path d="M556.9200,270.5316L562.8700,270.5316"/>
   <path d="M559.8950,266.0890L559.8950,261.6463"/>
   <path d="M562.8700,261.6463L556.9200,261.6463"/>
   <path d="M566.6185,231.8846L566.6185,236.3273"/>
   <path d="M563.6435,236.3273L569.5935,236.3273"/>
   <path d="M566.6185,231.8846L566.6185,227.4419"/>
   <path d="M569.5935,227.4419L563.6435,227.4419"/>
   <path d="M569.9802,205.3397L569.9802,209.7823"/>
   <path d="M567.0052,209.7823L572.9552,209.7823"/>
   <path d="M569.9802,205.3397L569.9802,200.8970"/>
   <path d="M572.9552,200.8970L567.0052,200.8970"/>
   <path d="M573.3420,257.7603L573.3420,262.2030"/>
   <path d="M570.3670,262.2030L576.3170,262.2030"/>
   <path d="M573.3420,257.7603L573.3420,253.3177"/>
   <path d="M576.3170,253.3177L570.3670,253.3177"/>
   <path d="M580.0655,221.5248L580.0655,225.9675"/>
   <path d="M577.0905,225.9675L583.0405,225.9675"/>
   <path d="M580.0655,221.5248L580.0655,217.0822"/>
   <path d="M583.0405,217.0822L577.0905,217.0822"/>
   <path d="M586.7890,201.7619L586.7890,206.2046"/>
   <path d="M583.8140,206.2046L589.7640,206.2046"/>
   <path d="M586.7890,201.7619L586.7890,197.3193"/>
   <path d="M589.7640,197.3193L583.8140,197.3193"/>
   <path d="M590.1508,163.4911L590.1508,167.9338"/>
   <path d="M587.1757,167.9338L593.1258,167.9338"/>
   <path d="M590.1508,163.4911L590.1508,159.0485"/>
   <path d="M593.1258,159.0485L587.1757,159.0485"/>
   <path d="M593.5125,160.1147L593.5125,164.5574"/>
   <path d="M590.5375,164.5574L596.4875,164.5574"/>
   <path d="M593.5125,160.1147L593.5125,155.6720"/>
   <path d="M596.4875,155.6720L590.5375,155.6720"/>
   <path d="M596.8742,193.4972L596.8742,197.9398"/>
   <path d="M593.8992,197.9398L599.8492,197.9398"/>
   <path d="M596.8742,193.4972L596.8742,189.0545"/>
   <path d="M599.8492,189.0545L593.8992,189.0545"/>
   <path d="M603.5978,194.6967L603.5978,199.1394"/>
   <path d="M600.6228,199.1394L606.5727,199.1394"/>
   <path d="M603.5978,194.6967L603.5978,190.2540"/>
   <path d="M606.5727,190.2540L600.6228,190.2540"/>
   <path d="M606.9595,177.6799L606.9595,182.1226"/>
   <path d="M603.9845,182.1226L609.9345,182.1226"/>
   <path d="M606.9595,177.6799L606.9595,173.2372"/>
   <path d="M609.9345,173.2372L603.9845,173.2372"/>
   <path d="M610.3212,218.5621L610.3212,223.0048"/>
   <path d="M607.3463,223.0048L613.2962,223.0048"/>
   <path d="M610.3212,218.5621L610.3212,214.1195"/>
   <path d="M613.2962,214.1195L607.3463,214.1195"/>
   <path d="M613.6830,247.7394L613.6830,252.1820"/>
   <path d="M610.7080,252.1820L616.6580,252.1820"/>
   <path d="M613.6830,247.7394L613.6830,243.2967"/>
   <path d="M616.6580,243.2967L610.7080,243.2967"/>
   <path d="M617.0448,207.3999L617.0448,211.8426"/>
   <path d="M614.0698,211.8426L620.0197,211.8426"/>
   <path d="M617.0448,207.3999L617.0448,202.9573"/>
   <path d="M620.0197,202.9573L614.0698,202.9573"/>
   <path d="M620.4065,184.5008L620.4065,188.9434"/>
   <path d="M617.4315,188.9434L623.3815,188.9434"/>
   <path d="M620.4065,184.5008L620.4065,180.0581"/>
   <path d="M623.3815,180.0581L617.4315,180.0581"/>
   <path d="M623.7683,237.3185L623.7683,241.7612"/>
   <path d="M620.7933,241.7612L626.7432,241.7612"/>
   <path d="M623.7683,237.3185L623.7683,232.8759"/>
   <path d="M626.7432,232.8759L620.7933,232.8759"/>
   <path d="M627.1300,222.4800L627.1300,226.9227"/>
   <path d="M624.1550,226.9227L630.1050,226.9227"/>
   <path d="M627.1300,222.4800L627.1300,218.0374"/>
   <path d="M630.1050,218.0374L624.1550,218.0374"/>
   <path d="M630.4918,224.2876L630.4918,228.7303"/>
   <path d="M627.5168,228.7303L633.4667,228.7303"/>
   <path d="M630.4918,224.2876L630.4918,219.8450"/>
   <path d="M633.4667,219.8450L627.5168,219.8450"/>
   <path d="M633.8535,292.5728L633.8535,297.0155"/>
   <path d="M630.8785,297.0155L636.8285,297.0155"/>
   <path d="M633.8535,292.5728L633.8535,288.1301"/>
   <path d="M636.8285,288.1301L630.8785,288.1301"/>
   <path d="M640.5770,249.1721L640.5770,253.6148"/>
   <path d="M637.6020,253.6148L643.5520,253.6148"/>
   <path d="M640.5770,249.1721L640.5770,244.7295"/>
   <path d="M643.5520,244.7295L637.6020,244.7295"/>
   <path d="M643.9387,271.6950L643.9387,276.1377"/>
   <path d="M640.9638,276.1377L646.9137,276.1377"/>
   <path d="M643.9387,271.6950L643.9387,267.2524"/>
   <path d="M646.9137,267.2524L640.9638,267.2524"/>
   <ellipse  rx="2.6775" ry="2.6775" cx="102.6970" cy="267.7203"/>
   <ellipse  rx="2.6775" ry="2.6775" cx="106.0587" cy="291.8620"/>
   <ellipse  rx="2.6775" ry="2.6775" cx="109.4205" cy="251.3712"/>
   <ellipse  rx="2.6775" ry="2.6775" cx="112.7822" cy="228.4804"/>
   <ellipse  rx="2.6775" ry="2.6775" cx="116.1440" cy="274.9368"/>
   <ellipse  rx="2.6775" ry="2.6775" cx="129.5910" cy="181.8407"/>
   <ellipse  rx="2.6775" ry="2.6775" cx="132.9527" cy="211.8856"/>
   <ellipse  rx="2.6775" ry="2.6775" cx="136.3145" cy="177.0246"/>
   <ellipse  rx="2.6775" ry="2.6775" cx="139.6762" cy="179.1640"/>
   <ellipse  rx="2.6775" ry="2.6775" cx="143.0380" cy="146.4438"/>
   <ellipse  rx="2.6775" ry="2.6775" cx="146.3997" cy="186.4486"/>
   <ellipse  rx="2.6775" ry="2.6775" cx="149.7615" cy="225.9647"/>
   <ellipse  rx="2.6775" ry="2.6775" cx="156.4850" cy="210.6014"/>
   <ellipse  rx="2.6775" ry="2.6775" cx="159.8467" cy="167.8769"/>
   <ellipse  rx="2.6775" ry="2.6775" cx="163.2085" cy="210.8749"/>
   <ellipse  rx="2.6775" ry="2.6775" cx="169.9320" cy="227.1892"/>
   <ellipse  rx="2.6775" ry="2.6775" cx="173.2937" cy="298.4163"/>
   <ellipse  rx="2.6775" ry="2.6775" cx="176.6555" cy="247.2618"/>
   <ellipse  rx="2.6775" ry="2.6775" cx="180.0172" cy="263.9148"/>
   <ellipse  rx="2.6775" ry="2.6775" cx="183.3790" cy="183.6706"/>
   <ellipse  rx="2.6775" ry="2.6775" cx="186.7407" cy="191.2439"/>
   <ellipse  rx="2.6775" ry="2.6775" cx="190.1025" cy="220.4794"/>
   <ellipse  rx="2.6775" ry="2.6775" cx="196.8260" cy="202.1590"/>
   <ellipse  rx="2.6775" ry="2.6775" cx="200.1877" cy="183.5914"/>
   <ellipse  rx="2.6775" ry="2.6775" cx="203.5495" cy="180.3649"/>
   <ellipse  rx="2.6775" ry="2.6775" cx="206.9112" cy="167.6117"/>
   <ellipse  rx="2.6775" ry="2.6775" cx="210.2730" cy="220.6363"/>
   <ellipse  rx="2.6775" ry="2.6775" cx="216.9965" cy="219.0550"/>
   <ellipse  rx="2.6775" ry="2.6775" cx="220.3582" cy="245.5888"/>
   <ellipse  rx="2.6775" ry="2.6775" cx="223.7200" cy="181.0188"/>
   <ellipse  rx="2.6775" ry="2.6775" cx="223.7200" cy="414.5185"/>
   <ellipse  rx="2.6775" ry="2.6775" cx="227.0817" cy="203.4210"/>
   <ellipse  rx="2.6775" ry="2.6775" cx="240.5287" cy="183.4123"/>
   <ellipse  rx="2.6775" ry="2.6775" cx="243.8905" cy="219.0258"/>
   <ellipse  rx="2.6775" ry="2.6775" cx="247.2522" cy="198.1051"/>
   <ellipse  rx="2.6775" ry="2.6775" cx="250.6140" cy="201.6481"/>
   <ellipse  rx="2.6775" ry="2.6775" cx="253.9758" cy="316.0259"/>
   <ellipse  rx="2.6775" ry="2.6775" cx="257.3375" cy="196.4793"/>
   <ellipse  rx="2.6775" ry="2.6775" cx="260.6993" cy="314.6695"/>
   <ellipse  rx="2.6775" ry="2.6775" cx="264.0610" cy="256.2471"/>
   <ellipse  rx="2.6775" ry="2.6775" cx="274.1463" cy="245.3389"/>
   <ellipse  rx="2.6775" ry="2.6775" cx="277.5080" cy="236.3814"/>
   <ellipse  rx="2.6775" ry="2.6775" cx="280.8697" cy="293.5502"/>
   <ellipse  rx="2.6775" ry="2.6775" cx="284.2315" cy="211.0110"/>
   <ellipse  rx="2.6775" ry="2.6775" cx="287.5933" cy="232.5135"/>
   <ellipse  rx="2.6775" ry="2.6775" cx="290.9550" cy="207.4569"/>
   <ellipse  rx="2.6775" ry="2.6775" cx="294.3168" cy="244.3477"/>
   <ellipse  rx="2.6775" ry="2.6775" cx="297.6785" cy="234.7876"/>
   <ellipse  rx="2.6775" ry="2.6775" cx="301.0403" cy="210.0711"/>
   <ellipse  rx="2.6775" ry="2.6775" cx="304.4020" cy="210.0183"/>
   <ellipse  rx="2.6775" ry="2.6775" cx="307.7638" cy="174.6728"/>
   <ellipse  rx="2.6775" ry="2.6775" cx="311.1255" cy="223.0242"/>
   <ellipse  rx="2.6775" ry="2.6775" cx="314.4872" cy="217.5056"/>
   <ellipse  rx="2.6775" ry="2.6775" cx="317.8490" cy="157.3200"/>
   <ellipse  rx="2.6775" ry="2.6775" cx="321.2107" cy="173.8897"/>
   <ellipse  rx="2.6775" ry="2.6775" cx="324.5725" cy="344.0619"/>
   <ellipse  rx="2.6775" ry="2.6775" cx="327.9342" cy="242.3485"/>
   <ellipse  rx="2.6775" ry="2.6775" cx="331.2960" cy="298.4982"/>
   <ellipse  rx="2.6775" ry="2.6775" cx="334.6577" cy="175.1448"/>
   <ellipse  rx="2.6775" ry="2.6775" cx="338.0195" cy="269.0822"/>
   <ellipse  rx="2.6775" ry="2.6775" cx="341.3812" cy="269.7306"/>
   <ellipse  rx="2.6775" ry="2.6775" cx="344.7430" cy="203.9777"/>
   <ellipse  rx="2.6775" ry="2.6775" cx="351.4665" cy="293.7862"/>
   <ellipse  rx="2.6775" ry="2.6775" cx="354.8282" cy="184.5160"/>
   <ellipse  rx="2.6775" ry="2.6775" cx="358.1900" cy="174.1105"/>
   <ellipse  rx="2.6775" ry="2.6775" cx="361.5517" cy="199.7322"/>
   <ellipse  rx="2.6775" ry="2.6775" cx="368.2753" cy="182.5168"/>
   <ellipse  rx="2.6775" ry="2.6775" cx="371.6370" cy="173.6607"/>
   <ellipse  rx="2.6775" ry="2.6775" cx="381.7222" cy="140.7502"/>
   <ellipse  rx="2.6775" ry="2.6775" cx="385.0840" cy="171.0673"/>
   <ellipse  rx="2.6775" ry="2.6775" cx="388.4457" cy="193.2584"/>
   <ellipse  rx="2.6775" ry="2.6775" cx="391.8075" cy="200.5957"/>
   <ellipse  rx="2.6775" ry="2.6775" cx="395.1693" cy="201.2427"/>
   <ellipse  rx="2.6775" ry="2.6775" cx="401.8927" cy="252.0640"/>
   <ellipse  rx="2.6775" ry="2.6775" cx="408.6163" cy="120.5833"/>
   <ellipse  rx="2.6775" ry="2.6775" cx="415.3398" cy="178.3338"/>
   <ellipse  rx="2.6775" ry="2.6775" cx="418.7015" cy="162.5568"/>
   <ellipse  rx="2.6775" ry="2.6775" cx="425.4250" cy="123.8625"/>
   <ellipse  rx="2.6775" ry="2.6775" cx="432.1485" cy="159.6371"/>
   <ellipse  rx="2.6775" ry="2.6775" cx="435.5103" cy="172.9526"/>
   <ellipse  rx="2.6775" ry="2.6775" cx="438.8720" cy="172.5930"/>
   <ellipse  rx="2.6775" ry="2.6775" cx="442.2338" cy="174.2646"/>
   <ellipse  rx="2.6775" ry="2.6775" cx="445.5955" cy="167.1688"/>
   <ellipse  rx="2.6775" ry="2.6775" cx="448.9573" cy="158.6000"/>
   <ellipse  rx="2.6775" ry="2.6775" cx="452.3190" cy="191.1634"/>
   <ellipse  rx="2.6775" ry="2.6775" cx="455.6808" cy="208.5578"/>
   <ellipse  rx="2.6775" ry="2.6775" cx="459.0425" cy="190.5400"/>
   <ellipse  rx="2.6775" ry="2.6775" cx="462.4042" cy="218.5149"/>
   <ellipse  rx="2.6775" ry="2.6775" cx="465.7660" cy="215.1413"/>
   <ellipse  rx="2.6775" ry="2.6775" cx="469.1278" cy="203.7125"/>
   <ellipse  rx="2.6775" ry="2.6775" cx="472.4895" cy="191.5813"/>
   <ellipse  rx="2.6775" ry="2.6775" cx="475.8513" cy="263.3831"/>
   <ellipse  rx="2.6775" ry="2.6775" cx="479.2130" cy="266.1223"/>
   <ellipse  rx="2.6775" ry="2.6775" cx="482.5748" cy="332.2805"/>
   <ellipse  rx="2.6775" ry="2.6775" cx="485.9365" cy="286.9889"/>
   <ellipse  rx="2.6775" ry="2.6775" cx="489.2982" cy="264.4896"/>
   <ellipse  rx="2.6775" ry="2.6775" cx="492.6600" cy="233.4479"/>
   <ellipse  rx="2.6775" ry="2.6775" cx="496.0217" cy="207.0306"/>
   <ellipse  rx="2.6775" ry="2.6775" cx="499.3835" cy="260.1622"/>
   <ellipse  rx="2.6775" ry="2.6775" cx="502.7453" cy="322.8690"/>
   <ellipse  rx="2.6775" ry="2.6775" cx="509.4688" cy="339.4291"/>
   <ellipse  rx="2.6775" ry="2.6775" cx="516.1923" cy="363.9790"/>
   <ellipse  rx="2.6775" ry="2.6775" cx="519.5540" cy="302.8395"/>
   <ellipse  rx="2.6775" ry="2.6775" cx="526.2775" cy="208.4828"/>
   <ellipse  rx="2.6775" ry="2.6775" cx="529.6392" cy="216.2228"/>
   <ellipse  rx="2.6775" ry="2.6775" cx="533.0010" cy="170.5092"/>
   <ellipse  rx="2.6775" ry="2.6775" cx="536.3628" cy="258.4045"/>
   <ellipse  rx="2.6775" ry="2.6775" cx="539.7245" cy="274.0108"/>
   <ellipse  rx="2.6775" ry="2.6775" cx="543.0862" cy="221.2680"/>
   <ellipse  rx="2.6775" ry="2.6775" cx="549.8098" cy="199.9154"/>
   <ellipse  rx="2.6775" ry="2.6775" cx="553.1715" cy="231.8429"/>
   <ellipse  rx="2.6775" ry="2.6775" cx="559.8950" cy="266.0890"/>
   <ellipse  rx="2.6775" ry="2.6775" cx="566.6185" cy="231.8846"/>
   <ellipse  rx="2.6775" ry="2.6775" cx="569.9802" cy="205.3397"/>
   <ellipse  rx="2.6775" ry="2.6775" cx="573.3420" cy="257.7603"/>
   <ellipse  rx="2.6775" ry="2.6775" cx="580.0655" cy="221.5248"/>
   <ellipse  rx="2.6775" ry="2.6775" cx="586.7890" cy="201.7619"/>
   <ellipse  rx="2.6775" ry="2.6775" cx="590.1508" cy="163.4911"/>
   <ellipse  rx="2.6775" ry="2.6775" cx="593.5125" cy="160.1147"/>
   <ellipse  rx="2.6775" ry="2.6775" cx="596.8742" cy="193.4972"/>
   <ellipse  rx="2.6775" ry="2.6775" cx="603.5978" cy="194.6967"/>
   <ellipse  rx="2.6775" ry="2.6775" cx="606.9595" cy="177.6799"/>
   <ellipse  rx="2.6775" ry="2.6775" cx="610.3212" cy="218.5621"/>
   <ellipse  rx="2.6775" ry="2.6775" cx="613.6830" cy="247.7394"/>
   <ellipse  rx="2.6775" ry="2.6775" cx="617.0448" cy="207.3999"/>
   <ellipse  rx="2.6775" ry="2.6775" cx="620.4065" cy="184.5008"/>
   <ellipse  rx="2.6775" ry="2.6775" cx="623.7683" cy="237.3185"/>
   <ellipse  rx="2.6775" ry="2.6775" cx="627.1300" cy="222.4800"/>
   <ellipse  rx="2.6775" ry="2.6775" cx="630.4918" cy="224.2876"/>
   <ellipse  rx="2.6775" ry="2.6775" cx="633.8535" cy="292.5728"/>
   <ellipse  rx="2.6775" ry="2.6775" cx="640.5770" cy="249.1721"/>
   <ellipse  rx="2.6775" ry="2.6775" cx="643.9387" cy="271.6950"/>
  </g>
  <g style="fill:none; stroke:#FF0000; stroke-width:  0.8925; stroke-linecap:butt; stroke-linejoin:miter; stroke-dasharray:none">
   <path d="M102.6970,111.2412L106.0587,174.3340L109.4205,161.9084L112.7822,173.6301L116.1440,207.9539L129.5910,175.7945L132.9527,197.9857L136.3145,164.0659L139.6762,154.6238L143.0380,150.5602
            L146.3997,166.4038L149.7615,215.3523L156.4850,192.6100L159.8467,155.2042L163.2085,202.8476L169.9320,212.3105L173.2937,269.3182L176.6555,207.2764L180.0172,235.2291L183.3790,179.4084
            L186.7407,175.8056L190.1025,205.9422L196.8260,191.0662L200.1877,167.5381L203.5495,158.0600L206.9112,148.5207L210.2730,189.3697L216.9965,183.4234L220.3582,202.7004L223.7200,158.0836
            L223.7200,335.7458L227.0817,194.3760L240.5287,179.4986L243.8905,192.2602L247.2522,170.9118L250.6140,184.5049L253.9758,271.8353L257.3375,171.8933L260.6993,279.9293L264.0610,220.7349
            L274.1463,216.3130L277.5080,221.8344L280.8697,267.7064L284.2315,195.0702L287.5933,222.1815L290.9550,196.5418L294.3168,229.7799L297.6785,208.6619L301.0403,198.2550L304.4020,199.3226
            L307.7638,166.8203L311.1255,203.5626L314.4872,210.7791L317.8490,150.4977L321.2107,168.3794L324.5725,309.5105L327.9342,228.9677L331.2960,250.9547L334.6577,160.9047L338.0195,237.7420
            L341.3812,247.9740L344.7430,187.6648L351.4665,254.2978L354.8282,163.2162L358.1900,160.4535L361.5517,181.7394L368.2753,168.8626L371.6370,163.6605L381.7222,138.5469L385.0840,145.3859
            L388.4457,165.0072L391.8075,167.4243L395.1693,151.7722L401.8927,206.9751L408.6163,104.7618L415.3398,157.1673L418.7015,140.2949L425.4250,101.3229L432.1485,151.8569L435.5103,163.4370
            L438.8720,162.3430L442.2338,159.5233L445.5955,160.5562L448.9573,150.3547L452.3190,188.5047L455.6808,194.0733L459.0425,187.2858L462.4042,197.4525L465.7660,198.6465L469.1278,184.1467
            L472.4895,162.5373L475.8513,237.9710L479.2130,242.5664L482.5748,274.5217L485.9365,266.2431L489.2982,239.4482L492.6600,214.2541L496.0217,178.4254L499.3835,235.0417L502.7453,224.3140
            L509.4688,255.7375L516.1923,258.4837L519.5540,210.2932L526.2775,168.7349L529.6392,189.6154L533.0010,162.2583L536.3628,202.9420L539.7245,252.7443L543.0862,211.8718L549.8098,194.5245
            L553.1715,214.6040L559.8950,234.3725L566.6185,216.1228L569.9802,192.4212L573.3420,242.7330L580.0655,190.3040L586.7890,183.2499L590.1508,148.3319L593.5125,156.0913L596.8742,176.9677
            L603.5978,169.5456L606.9595,158.6250L610.3212,208.0400L613.6830,225.5427L617.0448,199.5864L620.4065,186.4958L623.7683,232.8356L627.1300,198.7090L630.4918,216.6837L633.8535,274.5078
            L640.5770,222.4564L643.9387,232.6093"/>
  </g>
  <g style="fill:none; stroke:#FF0000; stroke-width:  0.4463; stroke-linecap:butt; stroke-linejoin:miter; stroke-dasharray:none">
   <path d="M102.6970,111.2412L102.6970,114.8509"/>
   <path d="M99.7220,114.8509L105.6720,114.8509"/>
   <path d="M102.6970,111.2412L102.6970,107.6315"/>
   <path d="M105.6720,107.6315L99.7220,107.6315"/>
   <path d="M106.0587,174.3340L106.0587,177.9437"/>
   <path d="M103.0837,177.9437L109.0337,177.9437"/>
   <path d="M106.0587,174.3340L106.0587,170.7243"/>
   <path d="M109.0337,170.7243L103.0837,170.7243"/>
   <path d="M109.4205,161.9084L109.4205,165.5181"/>
   <path d="M106.4455,165.5181L112.3955,165.5181"/>
   <path d="M109.4205,161.9084L109.4205,158.2988"/>
   <path d="M112.3955,158.2988L106.4455,158.2988"/>
   <path d="M112.7822,173.6301L112.7822,177.2398"/>
   <path d="M109.8072,177.2398L115.7572,177.2398"/>
   <path d="M112.7822,173.6301L112.7822,170.0205"/>
   <path d="M115.7572,170.0205L109.8072,170.0205"/>
   <path d="M116.1440,207.9539L116.1440,211.5636"/>
   <path d="M113.1690,211.5636L119.1190,211.5636"/>
   <path d="M116.1440,207.9539L116.1440,204.3442"/>
   <path d="M119.1190,204.3442L113.1690,204.3442"/>
   <path d="M129.5910,175.7945L129.5910,179.4042"/>
   <path d="M126.6160,179.4042L132.5660,179.4042"/>
   <path d="M129.5910,175.7945L129.5910,172.1849"/>
   <path d="M132.5660,172.1849L126.6160,172.1849"/>
   <path d="M132.9527,197.9857L132.9527,201.5953"/>
   <path d="M129.9777,201.5953L135.9277,201.5953"/>
   <path d="M132.9527,197.9857L132.9527,194.3760"/>
   <path d="M135.9277,194.3760L129.9777,194.3760"/>
   <path d="M136.3145,164.0659L136.3145,167.6756"/>
   <path d="M133.3395,167.6756L139.2895,167.6756"/>
   <path d="M136.3145,164.0659L136.3145,160.4562"/>
   <path d="M139.2895,160.4562L133.3395,160.4562"/>
   <path d="M139.6762,154.6238L139.6762,158.2335"/>
   <path d="M136.7012,158.2335L142.6512,158.2335"/>
   <path d="M139.6762,154.6238L139.6762,151.0142"/>
   <path d="M142.6512,151.0142L136.7012,151.0142"/>
   <path d="M143.0380,150.5602L143.0380,154.1699"/>
   <path d="M140.0630,154.1699L146.0130,154.1699"/>
   <path d="M143.0380,150.5602L143.0380,146.9505"/>
   <path d="M146.0130,146.9505L140.0630,146.9505"/>
   <path d="M146.3997,166.4038L146.3997,170.0135"/>
   <path d="M143.4247,170.0135L149.3747,170.0135"/>
   <path d="M146.3997,166.4038L146.3997,162.7942"/>
   <path d="M149.3747,162.7942L143.4247,162.7942"/>
   <path d="M149.7615,215.3523L149.7615,218.9620"/>
   <path d="M146.7865,218.9620L152.7365,218.9620"/>
   <path d="M149.7615,215.3523L149.7615,211.7426"/>
   <path d="M152.7365,211.7426L146.7865,211.7426"/>
   <path d="M156.4850,192.6100L156.4850,196.2197"/>
   <path d="M153.5100,196.2197L159.4600,196.2197"/>
   <path d="M156.4850,192.6100L156.4850,189.0004"/>
   <path d="M159.4600,189.0004L153.5100,189.0004"/>
   <path d="M159.8467,155.2042L159.8467,158.8138"/>
   <path d="M156.8717,158.8138L162.8217,158.8138"/>
   <path d="M159.8467,155.2042L159.8467,151.5945"/>
   <path d="M162.8217,151.5945L156.8717,151.5945"/>
   <path d="M163.2085,202.8476L163.2085,206.4573"/>
   <path d="M160.2335,206.4573L166.1835,206.4573"/>
   <path d="M163.2085,202.8476L163.2085,199.2379"/>
   <path d="M166.1835,199.2379L160.2335,199.2379"/>
   <path d="M169.9320,212.3105L169.9320,215.9201"/>
   <path d="M166.9570,215.9201L172.9070,215.9201"/>
   <path d="M169.9320,212.3105L169.9320,208.7008"/>
   <path d="M172.9070,208.7008L166.9570,208.7008"/>
   <path d="M173.2937,269.3182L173.2937,272.9279"/>
   <path d="M170.3187,272.9279L176.2687,272.9279"/>
   <path d="M173.2937,269.3182L173.2937,265.7086"/>
   <path d="M176.2687,265.7086L170.3187,265.7086"/>
   <path d="M176.6555,207.2764L176.6555,210.8860"/>
   <path d="M173.6805,210.8860L179.6305,210.8860"/>
   <path d="M176.6555,207.2764L176.6555,203.6667"/>
   <path d="M179.6305,203.6667L173.6805,203.6667"/>
   <path d="M180.0172,235.2291L180.0172,238.8388"/>
   <path d="M177.0422,238.8388L182.9922,238.8388"/>
   <path d="M180.0172,235.2291L180.0172,231.6194"/>
   <path d="M182.9922,231.6194L177.0422,231.6194"/>
   <path d="M183.3790,179.4084L183.3790,183.0180"/>
   <path d="M180.4040,183.0180L186.3540,183.0180"/>
   <path d="M183.3790,179.4084L183.3790,175.7987"/>
   <path d="M186.3540,175.7987L180.4040,175.7987"/>
   <path d="M186.7407,175.8056L186.7407,179.4153"/>
   <path d="M183.7657,179.4153L189.7157,179.4153"/>
   <path d="M186.7407,175.8056L186.7407,172.1960"/>
   <path d="M189.7157,172.1960L183.7657,172.1960"/>
   <path d="M190.1025,205.9422L190.1025,209.5519"/>
   <path d="M187.1275,209.5519L193.0775,209.5519"/>
   <path d="M190.1025,205.9422L190.1025,202.3325"/>
   <path d="M193.0775,202.3325L187.1275,202.3325"/>
   <path d="M196.8260,191.0662L196.8260,194.6759"/>
   <path d="M193.8510,194.6759L199.8010,194.6759"/>
   <path d="M196.8260,191.0662L196.8260,187.4565"/>
   <path d="M199.8010,187.4565L193.8510,187.4565"/>
   <path d="M200.1877,167.5381L200.1877,171.1478"/>
   <path d="M197.2127,171.1478L203.1627,171.1478"/>
   <path d="M200.1877,167.5381L200.1877,163.9285"/>
   <path d="M203.1627,163.9285L197.2127,163.9285"/>
   <path d="M203.5495,158.0600L203.5495,161.6696"/>
   <path d="M200.5745,161.6696L206.5245,161.6696"/>
   <path d="M203.5495,158.0600L203.5495,154.4503"/>
   <path d="M206.5245,154.4503L200.5745,154.4503"/>
   <path d="M206.9112,148.5207L206.9112,152.1304"/>
   <path d="M203.9362,152.1304L209.8862,152.1304"/>
   <path d="M206.9112,148.5207L206.9112,144.9111"/>
   <path d="M209.8862,144.9111L203.9362,144.9111"/>
   <path d="M210.2730,189.3697L210.2730,192.9793"/>
   <path d="M207.2980,192.9793L213.2480,192.9793"/>
   <path d="M210.2730,189.3697L210.2730,185.7600"/>
   <path d="M213.2480,185.7600L207.2980,185.7600"/>
   <path d="M216.9965,183.4234L216.9965,187.0331"/>
   <path d="M214.0215,187.0331L219.9715,187.0331"/>
   <path d="M216.9965,183.4234L216.9965,179.8138"/>
   <path d="M219.9715,179.8138L214.0215,179.8138"/>
   <path d="M220.3582,202.7004L220.3582,206.3101"/>
   <path d="M217.3832,206.3101L223.3332,206.3101"/>
   <path d="M220.3582,202.7004L220.3582,199.0908"/>
   <path d="M223.3332,199.0908L217.3832,199.0908"/>
   <path d="M223.7200,158.0836L223.7200,161.6932"/>
   <path d="M220.7450,161.6932L226.6950,161.6932"/>
   <path d="M223.7200,158.0836L223.7200,154.4739"/>
   <path d="M226.6950,154.4739L220.7450,154.4739"/>
   <path d="M223.7200,335.7458L223.7200,339.3555"/>
   <path d="M220.7450,339.3555L226.6950,339.3555"/>
   <path d="M223.7200,335.7458L223.7200,332.1361"/>
   <path d="M226.6950,332.1361L220.7450,332.1361"/>
   <path d="M227.0817,194.3760L227.0817,197.9857"/>
   <path d="M224.1067,197.9857L230.0567,197.9857"/>
   <path d="M227.0817,194.3760L227.0817,190.7663"/>
   <path d="M230.0567,190.7663L224.1067,190.7663"/>
   <path d="M240.5287,179.4986L240.5287,183.1083"/>
   <path d="M237.5537,183.1083L243.5037,183.1083"/>
   <path d="M240.5287,179.4986L240.5287,175.8889"/>
   <path d="M243.5037,175.8889L237.5537,175.8889"/>
   <path d="M243.8905,192.2602L243.8905,195.8698"/>
   <path d="M240.9155,195.8698L246.8655,195.8698"/>
   <path d="M243.8905,192.2602L243.8905,188.6505"/>
   <path d="M246.8655,188.6505L240.9155,188.6505"/>
   <path d="M247.2522,170.9118L247.2522,174.5214"/>
   <path d="M244.2772,174.5214L250.2272,174.5214"/>
   <path d="M247.2522,170.9118L247.2522,167.3021"/>
   <path d="M250.2272,167.3021L244.2772,167.3021"/>
   <path d="M250.6140,184.5049L250.6140,188.1146"/>
   <path d="M247.6390,188.1146L253.5890,188.1146"/>
   <path d="M250.6140,184.5049L250.6140,180.8953"/>
   <path d="M253.5890,180.8953L247.6390,180.8953"/>
   <path d="M253.9758,271.8353L253.9758,275.4449"/>
   <path d="M251.0008,275.4449L256.9508,275.4449"/>
   <path d="M253.9758,271.8353L253.9758,268.2256"/>
   <path d="M256.9508,268.2256L251.0008,268.2256"/>
   <path d="M257.3375,171.8933L257.3375,175.5030"/>
   <path d="M254.3625,175.5030L260.3125,175.5030"/>
   <path d="M257.3375,171.8933L257.3375,168.2837"/>
   <path d="M260.3125,168.2837L254.3625,168.2837"/>
   <path d="M260.6993,279.9293L260.6993,283.5389"/>
   <path d="M257.7242,283.5389L263.6742,283.5389"/>
   <path d="M260.6993,279.9293L260.6993,276.3196"/>
   <path d="M263.6742,276.3196L257.7242,276.3196"/>
   <path d="M264.0610,220.7349L264.0610,224.3446"/>
   <path d="M261.0860,224.3446L267.0360,224.3446"/>
   <path d="M264.0610,220.7349L264.0610,217.1252"/>
   <path d="M267.0360,217.1252L261.0860,217.1252"/>
   <path d="M274.1463,216.3130L274.1463,219.9227"/>
   <path d="M271.1712,219.9227L277.1212,219.9227"/>
   <path d="M274.1463,216.3130L274.1463,212.7034"/>
   <path d="M277.1212,212.7034L271.1712,212.7034"/>
   <path d="M277.5080,221.8344L277.5080,225.4441"/>
   <path d="M274.5330,225.4441L280.4830,225.4441"/>
   <path d="M277.5080,221.8344L277.5080,218.2248"/>
   <path d="M280.4830,218.2248L274.5330,218.2248"/>
   <path d="M280.8697,267.7064L280.8697,271.3160"/>
   <path d="M277.8947,271.3160L283.8447,271.3160"/>
   <path d="M280.8697,267.7064L280.8697,264.0967"/>
   <path d="M283.8447,264.0967L277.8947,264.0967"/>
   <path d="M284.2315,195.0702L284.2315,198.6798"/>
   <path d="M281.2565,198.6798L287.2065,198.6798"/>
   <path d="M284.2315,195.0702L284.2315,191.4605"/>
   <path d="M287.2065,191.4605L281.2565,191.4605"/>
   <path d="M287.5933,222.1815L287.5933,225.7912"/>
   <path d="M284.6182,225.7912L290.5682,225.7912"/>
   <path d="M287.5933,222.1815L287.5933,218.5719"/>
   <path d="M290.5682,218.5719L284.6182,218.5719"/>
   <path d="M290.9550,196.5418L290.9550,200.1515"/>
   <path d="M287.9800,200.1515L293.9300,200.1515"/>
   <path d="M290.9550,196.5418L290.9550,192.9321"/>
   <path d="M293.9300,192.9321L287.9800,192.9321"/>
   <path d="M294.3168,229.7799L294.3168,233.3895"/>
   <path d="M291.3417,233.3895L297.2917,233.3895"/>
   <path d="M294.3168,229.7799L294.3168,226.1702"/>
   <path d="M297.2917,226.1702L291.3417,226.1702"/>
   <path d="M297.6785,208.6619L297.6785,212.2716"/>
   <path d="M294.7035,212.2716L300.6535,212.2716"/>
   <path d="M297.6785,208.6619L297.6785,205.0523"/>
   <path d="M300.6535,205.0523L294.7035,205.0523"/>
   <path d="M301.0403,198.2550L301.0403,201.8647"/>
   <path d="M298.0652,201.8647L304.0153,201.8647"/>
   <path d="M301.0403,198.2550L301.0403,194.6453"/>
   <path d="M304.0153,194.6453L298.0652,194.6453"/>
   <path d="M304.4020,199.3226L304.4020,202.9323"/>
   <path d="M301.4270,202.9323L307.3770,202.9323"/>
   <path d="M304.4020,199.3226L304.4020,195.7130"/>
   <path d="M307.3770,195.7130L301.4270,195.7130"/>
   <path d="M307.7638,166.8203L307.7638,170.4300"/>
   <path d="M304.7887,170.4300L310.7387,170.4300"/>
   <path d="M307.7638,166.8203L307.7638,163.2107"/>
   <path d="M310.7387,163.2107L304.7887,163.2107"/>
   <path d="M311.1255,203.5626L311.1255,207.1723"/>
   <path d="M308.1505,207.1723L314.1005,207.1723"/>
   <path d="M311.1255,203.5626L311.1255,199.9529"/>
   <path d="M314.1005,199.9529L308.1505,199.9529"/>
   <path d="M314.4872,210.7791L314.4872,214.3888"/>
   <path d="M311.5122,214.3888L317.4622,214.3888"/>
   <path d="M314.4872,210.7791L314.4872,207.1695"/>
   <path d="M317.4622,207.1695L311.5122,207.1695"/>
   <path d="M317.8490,150.4977L317.8490,154.1074"/>
   <path d="M314.8740,154.1074L320.8240,154.1074"/>
   <path d="M317.8490,150.4977L317.8490,146.8880"/>
   <path d="M320.8240,146.8880L314.8740,146.8880"/>
   <path d="M321.2107,168.3794L321.2107,171.9891"/>
   <path d="M318.2357,171.9891L324.1857,171.9891"/>
   <path d="M321.2107,168.3794L321.2107,164.7698"/>
   <path d="M324.1857,164.7698L318.2357,164.7698"/>
   <path d="M324.5725,309.5105L324.5725,313.1201"/>
   <path d="M321.5975,313.1201L327.5475,313.1201"/>
   <path d="M324.5725,309.5105L324.5725,305.9008"/>
   <path d="M327.5475,305.9008L321.5975,305.9008"/>
   <path d="M327.9342,228.9677L327.9342,232.5774"/>
   <path d="M324.9592,232.5774L330.9092,232.5774"/>
   <path d="M327.9342,228.9677L327.9342,225.3580"/>
   <path d="M330.9092,225.3580L324.9592,225.3580"/>
   <path d="M331.2960,250.9547L331.2960,254.5644"/>
   <path d="M328.3210,254.5644L334.2710,254.5644"/>
   <path d="M331.2960,250.9547L331.2960,247.3451"/>
   <path d="M334.2710,247.3451L328.3210,247.3451"/>
   <path d="M334.6577,160.9047L334.6577,164.5143"/>
   <path d="M331.6827,164.5143L337.6327,164.5143"/>
   <path d="M334.6577,160.9047L334.6577,157.2950"/>
   <path d="M337.6327,157.2950L331.6827,157.2950"/>
   <path d="M338.0195,237.7420L338.0195,241.3516"/>
   <path d="M335.0445,241.3516L340.9945,241.3516"/>
   <path d="M338.0195,237.7420L338.0195,234.1323"/>
   <path d="M340.9945,234.1323L335.0445,234.1323"/>
   <path d="M341.3812,247.9740L341.3812,251.5837"/>
   <path d="M338.4062,251.5837L344.3562,251.5837"/>
   <path d="M341.3812,247.9740L341.3812,244.3643"/>
   <path d="M344.3562,244.3643L338.4062,244.3643"/>
   <path d="M344.7430,187.6648L344.7430,191.2745"/>
   <path d="M341.7680,191.2745L347.7180,191.2745"/>
   <path d="M344.7430,187.6648L344.7430,184.0551"/>
   <path d="M347.7180,184.0551L341.7680,184.0551"/>
   <path d="M351.4665,254.2978L351.4665,257.9075"/>
   <path d="M348.4915,257.9075L354.4415,257.9075"/>
   <path d="M351.4665,254.2978L351.4665,250.6882"/>
   <path d="M354.4415,250.6882L348.4915,250.6882"/>
   <path d="M354.8282,163.2162L354.8282,166.8259"/>
   <path d="M351.8532,166.8259L357.8032,166.8259"/>
   <path d="M354.8282,163.2162L354.8282,159.6066"/>
   <path d="M357.8032,159.6066L351.8532,159.6066"/>
   <path d="M358.1900,160.4535L358.1900,164.0631"/>
   <path d="M355.2150,164.0631L361.1650,164.0631"/>
   <path d="M358.1900,160.4535L358.1900,156.8438"/>
   <path d="M361.1650,156.8438L355.2150,156.8438"/>
   <path d="M361.5517,181.7394L361.5517,185.3490"/>
   <path d="M358.5767,185.3490L364.5267,185.3490"/>
   <path d="M361.5517,181.7394L361.5517,178.1297"/>
   <path d="M364.5267,178.1297L358.5767,178.1297"/>
   <path d="M368.2753,168.8626L368.2753,172.4723"/>
   <path d="M365.3003,172.4723L371.2502,172.4723"/>
   <path d="M368.2753,168.8626L368.2753,165.2529"/>
   <path d="M371.2502,165.2529L365.3003,165.2529"/>
   <path d="M371.6370,163.6605L371.6370,167.2702"/>
   <path d="M368.6620,167.2702L374.6120,167.2702"/>
   <path d="M371.6370,163.6605L371.6370,160.0508"/>
   <path d="M374.6120,160.0508L368.6620,160.0508"/>
   <path d="M381.7222,138.5469L381.7222,142.1566"/>
   <path d="M378.7472,142.1566L384.6972,142.1566"/>
   <path d="M381.7222,138.5469L381.7222,134.9373"/>
   <path d="M384.6972,134.9373L378.7472,134.9373"/>
   <path d="M385.0840,145.3859L385.0840,148.9955"/>
   <path d="M382.1090,148.9955L388.0590,148.9955"/>
   <path d="M385.0840,145.3859L385.0840,141.7762"/>
   <path d="M388.0590,141.7762L382.1090,141.7762"/>
   <path d="M388.4457,165.0072L388.4457,168.6169"/>
   <path d="M385.4707,168.6169L391.4207,168.6169"/>
   <path d="M388.4457,165.0072L388.4457,161.3975"/>
   <path d="M391.4207,161.3975L385.4707,161.3975"/>
   <path d="M391.8075,167.4243L391.8075,171.0339"/>
   <path d="M388.8325,171.0339L394.7825,171.0339"/>
   <path d="M391.8075,167.4243L391.8075,163.8146"/>
   <path d="M394.7825,163.8146L388.8325,163.8146"/>
   <path d="M395.1693,151.7722L395.1693,155.3819"/>
   <path d="M392.1943,155.3819L398.1442,155.3819"/>
   <path d="M395.1693,151.7722L395.1693,148.1625"/>
   <path d="M398.1442,148.1625L392.1943,148.1625"/>
   <path d="M401.8927,206.9751L401.8927,210.5848"/>
   <path d="M398.9178,210.5848L404.8678,210.5848"/>
   <path d="M401.8927,206.9751L401.8927,203.3654"/>
   <path d="M404.8678,203.3654L398.9178,203.3654"/>
   <path d="M408.6163,104.7618L408.6163,108.3715"/>
   <path d="M405.6413,108.3715L411.5913,108.3715"/>
   <path d="M408.6163,104.7618L408.6163,101.1522"/>
   <path d="M411.5913,101.1522L405.6413,101.1522"/>
   <path d="M415.3398,157.1673L415.3398,160.7769"/>
   <path d="M412.3648,160.7769L418.3148,160.7769"/>
   <path d="M415.3398,157.1673L415.3398,153.5576"/>
   <path d="M418.3148,153.5576L412.3648,153.5576"/>
   <path d="M418.7015,140.2949L418.7015,143.9045"/>
   <path d="M415.7265,143.9045L421.6765,143.9045"/>
   <path d="M418.7015,140.2949L418.7015,136.6852"/>
   <path d="M421.6765,136.6852L415.7265,136.6852"/>
   <path d="M425.4250,101.3229L425.4250,104.9326"/>
   <path d="M422.4500,104.9326L428.4000,104.9326"/>
   <path d="M425.4250,101.3229L425.4250,97.7133"/>
   <path d="M428.4000,97.7133L422.4500,97.7133"/>
   <path d="M432.1485,151.8569L432.1485,155.4666"/>
   <path d="M429.1735,155.4666L435.1235,155.4666"/>
   <path d="M432.1485,151.8569L432.1485,148.2472"/>
   <path d="M435.1235,148.2472L429.1735,148.2472"/>
   <path d="M435.5103,163.4370L435.5103,167.0466"/>
   <path d="M432.5353,167.0466L438.4853,167.0466"/>
   <path d="M435.5103,163.4370L435.5103,159.8273"/>
   <path d="M438.4853,159.8273L432.5353,159.8273"/>
   <path d="M438.8720,162.3430L438.8720,165.9526"/>
   <path d="M435.8970,165.9526L441.8470,165.9526"/>
   <path d="M438.8720,162.3430L438.8720,158.7333"/>
   <path d="M441.8470,158.7333L435.8970,158.7333"/>
   <path d="M442.2338,159.5233L442.2338,163.1329"/>
   <path d="M439.2588,163.1329L445.2088,163.1329"/>
   <path d="M442.2338,159.5233L442.2338,155.9136"/>
   <path d="M445.2088,155.9136L439.2588,155.9136"/>
   <path d="M445.5955,160.5562L445.5955,164.1659"/>
   <path d="M442.6205,164.1659L448.5705,164.1659"/>
   <path d="M445.5955,160.5562L445.5955,156.9465"/>
   <path d="M448.5705,156.9465L442.6205,156.9465"/>
   <path d="M448.9573,150.3547L448.9573,153.9644"/>
   <path d="M445.9823,153.9644L451.9323,153.9644"/>
   <path d="M448.9573,150.3547L448.9573,146.7450"/>
   <path d="M451.9323,146.7450L445.9823,146.7450"/>
   <path d="M452.3190,188.5047L452.3190,192.1144"/>
   <path d="M449.3440,192.1144L455.2940,192.1144"/>
   <path d="M452.3190,188.5047L452.3190,184.8951"/>
   <path d="M455.2940,184.8951L449.3440,184.8951"/>
   <path d="M455.6808,194.0733L455.6808,197.6830"/>
   <path d="M452.7058,197.6830L458.6558,197.6830"/>
   <path d="M455.6808,194.0733L455.6808,190.4637"/>
   <path d="M458.6558,190.4637L452.7058,190.4637"/>
   <path d="M459.0425,187.2858L459.0425,190.8954"/>
   <path d="M456.0675,190.8954L462.0175,190.8954"/>
   <path d="M459.0425,187.2858L459.0425,183.6761"/>
   <path d="M462.0175,183.6761L456.0675,183.6761"/>
   <path d="M462.4042,197.4525L462.4042,201.0622"/>
   <path d="M459.4293,201.0622L465.3793,201.0622"/>
   <path d="M462.4042,197.4525L462.4042,193.8429"/>
   <path d="M465.3793,193.8429L459.4293,193.8429"/>
   <path d="M465.7660,198.6465L465.7660,202.2562"/>
   <path d="M462.7910,202.2562L468.7410,202.2562"/>
   <path d="M465.7660,198.6465L465.7660,195.0368"/>
   <path d="M468.7410,195.0368L462.7910,195.0368"/>
   <path d="M469.1278,184.1467L469.1278,187.7564"/>
   <path d="M466.1528,187.7564L472.1028,187.7564"/>
   <path d="M469.1278,184.1467L469.1278,180.5371"/>
   <path d="M472.1028,180.5371L466.1528,180.5371"/>
   <path d="M472.4895,162.5373L472.4895,165.8693"/>
   <path d="M469.5145,165.8693L475.4645,165.8693"/>
   <path d="M472.4895,162.5373L472.4895,159.2053"/>
   <path d="M475.4645,159.2053L469.5145,159.2053"/>
   <path d="M475.8513,237.9710L475.8513,241.5807"/>
   <path d="M472.8763,241.5807L478.8263,241.5807"/>
   <path d="M475.8513,237.9710L475.8513,234.3614"/>
   <path d="M478.8263,234.3614L472.8763,234.3614"/>
   <path d="M479.2130,242.5664L479.2130,246.1761"/>
   <path d="M476.2380,246.1761L482.1880,246.1761"/>
   <path d="M479.2130,242.5664L479.2130,238.9568"/>
   <path d="M482.1880,238.9568L476.2380,238.9568"/>
   <path d="M482.5748,274.5217L482.5748,278.1314"/>
   <path d="M479.5998,278.1314L485.5498,278.1314"/>
   <path d="M482.5748,274.5217L482.5748,270.9120"/>
   <path d="M485.5498,270.9120L479.5998,270.9120"/>
   <path d="M485.9365,266.2431L485.9365,269.8527"/>
   <path d="M482.9615,269.8527L488.9115,269.8527"/>
   <path d="M485.9365,266.2431L485.9365,262.6334"/>
   <path d="M488.9115,262.6334L482.9615,262.6334"/>
   <path d="M489.2982,239.4482L489.2982,243.0579"/>
   <path d="M486.3233,243.0579L492.2733,243.0579"/>
   <path d="M489.2982,239.4482L489.2982,235.8386"/>
   <path d="M492.2733,235.8386L486.3233,235.8386"/>
   <path d="M492.6600,214.2541L492.6600,217.8638"/>
   <path d="M489.6850,217.8638L495.6350,217.8638"/>
   <path d="M492.6600,214.2541L492.6600,210.6445"/>
   <path d="M495.6350,210.6445L489.6850,210.6445"/>
   <path d="M496.0217,178.4254L496.0217,182.0351"/>
   <path d="M493.0467,182.0351L498.9968,182.0351"/>
   <path d="M496.0217,178.4254L496.0217,174.8158"/>
   <path d="M498.9968,174.8158L493.0467,174.8158"/>
   <path d="M499.3835,235.0417L499.3835,238.6513"/>
   <path d="M496.4085,238.6513L502.3585,238.6513"/>
   <path d="M499.3835,235.0417L499.3835,231.4320"/>
   <path d="M502.3585,231.4320L496.4085,231.4320"/>
   <path d="M502.7453,224.3140L502.7453,227.9237"/>
   <path d="M499.7703,227.9237L505.7203,227.9237"/>
   <path d="M502.7453,224.3140L502.7453,220.7043"/>
   <path d="M505.7203,220.7043L499.7703,220.7043"/>
   <path d="M509.4688,255.7375L509.4688,259.3472"/>
   <path d="M506.4938,259.3472L512.4438,259.3472"/>
   <path d="M509.4688,255.7375L509.4688,252.1279"/>
   <path d="M512.4438,252.1279L506.4938,252.1279"/>
   <path d="M516.1923,258.4837L516.1923,262.0933"/>
   <path d="M513.2173,262.0933L519.1673,262.0933"/>
   <path d="M516.1923,258.4837L516.1923,254.8740"/>
   <path d="M519.1673,254.8740L513.2173,254.8740"/>
   <path d="M519.5540,210.2932L519.5540,213.9029"/>
   <path d="M516.5790,213.9029L522.5290,213.9029"/>
   <path d="M519.5540,210.2932L519.5540,206.6836"/>
   <path d="M522.5290,206.6836L516.5790,206.6836"/>
   <path d="M526.2775,168.7349L526.2775,172.3445"/>
   <path d="M523.3025,172.3445L529.2525,172.3445"/>
   <path d="M526.2775,168.7349L526.2775,165.1252"/>
   <path d="M529.2525,165.1252L523.3025,165.1252"/>
   <path d="M529.6392,189.6154L529.6392,193.2251"/>
   <path d="M526.6643,193.2251L532.6142,193.2251"/>
   <path d="M529.6392,189.6154L529.6392,186.0057"/>
   <path d="M532.6142,186.0057L526.6643,186.0057"/>
   <path d="M533.0010,162.2583L533.0010,165.8680"/>
   <path d="M530.0260,165.8680L535.9760,165.8680"/>
   <path d="M533.0010,162.2583L533.0010,158.6486"/>
   <path d="M535.9760,158.6486L530.0260,158.6486"/>
   <path d="M536.3628,202.9420L536.3628,206.5517"/>
   <path d="M533.3877,206.5517L539.3378,206.5517"/>
   <path d="M536.3628,202.9420L536.3628,199.3323"/>
   <path d="M539.3378,199.3323L533.3877,199.3323"/>
   <path d="M539.7245,252.7443L539.7245,256.3540"/>
   <path d="M536.7495,256.3540L542.6995,256.3540"/>
   <path d="M539.7245,252.7443L539.7245,249.1346"/>
   <path d="M542.6995,249.1346L536.7495,249.1346"/>
   <path d="M543.0862,211.8718L543.0862,215.4814"/>
   <path d="M540.1112,215.4814L546.0612,215.4814"/>
   <path d="M543.0862,211.8718L543.0862,208.2621"/>
   <path d="M546.0612,208.2621L540.1112,208.2621"/>
   <path d="M549.8098,194.5245L549.8098,198.1342"/>
   <path d="M546.8347,198.1342L552.7848,198.1342"/>
   <path d="M549.8098,194.5245L549.8098,190.9149"/>
   <path d="M552.7848,190.9149L546.8347,190.9149"/>
   <path d="M553.1715,214.6040L553.1715,218.2137"/>
   <path d="M550.1965,218.2137L556.1465,218.2137"/>
   <path d="M553.1715,214.6040L553.1715,210.9943"/>
   <path d="M556.1465,210.9943L550.1965,210.9943"/>
   <path d="M559.8950,234.3725L559.8950,237.9822"/>
   <path d="M556.9200,237.9822L562.8700,237.9822"/>
   <path d="M559.8950,234.3725L559.8950,230.7628"/>
   <path d="M562.8700,230.7628L556.9200,230.7628"/>
   <path d="M566.6185,216.1228L566.6185,219.7325"/>
   <path d="M563.6435,219.7325L569.5935,219.7325"/>
   <path d="M566.6185,216.1228L566.6185,212.5132"/>
   <path d="M569.5935,212.5132L563.6435,212.5132"/>
   <path d="M569.9802,192.4212L569.9802,196.0309"/>
   <path d="M567.0052,196.0309L572.9552,196.0309"/>
   <path d="M569.9802,192.4212L569.9802,188.8115"/>
   <path d="M572.9552,188.8115L567.0052,188.8115"/>
   <path d="M573.3420,242.7330L573.3420,246.3427"/>
   <path d="M570.3670,246.3427L576.3170,246.3427"/>
   <path d="M573.3420,242.7330L573.3420,239.1234"/>
   <path d="M576.3170,239.1234L570.3670,239.1234"/>
   <path d="M580.0655,190.3040L580.0655,193.9137"/>
   <path d="M577.0905,193.9137L583.0405,193.9137"/>
   <path d="M580.0655,190.3040L580.0655,186.6943"/>
   <path d="M583.0405,186.6943L577.0905,186.6943"/>
   <path d="M586.7890,183.2499L586.7890,186.8596"/>
   <path d="M583.8140,186.8596L589.7640,186.8596"/>
   <path d="M586.7890,183.2499L586.7890,179.6402"/>
   <path d="M589.7640,179.6402L583.8140,179.6402"/>
   <path d="M590.1508,148.3319L590.1508,151.9416"/>
   <path d="M587.1757,151.9416L593.1258,151.9416"/>
   <path d="M590.1508,148.3319L590.1508,144.7222"/>
   <path d="M593.1258,144.7222L587.1757,144.7222"/>
   <path d="M593.5125,156.0913L593.5125,159.7010"/>
   <path d="M590.5375,159.7010L596.4875,159.7010"/>
   <path d="M593.5125,156.0913L593.5125,152.4816"/>
   <path d="M596.4875,152.4816L590.5375,152.4816"/>
   <path d="M596.8742,176.9677L596.8742,180.5773"/>
   <path d="M593.8992,180.5773L599.8492,180.5773"/>
   <path d="M596.8742,176.9677L596.8742,173.3580"/>
   <path d="M599.8492,173.3580L593.8992,173.3580"/>
   <path d="M603.5978,169.5456L603.5978,173.1553"/>
   <path d="M600.6228,173.1553L606.5727,173.1553"/>
   <path d="M603.5978,169.5456L603.5978,165.9360"/>
   <path d="M606.5727,165.9360L600.6228,165.9360"/>
   <path d="M606.9595,158.6250L606.9595,162.2347"/>
   <path d="M603.9845,162.2347L609.9345,162.2347"/>
   <path d="M606.9595,158.6250L606.9595,155.0154"/>
   <path d="M609.9345,155.0154L603.9845,155.0154"/>
   <path d="M610.3212,208.0400L610.3212,211.6496"/>
   <path d="M607.3463,211.6496L613.2962,211.6496"/>
   <path d="M610.3212,208.0400L610.3212,204.4303"/>
   <path d="M613.2962,204.4303L607.3463,204.4303"/>
   <path d="M613.6830,225.5427L613.6830,229.1524"/>
   <path d="M610.7080,229.1524L616.6580,229.1524"/>
   <path d="M613.6830,225.5427L613.6830,221.9330"/>
   <path d="M616.6580,221.9330L610.7080,221.9330"/>
   <path d="M617.0448,199.5864L617.0448,203.1961"/>
   <path d="M614.0698,203.1961L620.0197,203.1961"/>
   <path d="M617.0448,199.5864L617.0448,195.9767"/>
   <path d="M620.0197,195.9767L614.0698,195.9767"/>
   <path d="M620.4065,186.4958L620.4065,190.1055"/>
   <path d="M617.4315,190.1055L623.3815,190.1055"/>
   <path d="M620.4065,186.4958L620.4065,182.8861"/>
   <path d="M623.3815,182.8861L617.4315,182.8861"/>
   <path d="M623.7683,232.8356L623.7683,236.4453"/>
   <path d="M620.7933,236.4453L626.7432,236.4453"/>
   <path d="M623.7683,232.8356L623.7683,229.2259"/>
   <path d="M626.7432,229.2259L620.7933,229.2259"/>
   <path d="M627.1300,198.7090L627.1300,202.3186"/>
   <path d="M624.1550,202.3186L630.1050,202.3186"/>
   <path d="M627.1300,198.7090L627.1300,195.0993"/>
   <path d="M630.1050,195.0993L624.1550,195.0993"/>
   <path d="M630.4918,216.6837L630.4918,220.2934"/>
   <path d="M627.5168,220.2934L633.4667,220.2934"/>
   <path d="M630.4918,216.6837L630.4918,213.0741"/>
   <path d="M633.4667,213.0741L627.5168,213.0741"/>
   <path d="M633.8535,274.5078L633.8535,278.1175"/>
   <path d="M630.8785,278.1175L636.8285,278.1175"/>
   <path d="M633.8535,274.5078L633.8535,270.8981"/>
   <path d="M636.8285,270.8981L630.8785,270.8981"/>
   <path d="M640.5770,222.4564L640.5770,226.0661"/>
   <path d="M637.6020,226.0661L643.5520,226.0661"/>
   <path d="M640.5770,222.4564L640.5770,218.8468"/>
   <path d="M643.5520,218.8468L637.6020,218.8468"/>
   <path d="M643.9387,232.6093L643.9387,236.2190"/>
   <path d="M640.9638,236.2190L646.9137,236.2190"/>
   <path d="M643.9387,232.6093L643.9387,228.9996"/>
   <path d="M646.9137,228.9996L640.9638,228.9996"/>
   <path d="M100.4211,108.9653L100.4211,113.5171L104.9729,113.5171L104.9729,108.9653z"/>
   <path d="M103.7829,172.0581L103.7829,176.6099L108.3346,176.6099L108.3346,172.0581z"/>
   <path d="M107.1446,159.6325L107.1446,164.1843L111.6964,164.1843L111.6964,159.6325z"/>
   <path d="M110.5064,171.3542L110.5064,175.9060L115.0581,175.9060L115.0581,171.3542z"/>
   <path d="M113.8681,205.6780L113.8681,210.2298L118.4199,210.2298L118.4199,205.6780z"/>
   <path d="M127.3151,173.5187L127.3151,178.0704L131.8669,178.0704L131.8669,173.5187z"/>
   <path d="M130.6769,195.7098L130.6769,200.2615L135.2286,200.2615L135.2286,195.7098z"/>
   <path d="M134.0386,161.7900L134.0386,166.3418L138.5904,166.3418L138.5904,161.7900z"/>
   <path d="M137.4004,152.3480L137.4004,156.8997L141.9521,156.8997L141.9521,152.3480z"/>
   <path d="M140.7621,148.2843L140.7621,152.8361L145.3139,152.8361L145.3139,148.2843z"/>
   <path d="M144.1239,164.1280L144.1239,168.6797L148.6756,168.6797L148.6756,164.1280z"/>
   <path d="M147.4856,213.0764L147.4856,217.6282L152.0374,217.6282L152.0374,213.0764z"/>
   <path d="M154.2091,190.3342L154.2091,194.8859L158.7609,194.8859L158.7609,190.3342z"/>
   <path d="M157.5709,152.9283L157.5709,157.4800L162.1226,157.4800L162.1226,152.9283z"/>
   <path d="M160.9326,200.5717L160.9326,205.1235L165.4844,205.1235L165.4844,200.5717z"/>
   <path d="M167.6561,210.0346L167.6561,214.5864L172.2079,214.5864L172.2079,210.0346z"/>
   <path d="M171.0179,267.0423L171.0179,271.5941L175.5696,271.5941L175.5696,267.0423z"/>
   <path d="M174.3796,205.0005L174.3796,209.5523L178.9314,209.5523L178.9314,205.0005z"/>
   <path d="M177.7414,232.9532L177.7414,237.5050L182.2931,237.5050L182.2931,232.9532z"/>
   <path d="M181.1031,177.1325L181.1031,181.6842L185.6549,181.6842L185.6549,177.1325z"/>
   <path d="M184.4649,173.5298L184.4649,178.0815L189.0166,178.0815L189.0166,173.5298z"/>
   <path d="M187.8266,203.6663L187.8266,208.2181L192.3784,208.2181L192.3784,203.6663z"/>
   <path d="M194.5501,188.7903L194.5501,193.3421L199.1019,193.3421L199.1019,188.7903z"/>
   <path d="M197.9119,165.2622L197.9119,169.8140L202.4636,169.8140L202.4636,165.2622z"/>
   <path d="M201.2736,155.7841L201.2736,160.3358L205.8254,160.3358L205.8254,155.7841z"/>
   <path d="M204.6354,146.2449L204.6354,150.7966L209.1871,150.7966L209.1871,146.2449z"/>
   <path d="M207.9971,187.0938L207.9971,191.6455L212.5489,191.6455L212.5489,187.0938z"/>
   <path d="M214.7206,181.1476L214.7206,185.6993L219.2724,185.6993L219.2724,181.1476z"/>
   <path d="M218.0824,200.4246L218.0824,204.9763L222.6341,204.9763L222.6341,200.4246z"/>
   <path d="M221.4441,155.8077L221.4441,160.3594L225.9959,160.3594L225.9959,155.8077z"/>
   <path d="M221.4441,333.4699L221.4441,338.0217L225.9959,338.0217L225.9959,333.4699z"/>
   <path d="M224.8059,192.1001L224.8059,196.6519L229.3576,196.6519L229.3576,192.1001z"/>
   <path d="M238.2529,177.2227L238.2529,181.7745L242.8046,181.7745L242.8046,177.2227z"/>
   <path d="M241.6146,189.9843L241.6146,194.5360L246.1664,194.5360L246.1664,189.9843z"/>
   <path d="M244.9764,168.6359L244.9764,173.1876L249.5281,173.1876L249.5281,168.6359z"/>
   <path d="M248.3381,182.2291L248.3381,186.7808L252.8899,186.7808L252.8899,182.2291z"/>
   <path d="M251.6999,269.5594L251.6999,274.1111L256.2516,274.1111L256.2516,269.5594z"/>
   <path d="M255.0616,169.6174L255.0616,174.1692L259.6134,174.1692L259.6134,169.6174z"/>
   <path d="M258.4234,277.6534L258.4234,282.2051L262.9751,282.2051L262.9751,277.6534z"/>
   <path d="M261.7851,218.4590L261.7851,223.0108L266.3369,223.0108L266.3369,218.4590z"/>
   <path d="M271.8704,214.0372L271.8704,218.5889L276.4221,218.5889L276.4221,214.0372z"/>
   <path d="M275.2321,219.5586L275.2321,224.1103L279.7839,224.1103L279.7839,219.5586z"/>
   <path d="M278.5939,265.4305L278.5939,269.9822L283.1456,269.9822L283.1456,265.4305z"/>
   <path d="M281.9556,192.7943L281.9556,197.3460L286.5074,197.3460L286.5074,192.7943z"/>
   <path d="M285.3174,219.9057L285.3174,224.4574L289.8691,224.4574L289.8691,219.9057z"/>
   <path d="M288.6791,194.2659L288.6791,198.8177L293.2309,198.8177L293.2309,194.2659z"/>
   <path d="M292.0409,227.5040L292.0409,232.0558L296.5926,232.0558L296.5926,227.5040z"/>
   <path d="M295.4026,206.3861L295.4026,210.9378L299.9544,210.9378L299.9544,206.3861z"/>
   <path d="M298.7644,195.9791L298.7644,200.5309L303.3161,200.5309L303.3161,195.9791z"/>
   <path d="M302.1261,197.0467L302.1261,201.5985L306.6779,201.5985L306.6779,197.0467z"/>
   <path d="M305.4879,164.5445L305.4879,169.0962L310.0396,169.0962L310.0396,164.5445z"/>
   <path d="M308.8496,201.2867L308.8496,205.8385L313.4014,205.8385L313.4014,201.2867z"/>
   <path d="M312.2114,208.5033L312.2114,213.0550L316.7631,213.0550L316.7631,208.5033z"/>
   <path d="M315.5731,148.2218L315.5731,152.7736L320.1249,152.7736L320.1249,148.2218z"/>
   <path d="M318.9349,166.1036L318.9349,170.6553L323.4866,170.6553L323.4866,166.1036z"/>
   <path d="M322.2966,307.2346L322.2966,311.7863L326.8484,311.7863L326.8484,307.2346z"/>
   <path d="M325.6584,226.6918L325.6584,231.2436L330.2101,231.2436L330.2101,226.6918z"/>
   <path d="M329.0201,248.6789L329.0201,253.2306L333.5719,253.2306L333.5719,248.6789z"/>
   <path d="M332.3819,158.6288L332.3819,163.1805L336.9336,163.1805L336.9336,158.6288z"/>
   <path d="M335.7436,235.4661L335.7436,240.0178L340.2954,240.0178L340.2954,235.4661z"/>
   <path d="M339.1054,245.6981L339.1054,250.2499L343.6571,250.2499L343.6571,245.6981z"/>
   <path d="M342.4671,185.3889L342.4671,189.9407L347.0189,189.9407L347.0189,185.3889z"/>
   <path d="M349.1906,252.0220L349.1906,256.5737L353.7424,256.5737L353.7424,252.0220z"/>
   <path d="M352.5524,160.9404L352.5524,165.4921L357.1041,165.4921L357.1041,160.9404z"/>
   <path d="M355.9141,158.1776L355.9141,162.7293L360.4659,162.7293L360.4659,158.1776z"/>
   <path d="M359.2759,179.4635L359.2759,184.0153L363.8276,184.0153L363.8276,179.4635z"/>
   <path d="M365.9994,166.5867L365.9994,171.1385L370.5511,171.1385L370.5511,166.5867z"/>
   <path d="M369.3611,161.3846L369.3611,165.9364L373.9129,165.9364L373.9129,161.3846z"/>
   <path d="M379.4464,136.2711L379.4464,140.8228L383.9981,140.8228L383.9981,136.2711z"/>
   <path d="M382.8081,143.1100L382.8081,147.6617L387.3599,147.6617L387.3599,143.1100z"/>
   <path d="M386.1699,162.7313L386.1699,167.2831L390.7216,167.2831L390.7216,162.7313z"/>
   <path d="M389.5316,165.1484L389.5316,169.7001L394.0834,169.7001L394.0834,165.1484z"/>
   <path d="M392.8934,149.4963L392.8934,154.0481L397.4451,154.0481L397.4451,149.4963z"/>
   <path d="M399.6169,204.6992L399.6169,209.2510L404.1686,209.2510L404.1686,204.6992z"/>
   <path d="M406.3404,102.4860L406.3404,107.0377L410.8921,107.0377L410.8921,102.4860z"/>
   <path d="M413.0639,154.8914L413.0639,159.4431L417.6156,159.4431L417.6156,154.8914z"/>
   <path d="M416.4256,138.0190L416.4256,142.5707L420.9774,142.5707L420.9774,138.0190z"/>
   <path d="M423.1491,99.0471L423.1491,103.5988L427.7009,103.5988L427.7009,99.0471z"/>
   <path d="M429.8726,149.5810L429.8726,154.1328L434.4244,154.1328L434.4244,149.5810z"/>
   <path d="M433.2344,161.1611L433.2344,165.7129L437.7861,165.7129L437.7861,161.1611z"/>
   <path d="M436.5961,160.0671L436.5961,164.6188L441.1479,164.6188L441.1479,160.0671z"/>
   <path d="M439.9579,157.2474L439.9579,161.7991L444.5096,161.7991L444.5096,157.2474z"/>
   <path d="M443.3196,158.2803L443.3196,162.8321L447.8714,162.8321L447.8714,158.2803z"/>
   <path d="M446.6814,148.0788L446.6814,152.6306L451.2331,152.6306L451.2331,148.0788z"/>
   <path d="M450.0431,186.2289L450.0431,190.7806L454.5949,190.7806L454.5949,186.2289z"/>
   <path d="M453.4049,191.7975L453.4049,196.3492L457.9566,196.3492L457.9566,191.7975z"/>
   <path d="M456.7666,185.0099L456.7666,189.5616L461.3184,189.5616L461.3184,185.0099z"/>
   <path d="M460.1284,195.1767L460.1284,199.7284L464.6801,199.7284L464.6801,195.1767z"/>
   <path d="M463.4901,196.3706L463.4901,200.9224L468.0419,200.9224L468.0419,196.3706z"/>
   <path d="M466.8519,181.8709L466.8519,186.4226L471.4036,186.4226L471.4036,181.8709z"/>
   <path d="M470.2136,160.2615L470.2136,164.8132L474.7654,164.8132L474.7654,160.2615z"/>
   <path d="M473.5754,235.6952L473.5754,240.2469L478.1271,240.2469L478.1271,235.6952z"/>
   <path d="M476.9371,240.2906L476.9371,244.8423L481.4889,244.8423L481.4889,240.2906z"/>
   <path d="M480.2989,272.2458L480.2989,276.7976L484.8506,276.7976L484.8506,272.2458z"/>
   <path d="M483.6606,263.9672L483.6606,268.5189L488.2124,268.5189L488.2124,263.9672z"/>
   <path d="M487.0224,237.1724L487.0224,241.7241L491.5741,241.7241L491.5741,237.1724z"/>
   <path d="M490.3841,211.9783L490.3841,216.5300L494.9359,216.5300L494.9359,211.9783z"/>
   <path d="M493.7459,176.1496L493.7459,180.7013L498.2976,180.7013L498.2976,176.1496z"/>
   <path d="M497.1076,232.7658L497.1076,237.3175L501.6594,237.3175L501.6594,232.7658z"/>
   <path d="M500.4694,222.0381L500.4694,226.5899L505.0211,226.5899L505.0211,222.0381z"/>
   <path d="M507.1929,253.4617L507.1929,258.0134L511.7446,258.0134L511.7446,253.4617z"/>
   <path d="M513.9164,256.2078L513.9164,260.7595L518.4681,260.7595L518.4681,256.2078z"/>
   <path d="M517.2781,208.0174L517.2781,212.5691L521.8299,212.5691L521.8299,208.0174z"/>
   <path d="M524.0016,166.4590L524.0016,171.0107L528.5534,171.0107L528.5534,166.4590z"/>
   <path d="M527.3634,187.3395L527.3634,191.8913L531.9151,191.8913L531.9151,187.3395z"/>
   <path d="M530.7251,159.9824L530.7251,164.5342L535.2769,164.5342L535.2769,159.9824z"/>
   <path d="M534.0869,200.6661L534.0869,205.2179L538.6386,205.2179L538.6386,200.6661z"/>
   <path d="M537.4486,250.4684L537.4486,255.0202L542.0004,255.0202L542.0004,250.4684z"/>
   <path d="M540.8104,209.5959L540.8104,214.1476L545.3621,214.1476L545.3621,209.5959z"/>
   <path d="M547.5339,192.2487L547.5339,196.8004L552.0856,196.8004L552.0856,192.2487z"/>
   <path d="M550.8956,212.3281L550.8956,216.8799L555.4474,216.8799L555.4474,212.3281z"/>
   <path d="M557.6191,232.0966L557.6191,236.6484L562.1709,236.6484L562.1709,232.0966z"/>
   <path d="M564.3426,213.8470L564.3426,218.3987L568.8944,218.3987L568.8944,213.8470z"/>
   <path d="M567.7044,190.1453L567.7044,194.6971L572.2561,194.6971L572.2561,190.1453z"/>
   <path d="M571.0661,240.4572L571.0661,245.0089L575.6179,245.0089L575.6179,240.4572z"/>
   <path d="M577.7896,188.0281L577.7896,192.5799L582.3414,192.5799L582.3414,188.0281z"/>
   <path d="M584.5131,180.9740L584.5131,185.5258L589.0649,185.5258L589.0649,180.9740z"/>
   <path d="M587.8749,146.0560L587.8749,150.6078L592.4266,150.6078L592.4266,146.0560z"/>
   <path d="M591.2366,153.8154L591.2366,158.3672L595.7884,158.3672L595.7884,153.8154z"/>
   <path d="M594.5984,174.6918L594.5984,179.2436L599.1501,179.2436L599.1501,174.6918z"/>
   <path d="M601.3219,167.2698L601.3219,171.8215L605.8736,171.8215L605.8736,167.2698z"/>
   <path d="M604.6836,156.3491L604.6836,160.9009L609.2354,160.9009L609.2354,156.3491z"/>
   <path d="M608.0454,205.7641L608.0454,210.3158L612.5971,210.3158L612.5971,205.7641z"/>
   <path d="M611.4071,223.2668L611.4071,227.8186L615.9589,227.8186L615.9589,223.2668z"/>
   <path d="M614.7689,197.3105L614.7689,201.8623L619.3206,201.8623L619.3206,197.3105z"/>
   <path d="M618.1306,184.2199L618.1306,188.7717L622.6824,188.7717L622.6824,184.2199z"/>
   <path d="M621.4924,230.5597L621.4924,235.1115L626.0441,235.1115L626.0441,230.5597z"/>
   <path d="M624.8541,196.4331L624.8541,200.9849L629.4059,200.9849L629.4059,196.4331z"/>
   <path d="M628.2159,214.4079L628.2159,218.9596L632.7676,218.9596L632.7676,214.4079z"/>
   <path d="M631.5776,272.2319L631.5776,276.7837L636.1294,276.7837L636.1294,272.2319z"/>
   <path d="M638.3011,220.1805L638.3011,224.7323L642.8529,224.7323L642.8529,220.1805z"/>
   <path d="M641.6629,230.3334L641.6629,234.8852L646.2146,234.8852L646.2146,230.3334z"/>
  </g>
  <g style="fill:none; stroke:#000000; stroke-width:  0.8925; stroke-linecap:butt; stroke-linejoin:miter; stroke-dasharray:none">
   <path d="M89.2500,89.2500L761.6000,89.2500"/>
   <path d="M89.2500,505.7500L761.6000,505.7500"/>
  </g>
  <g style="fill:none; stroke:#000000; stroke-width:  0.4463; stroke-linecap:butt; stroke-linejoin:miter; stroke-dasharray:none">
   <path d="M173.2937,89.2500L173.2937,92.2250"/>
   <path d="M173.2937,505.7500L173.2937,502.7750"/>
   <path d="M341.3812,89.2500L341.3812,92.2250"/>
   <path d="M341.3812,505.7500L341.3812,502.7750"/>
   <path d="M509.4688,89.2500L509.4688,92.2250"/>
   <path d="M509.4688,505.7500L509.4688,502.7750"/>
   <path d="M677.5562,89.2500L677.5562,92.2250"/>
   <path d="M677.5562,505.7500L677.5562,502.7750"/>
   <path d="M89.2500,89.2500L89.2500,95.2000"/>
   <path d="M89.2500,505.7500L89.2500,499.8000"/>
   <path d="M257.3375,89.2500L257.3375,95.2000"/>
   <path d="M257.3375,505.7500L257.3375,499.8000"/>
   <path d="M425.4250,89.2500L425.4250,95.2000"/>
   <path d="M425.4250,505.7500L425.4250,499.8000"/>
   <path d="M593.5125,89.2500L593.5125,95.2000"/>
   <path d="M593.5125,505.7500L593.5125,499.8000"/>
   <path d="M761.6000,89.2500L761.6000,95.2000"/>
   <path d="M761.6000,505.7500L761.6000,499.8000"/>
  </g>
  <g style="fill:#000000; fill-rule:nonzero">
   <text   style="font-family:'Times','Nimbus Roman No9 L'; font-style:normal; font-weight:normal; font-size:595.0000" transform="matrix(0.0196,0.0000,-0.0000,-0.0196,86.7500,75.3000)">0</text>
   <text   style="font-family:'Times','Nimbus Roman No9 L'; font-style:normal; font-weight:normal; font-size:595.0000" transform="matrix(0.0196,0.0000,-0.0000,-0.0196,251.8375,75.3000)">50</text>
   <text   style="font-family:'Times','Nimbus Roman No9 L'; font-style:normal; font-weight:normal; font-size:595.0000" transform="matrix(0.0196,0.0000,-0.0000,-0.0196,416.9250,75.3000)">100</text>
   <text   style="font-family:'Times','Nimbus Roman No9 L'; font-style:normal; font-weight:normal; font-size:595.0000" transform="matrix(0.0196,0.0000,-0.0000,-0.0196,585.0125,75.3000)">150</text>
   <text   style="font-family:'Times','Nimbus Roman No9 L'; font-style:normal; font-weight:normal; font-size:595.0000" transform="matrix(0.0196,0.0000,-0.0000,-0.0196,753.1000,75.3000)">200</text>
   <text   style="font-family:'Times','Nimbus Roman No9 L'; font-style:normal; font-weight:normal; font-size:595.0000" transform="matrix(0.0280,0.0000,-0.0000,-0.0280,370.9250,58.3500)">Residue number</text>
  </g>
  <g style="fill:none; stroke:#000000; stroke-width:  0.8925; stroke-linecap:butt; stroke-linejoin:miter; stroke-dasharray:none">
   <path d="M89.2500,89.2500L89.2500,505.7500"/>
   <path d="M761.6000,89.2500L761.6000,505.7500"/>
  </g>
  <g style="fill:none; stroke:#000000; stroke-width:  0.4463; stroke-linecap:butt; stroke-linejoin:miter; stroke-dasharray:none">
   <path d="M89.2500,123.9583L92.2250,123.9583"/>
   <path d="M761.6000,123.9583L758.6250,123.9583"/>
   <path d="M89.2500,193.3750L92.2250,193.3750"/>
   <path d="M761.6000,193.3750L758.6250,193.3750"/>
   <path d="M89.2500,262.7917L92.2250,262.7917"/>
   <path d="M761.6000,262.7917L758.6250,262.7917"/>
   <path d="M89.2500,332.2083L92.2250,332.2083"/>
   <path d="M761.6000,332.2083L758.6250,332.2083"/>
   <path d="M89.2500,401.6250L92.2250,401.6250"/>
   <path d="M761.6000,401.6250L758.6250,401.6250"/>
   <path d="M89.2500,471.0417L92.2250,471.0417"/>
   <path d="M761.6000,471.0417L758.6250,471.0417"/>
   <path d="M89.2500,89.2500L95.2000,89.2500"/>
   <path d="M761.6000,89.2500L755.6500,89.2500"/>
   <path d="M89.2500,158.6667L95.2000,158.6667"/>
   <path d="M761.6000,158.6667L755.6500,158.6667"/>
   <path d="M89.2500,228.0833L95.2000,228.0833"/>
   <path d="M761.6000,228.0833L755.6500,228.0833"/>
   <path d="M89.2500,297.5000L95.2000,297.5000"/>
   <path d="M761.6000,297.5000L755.6500,297.5000"/>
   <path d="M89.2500,366.9167L95.2000,366.9167"/>
   <path d="M761.6000,366.9167L755.6500,366.9167"/>
   <path d="M89.2500,436.3333L95.2000,436.3333"/>
   <path d="M761.6000,436.3333L755.6500,436.3333"/>
   <path d="M89.2500,505.7500L95.2000,505.7500"/>
   <path d="M761.6000,505.7500L755.6500,505.7500"/>
  </g>
  <g style="fill:#000000; fill-rule:nonzero">
   <text   style="font-family:'Times','Nimbus Roman No9 L'; font-style:normal; font-weight:normal; font-size:595.0000" transform="matrix(0.0196,0.0000,-0.0000,-0.0196,78.3000,85.2500)">0</text>
   <text   style="font-family:'Times','Nimbus Roman No9 L'; font-style:normal; font-weight:normal; font-size:595.0000" transform="matrix(0.0196,0.0000,-0.0000,-0.0196,55.3000,154.6667)">50000</text>
   <text   style="font-family:'Times','Nimbus Roman No9 L'; font-style:normal; font-weight:normal; font-size:595.0000" transform="matrix(0.0196,0.0000,-0.0000,-0.0196,55.3000,224.0833)">1e+05</text>
   <text   style="font-family:'Times','Nimbus Roman No9 L'; font-style:normal; font-weight:normal; font-size:595.0000" transform="matrix(0.0196,0.0000,-0.0000,-0.0196,46.3000,293.5000)">1.5e+05</text>
   <text   style="font-family:'Times','Nimbus Roman No9 L'; font-style:normal; font-weight:normal; font-size:595.0000" transform="matrix(0.0196,0.0000,-0.0000,-0.0196,55.3000,362.9167)">2e+05</text>
   <text   style="font-family:'Times','Nimbus Roman No9 L'; font-style:normal; font-weight:normal; font-size:595.0000" transform="matrix(0.0196,0.0000,-0.0000,-0.0196,46.3000,432.3333)">2.5e+05</text>
   <text   style="font-family:'Times','Nimbus Roman No9 L'; font-style:normal; font-weight:normal; font-size:595.0000" transform="matrix(0.0196,0.0000,-0.0000,-0.0196,55.3000,501.7500)">3e+05</text>
   <text   style="font-family:'Times','Nimbus Roman No9 L'; font-style:normal; font-weight:normal; font-size:595.0000" transform="matrix(0.0000,0.0280,0.0280,-0.0070,39.3500,245.0000)">Peak intensities</text>
  </g>
  <g style="fill:none; stroke:#000000; stroke-width:  0.4463; stroke-linecap:butt; stroke-linejoin:miter; stroke-dasharray:none">
   <path d="M89.2500,89.2500L89.2500,505.7500L761.6000,505.7500L761.6000,89.2500z"/>
  </g>
  <g style="fill:#FFFFFF; fill-rule:nonzero">
   <path  d="M505.7500,476.0000L505.7500,433.1500L602.9781,433.1500L602.9781,476.0000z"/>
  </g>
  <g style="fill:none; stroke:#000000; stroke-width:  0.8925; stroke-linecap:butt; stroke-linejoin:miter; stroke-dasharray:none">
   <path d="M505.7500,476.0000L505.7500,433.1500L602.9781,433.1500L602.9781,476.0000z"/>
  </g>
  <g style="fill:#000000; fill-rule:nonzero">
   <text   style="font-family:'Times','Nimbus Roman No9 L'; font-style:normal; font-weight:normal; font-size:595.0000" transform="matrix(0.0280,0.0000,-0.0000,-0.0280,547.0281,459.0500)">ref_ave</text>
  </g>
  <g style="fill:none; stroke:#000000; stroke-width:  0.8925; stroke-linecap:butt; stroke-linejoin:miter; stroke-dasharray:none">
   <path d="M514.6006,463.5500L538.4006,463.5500"/>
  </g>
  <g style="fill:none; stroke:#000000; stroke-width:  0.4463; stroke-linecap:butt; stroke-linejoin:miter; stroke-dasharray:none">
   <ellipse  rx="2.6775" ry="2.6775" cx="514.6006" cy="463.5500"/>
   <ellipse  rx="2.6775" ry="2.6775" cx="538.4006" cy="463.5500"/>
  </g>
  <g style="fill:#000000; fill-rule:nonzero">
   <text   style="font-family:'Times','Nimbus Roman No9 L'; font-style:normal; font-weight:normal; font-size:595.0000" transform="matrix(0.0280,0.0000,-0.0000,-0.0280,547.0281,441.1000)">sat_ave</text>
  </g>
  <g style="fill:none; stroke:#FF0000; stroke-width:  0.8925; stroke-linecap:butt; stroke-linejoin:miter; stroke-dasharray:none">
   <path d="M514.6006,445.1000L538.4006,445.1000"/>
  </g>
  <g style="fill:none; stroke:#FF0000; stroke-width:  0.4463; stroke-linecap:butt; stroke-linejoin:miter; stroke-dasharray:none">
   <path d="M512.3247,442.8241L512.3247,447.3759L516.8765,447.3759L516.8765,442.8241z"/>
   <path d="M536.1248,442.8241L536.1248,447.3759L540.6765,447.3759L540.6765,442.8241z"/>
  </g>
 </g>
</svg>
