<?xml version="1.0" encoding="ISO-8859-1"?>
<!DOCTYPE svg PUBLIC "-//W3C//DTD SVG 1.0//EN" "http://www.w3.org/TR/2001/REC-SVG-20010904/DTD/svg10.dtd">
<!-- generated by Grace-5.1.22 -->
<svg xml:space="preserve" width="11.6944in" height="8.2639in" viewBox="0.0000 0.0000 842.0000 595.0000">
 <g transform="translate(0,595.0000) scale(1,-1)">
  <g style="fill:#FFFFFF; fill-rule:nonzero">
   <path  d="M0.0000,0.0000L0.0000,595.0000L842.0000,595.0000L842.0000,0.0000z"/>
  </g>
  <g style="fill:none; stroke:#000000; stroke-width:  0.8925; stroke-linecap:butt; stroke-linejoin:miter; stroke-dasharray:none">
   <path d="M102.6970,114.9107L106.0587,176.7016L109.4205,182.5821L112.7822,215.4592L116.1440,222.3778L129.5910,283.9012L132.9527,273.8961L136.3145,266.7548L139.6762,240.6625L143.0380,312.4884
            L146.3997,254.5537L149.7615,281.3347L156.4850,266.6251L159.8467,263.9353L163.2085,283.7553L169.9320,275.0372L173.2937,268.5294L176.6555,244.8017L180.0172,263.2985L183.3790,288.0995
            L186.7407,265.9783L190.1025,274.4306L196.8260,277.0404L200.1877,262.0638L203.5495,246.5203L206.9112,246.7648L210.2730,247.9417L216.9965,240.3352L220.3582,240.3708L223.7200,245.4533
            L227.0817,281.0018L240.5287,288.8444L243.8905,254.5494L247.2522,245.4767L250.6140,265.7374L253.9758,256.9194L257.3375,249.7516L260.6993,265.4058L264.0610,253.2153L274.1463,258.7744
            L277.5080,276.9102L280.8697,271.1565L284.2315,270.2361L287.5933,282.4813L290.9550,278.2705L294.3168,277.9398L297.6785,260.1168L301.0403,277.1335L304.4020,279.0566L307.7638,278.3568
            L311.1255,267.2035L314.4872,286.5782L317.8490,276.6283L321.2107,283.9423L324.5725,269.2622L327.9342,279.2990L331.2960,250.1833L334.6577,262.9751L338.0195,261.2073L341.3812,272.3959
            L344.7430,267.8893L351.4665,257.2946L354.8282,250.9390L358.1900,263.9853L361.5517,263.5850L368.2753,267.0122L371.6370,272.8285L381.7222,288.5906L385.0840,232.1330L388.4457,240.9343
            L391.8075,235.4594L395.1693,205.5098L401.8927,239.8283L408.6163,192.3462L415.3398,248.0193L418.7015,234.2583L425.4250,161.8882L432.1485,274.4811L435.5103,273.8253L438.8720,271.8881
            L442.2338,261.3900L445.5955,279.8267L448.9573,272.7403L452.3190,292.0673L455.6808,272.2176L459.0425,290.8093L462.4042,263.5678L465.7660,270.2142L469.1278,261.9026L472.4895,238.3939
            L475.8513,267.1091L479.2130,269.7653L482.5748,248.0071L485.9365,275.6514L489.2982,267.7415L492.6600,269.7805L496.0217,246.9226L499.3835,266.8916L502.7453,209.6472L509.4688,227.8349
            L516.1923,217.5325L519.5540,207.2673L526.2775,228.0769L529.6392,253.8608L533.0010,276.3548L536.3628,229.2188L539.7245,273.5298L543.0862,282.6780L549.8098,287.3554L553.1715,272.3234
            L559.8950,260.1499L566.6185,274.4875L569.9802,274.3260L573.3420,278.9288L580.0655,248.3467L586.7890,263.2358L590.1508,254.9777L593.5125,285.6765L596.8742,264.4798L603.5978,247.8284
            L606.9595,252.6263L610.3212,280.5546L613.6830,268.3343L617.0448,283.7279L620.4065,301.8618L623.7683,291.1950L627.1300,260.3438L630.4918,285.7735L633.8535,278.9972L640.5770,262.7109
            L643.9387,252.8860"/>
  </g>
  <g style="fill:none; stroke:#000000; stroke-width:  0.4463; stroke-linecap:butt; stroke-linejoin:miter; stroke-dasharray:none">
   <path d="M102.6970,114.9107L102.6970,119.1708"/>
   <path d="M99.7220,119.1708L105.6720,119.1708"/>
   <path d="M102.6970,114.9107L102.6970,110.6505"/>
   <path d="M105.6720,110.6505L99.7220,110.6505"/>
   <path d="M106.0587,176.7016L106.0587,180.8780"/>
   <path d="M103.0837,180.8780L109.0337,180.8780"/>
   <path d="M106.0587,176.7016L106.0587,172.5253"/>
   <path d="M109.0337,172.5253L103.0837,172.5253"/>
   <path d="M109.4205,182.5821L109.4205,187.8775"/>
   <path d="M106.4455,187.8775L112.3955,187.8775"/>
   <path d="M109.4205,182.5821L109.4205,177.2868"/>
   <path d="M112.3955,177.2868L106.4455,177.2868"/>
   <path d="M112.7822,215.4592L112.7822,222.1948"/>
   <path d="M109.8072,222.1948L115.7572,222.1948"/>
   <path d="M112.7822,215.4592L112.7822,208.7236"/>
   <path d="M115.7572,208.7236L109.8072,208.7236"/>
   <path d="M116.1440,222.3778L116.1440,227.5290"/>
   <path d="M113.1690,227.5290L119.1190,227.5290"/>
   <path d="M116.1440,222.3778L116.1440,217.2267"/>
   <path d="M119.1190,217.2267L113.1690,217.2267"/>
   <path d="M129.5910,283.9012L129.5910,296.2763"/>
   <path d="M126.6160,296.2763L132.5660,296.2763"/>
   <path d="M129.5910,283.9012L129.5910,271.5261"/>
   <path d="M132.5660,271.5261L126.6160,271.5261"/>
   <path d="M132.9527,273.8961L132.9527,282.9690"/>
   <path d="M129.9777,282.9690L135.9277,282.9690"/>
   <path d="M132.9527,273.8961L132.9527,264.8233"/>
   <path d="M135.9277,264.8233L129.9777,264.8233"/>
   <path d="M136.3145,266.7548L136.3145,279.1670"/>
   <path d="M133.3395,279.1670L139.2895,279.1670"/>
   <path d="M136.3145,266.7548L136.3145,254.3426"/>
   <path d="M139.2895,254.3426L133.3395,254.3426"/>
   <path d="M139.6762,240.6625L139.6762,251.8814"/>
   <path d="M136.7012,251.8814L142.6512,251.8814"/>
   <path d="M139.6762,240.6625L139.6762,229.4435"/>
   <path d="M142.6512,229.4435L136.7012,229.4435"/>
   <path d="M143.0380,312.4884L143.0380,334.2471"/>
   <path d="M140.0630,334.2471L146.0130,334.2471"/>
   <path d="M143.0380,312.4884L143.0380,290.7297"/>
   <path d="M146.0130,290.7297L140.0630,290.7297"/>
   <path d="M146.3997,254.5537L146.3997,265.3656"/>
   <path d="M143.4247,265.3656L149.3747,265.3656"/>
   <path d="M146.3997,254.5537L146.3997,243.7418"/>
   <path d="M149.3747,243.7418L143.4247,243.7418"/>
   <path d="M149.7615,281.3347L149.7615,289.6530"/>
   <path d="M146.7865,289.6530L152.7365,289.6530"/>
   <path d="M149.7615,281.3347L149.7615,273.0164"/>
   <path d="M152.7365,273.0164L146.7865,273.0164"/>
   <path d="M156.4850,266.6251L156.4850,275.5995"/>
   <path d="M153.5100,275.5995L159.4600,275.5995"/>
   <path d="M156.4850,266.6251L156.4850,257.6507"/>
   <path d="M159.4600,257.6507L153.5100,257.6507"/>
   <path d="M159.8467,263.9353L159.8467,277.6766"/>
   <path d="M156.8717,277.6766L162.8217,277.6766"/>
   <path d="M159.8467,263.9353L159.8467,250.1939"/>
   <path d="M162.8217,250.1939L156.8717,250.1939"/>
   <path d="M163.2085,283.7553L163.2085,293.1722"/>
   <path d="M160.2335,293.1722L166.1835,293.1722"/>
   <path d="M163.2085,283.7553L163.2085,274.3384"/>
   <path d="M166.1835,274.3384L160.2335,274.3384"/>
   <path d="M169.9320,275.0372L169.9320,283.1306"/>
   <path d="M166.9570,283.1306L172.9070,283.1306"/>
   <path d="M169.9320,275.0372L169.9320,266.9438"/>
   <path d="M172.9070,266.9438L166.9570,266.9438"/>
   <path d="M173.2937,268.5294L173.2937,273.7654"/>
   <path d="M170.3187,273.7654L176.2687,273.7654"/>
   <path d="M173.2937,268.5294L173.2937,263.2934"/>
   <path d="M176.2687,263.2934L170.3187,263.2934"/>
   <path d="M176.6555,244.8017L176.6555,251.2638"/>
   <path d="M173.6805,251.2638L179.6305,251.2638"/>
   <path d="M176.6555,244.8017L176.6555,238.3395"/>
   <path d="M179.6305,238.3395L173.6805,238.3395"/>
   <path d="M180.0172,263.2985L180.0172,269.4726"/>
   <path d="M177.0422,269.4726L182.9922,269.4726"/>
   <path d="M180.0172,263.2985L180.0172,257.1243"/>
   <path d="M182.9922,257.1243L177.0422,257.1243"/>
   <path d="M183.3790,288.0995L183.3790,300.3845"/>
   <path d="M180.4040,300.3845L186.3540,300.3845"/>
   <path d="M183.3790,288.0995L183.3790,275.8145"/>
   <path d="M186.3540,275.8145L180.4040,275.8145"/>
   <path d="M186.7407,265.9783L186.7407,276.6356"/>
   <path d="M183.7657,276.6356L189.7157,276.6356"/>
   <path d="M186.7407,265.9783L186.7407,255.3210"/>
   <path d="M189.7157,255.3210L183.7657,255.3210"/>
   <path d="M190.1025,274.4306L190.1025,282.9227"/>
   <path d="M187.1275,282.9227L193.0775,282.9227"/>
   <path d="M190.1025,274.4306L190.1025,265.9386"/>
   <path d="M193.0775,265.9386L187.1275,265.9386"/>
   <path d="M196.8260,277.0404L196.8260,286.9864"/>
   <path d="M193.8510,286.9864L199.8010,286.9864"/>
   <path d="M196.8260,277.0404L196.8260,267.0944"/>
   <path d="M199.8010,267.0944L193.8510,267.0944"/>
   <path d="M200.1877,262.0638L200.1877,273.4531"/>
   <path d="M197.2127,273.4531L203.1627,273.4531"/>
   <path d="M200.1877,262.0638L200.1877,250.6745"/>
   <path d="M203.1627,250.6745L197.2127,250.6745"/>
   <path d="M203.5495,246.5203L203.5495,257.7839"/>
   <path d="M200.5745,257.7839L206.5245,257.7839"/>
   <path d="M203.5495,246.5203L203.5495,235.2567"/>
   <path d="M206.5245,235.2567L200.5745,235.2567"/>
   <path d="M206.9112,246.7648L206.9112,259.8710"/>
   <path d="M203.9362,259.8710L209.8862,259.8710"/>
   <path d="M206.9112,246.7648L206.9112,233.6587"/>
   <path d="M209.8862,233.6587L203.9362,233.6587"/>
   <path d="M210.2730,247.9417L210.2730,255.7857"/>
   <path d="M207.2980,255.7857L213.2480,255.7857"/>
   <path d="M210.2730,247.9417L210.2730,240.0977"/>
   <path d="M213.2480,240.0977L207.2980,240.0977"/>
   <path d="M216.9965,240.3352L216.9965,248.0990"/>
   <path d="M214.0215,248.0990L219.9715,248.0990"/>
   <path d="M216.9965,240.3352L216.9965,232.5715"/>
   <path d="M219.9715,232.5715L214.0215,232.5715"/>
   <path d="M220.3582,240.3708L220.3582,246.8176"/>
   <path d="M217.3832,246.8176L223.3332,246.8176"/>
   <path d="M220.3582,240.3708L220.3582,233.9241"/>
   <path d="M223.3332,233.9241L217.3832,233.9241"/>
   <path d="M223.7200,245.4533L223.7200,256.6015"/>
   <path d="M220.7450,256.6015L226.6950,256.6015"/>
   <path d="M223.7200,245.4533L223.7200,234.3050"/>
   <path d="M226.6950,234.3050L220.7450,234.3050"/>
   <path d="M227.0817,281.0018L227.0817,290.9529"/>
   <path d="M224.1067,290.9529L230.0567,290.9529"/>
   <path d="M227.0817,281.0018L227.0817,271.0507"/>
   <path d="M230.0567,271.0507L224.1067,271.0507"/>
   <path d="M240.5287,288.8444L240.5287,301.1899"/>
   <path d="M237.5537,301.1899L243.5037,301.1899"/>
   <path d="M240.5287,288.8444L240.5287,276.4989"/>
   <path d="M243.5037,276.4989L237.5537,276.4989"/>
   <path d="M243.8905,254.5494L243.8905,262.6471"/>
   <path d="M240.9155,262.6471L246.8655,262.6471"/>
   <path d="M243.8905,254.5494L243.8905,246.4516"/>
   <path d="M246.8655,246.4516L240.9155,246.4516"/>
   <path d="M247.2522,245.4767L247.2522,254.8757"/>
   <path d="M244.2772,254.8757L250.2272,254.8757"/>
   <path d="M247.2522,245.4767L247.2522,236.0777"/>
   <path d="M250.2272,236.0777L244.2772,236.0777"/>
   <path d="M250.6140,265.7374L250.6140,275.4013"/>
   <path d="M247.6390,275.4013L253.5890,275.4013"/>
   <path d="M250.6140,265.7374L250.6140,256.0734"/>
   <path d="M253.5890,256.0734L247.6390,256.0734"/>
   <path d="M253.9758,256.9194L253.9758,261.5860"/>
   <path d="M251.0008,261.5860L256.9508,261.5860"/>
   <path d="M253.9758,256.9194L253.9758,252.2528"/>
   <path d="M256.9508,252.2528L251.0008,252.2528"/>
   <path d="M257.3375,249.7516L257.3375,259.4141"/>
   <path d="M254.3625,259.4141L260.3125,259.4141"/>
   <path d="M257.3375,249.7516L257.3375,240.0890"/>
   <path d="M260.3125,240.0890L254.3625,240.0890"/>
   <path d="M260.6993,265.4058L260.6993,270.2197"/>
   <path d="M257.7242,270.2197L263.6742,270.2197"/>
   <path d="M260.6993,265.4058L260.6993,260.5919"/>
   <path d="M263.6742,260.5919L257.7242,260.5919"/>
   <path d="M264.0610,253.2153L264.0610,259.4834"/>
   <path d="M261.0860,259.4834L267.0360,259.4834"/>
   <path d="M264.0610,253.2153L264.0610,246.9472"/>
   <path d="M267.0360,246.9472L261.0860,246.9472"/>
   <path d="M274.1463,258.7744L274.1463,265.5916"/>
   <path d="M271.1712,265.5916L277.1212,265.5916"/>
   <path d="M274.1463,258.7744L274.1463,251.9572"/>
   <path d="M277.1212,251.9572L271.1712,251.9572"/>
   <path d="M277.5080,276.9102L277.5080,284.5399"/>
   <path d="M274.5330,284.5399L280.4830,284.5399"/>
   <path d="M277.5080,276.9102L277.5080,269.2806"/>
   <path d="M280.4830,269.2806L274.5330,269.2806"/>
   <path d="M280.8697,271.1565L280.8697,276.5589"/>
   <path d="M277.8947,276.5589L283.8447,276.5589"/>
   <path d="M280.8697,271.1565L280.8697,265.7541"/>
   <path d="M283.8447,265.7541L277.8947,265.7541"/>
   <path d="M284.2315,270.2361L284.2315,279.2761"/>
   <path d="M281.2565,279.2761L287.2065,279.2761"/>
   <path d="M284.2315,270.2361L284.2315,261.1961"/>
   <path d="M287.2065,261.1961L281.2565,261.1961"/>
   <path d="M287.5933,282.4813L287.5933,290.4461"/>
   <path d="M284.6182,290.4461L290.5682,290.4461"/>
   <path d="M287.5933,282.4813L287.5933,274.5165"/>
   <path d="M290.5682,274.5165L284.6182,274.5165"/>
   <path d="M290.9550,278.2705L290.9550,287.8051"/>
   <path d="M287.9800,287.8051L293.9300,287.8051"/>
   <path d="M290.9550,278.2705L290.9550,268.7358"/>
   <path d="M293.9300,268.7358L287.9800,268.7358"/>
   <path d="M294.3168,277.9398L294.3168,285.1995"/>
   <path d="M291.3417,285.1995L297.2917,285.1995"/>
   <path d="M294.3168,277.9398L294.3168,270.6801"/>
   <path d="M297.2917,270.6801L291.3417,270.6801"/>
   <path d="M297.6785,260.1168L297.6785,267.4573"/>
   <path d="M294.7035,267.4573L300.6535,267.4573"/>
   <path d="M297.6785,260.1168L297.6785,252.7762"/>
   <path d="M300.6535,252.7762L294.7035,252.7762"/>
   <path d="M301.0403,277.1335L301.0403,286.4307"/>
   <path d="M298.0652,286.4307L304.0153,286.4307"/>
   <path d="M301.0403,277.1335L301.0403,267.8363"/>
   <path d="M304.0153,267.8363L298.0652,267.8363"/>
   <path d="M304.4020,279.0566L304.4020,288.4105"/>
   <path d="M301.4270,288.4105L307.3770,288.4105"/>
   <path d="M304.4020,279.0566L304.4020,269.7026"/>
   <path d="M307.3770,269.7026L301.4270,269.7026"/>
   <path d="M307.7638,278.3568L307.7638,291.5540"/>
   <path d="M304.7887,291.5540L310.7387,291.5540"/>
   <path d="M307.7638,278.3568L307.7638,265.1596"/>
   <path d="M310.7387,265.1596L304.7887,265.1596"/>
   <path d="M311.1255,267.2035L311.1255,275.3584"/>
   <path d="M308.1505,275.3584L314.1005,275.3584"/>
   <path d="M311.1255,267.2035L311.1255,259.0486"/>
   <path d="M314.1005,259.0486L308.1505,259.0486"/>
   <path d="M314.4872,286.5782L314.4872,295.5822"/>
   <path d="M311.5122,295.5822L317.4622,295.5822"/>
   <path d="M314.4872,286.5782L314.4872,277.5741"/>
   <path d="M317.4622,277.5741L311.5122,277.5741"/>
   <path d="M317.8490,276.6283L317.8490,293.1059"/>
   <path d="M314.8740,293.1059L320.8240,293.1059"/>
   <path d="M317.8490,276.6283L317.8490,260.1506"/>
   <path d="M320.8240,260.1506L314.8740,260.1506"/>
   <path d="M321.2107,283.9423L321.2107,297.4815"/>
   <path d="M318.2357,297.4815L324.1857,297.4815"/>
   <path d="M321.2107,283.9423L321.2107,270.4031"/>
   <path d="M324.1857,270.4031L318.2357,270.4031"/>
   <path d="M324.5725,269.2622L324.5725,273.5695"/>
   <path d="M321.5975,273.5695L327.5475,273.5695"/>
   <path d="M324.5725,269.2622L324.5725,264.9548"/>
   <path d="M327.5475,264.9548L321.5975,264.9548"/>
   <path d="M327.9342,279.2990L327.9342,286.6829"/>
   <path d="M324.9592,286.6829L330.9092,286.6829"/>
   <path d="M327.9342,279.2990L327.9342,271.9151"/>
   <path d="M330.9092,271.9151L324.9592,271.9151"/>
   <path d="M331.2960,250.1833L331.2960,255.1412"/>
   <path d="M328.3210,255.1412L334.2710,255.1412"/>
   <path d="M331.2960,250.1833L331.2960,245.2254"/>
   <path d="M334.2710,245.2254L328.3210,245.2254"/>
   <path d="M334.6577,262.9751L334.6577,275.5182"/>
   <path d="M331.6827,275.5182L337.6327,275.5182"/>
   <path d="M334.6577,262.9751L334.6577,250.4321"/>
   <path d="M337.6327,250.4321L331.6827,250.4321"/>
   <path d="M338.0195,261.2073L338.0195,267.1671"/>
   <path d="M335.0445,267.1671L340.9945,267.1671"/>
   <path d="M338.0195,261.2073L338.0195,255.2474"/>
   <path d="M340.9945,255.2474L335.0445,255.2474"/>
   <path d="M341.3812,272.3959L341.3812,278.5337"/>
   <path d="M338.4062,278.5337L344.3562,278.5337"/>
   <path d="M341.3812,272.3959L341.3812,266.2581"/>
   <path d="M344.3562,266.2581L338.4062,266.2581"/>
   <path d="M344.7430,267.8893L344.7430,277.4173"/>
   <path d="M341.7680,277.4173L347.7180,277.4173"/>
   <path d="M344.7430,267.8893L344.7430,258.3613"/>
   <path d="M347.7180,258.3613L341.7680,258.3613"/>
   <path d="M351.4665,257.2946L351.4665,262.4744"/>
   <path d="M348.4915,262.4744L354.4415,262.4744"/>
   <path d="M351.4665,257.2946L351.4665,252.1149"/>
   <path d="M354.4415,252.1149L348.4915,252.1149"/>
   <path d="M354.8282,250.9390L354.8282,261.8531"/>
   <path d="M351.8532,261.8531L357.8032,261.8531"/>
   <path d="M354.8282,250.9390L354.8282,240.0248"/>
   <path d="M357.8032,240.0248L351.8532,240.0248"/>
   <path d="M358.1900,263.9853L358.1900,276.7191"/>
   <path d="M355.2150,276.7191L361.1650,276.7191"/>
   <path d="M358.1900,263.9853L358.1900,251.2514"/>
   <path d="M361.1650,251.2514L355.2150,251.2514"/>
   <path d="M361.5517,263.5850L361.5517,273.3542"/>
   <path d="M358.5767,273.3542L364.5267,273.3542"/>
   <path d="M361.5517,263.5850L361.5517,253.8158"/>
   <path d="M364.5267,253.8158L358.5767,253.8158"/>
   <path d="M368.2753,267.0122L368.2753,278.7024"/>
   <path d="M365.3003,278.7024L371.2502,278.7024"/>
   <path d="M368.2753,267.0122L368.2753,255.3221"/>
   <path d="M371.2502,255.3221L365.3003,255.3221"/>
   <path d="M371.6370,272.8285L371.6370,285.9686"/>
   <path d="M368.6620,285.9686L374.6120,285.9686"/>
   <path d="M371.6370,272.8285L371.6370,259.6885"/>
   <path d="M374.6120,259.6885L368.6620,259.6885"/>
   <path d="M381.7222,288.5906L381.7222,311.1463"/>
   <path d="M378.7472,311.1463L384.6972,311.1463"/>
   <path d="M381.7222,288.5906L381.7222,266.0350"/>
   <path d="M384.6972,266.0350L378.7472,266.0350"/>
   <path d="M385.0840,232.1330L385.0840,244.1583"/>
   <path d="M382.1090,244.1583L388.0590,244.1583"/>
   <path d="M385.0840,232.1330L385.0840,220.1077"/>
   <path d="M388.0590,220.1077L382.1090,220.1077"/>
   <path d="M388.4457,240.9343L388.4457,250.6407"/>
   <path d="M385.4707,250.6407L391.4207,250.6407"/>
   <path d="M388.4457,240.9343L388.4457,231.2278"/>
   <path d="M391.4207,231.2278L385.4707,231.2278"/>
   <path d="M391.8075,235.4594L391.8075,244.3819"/>
   <path d="M388.8325,244.3819L394.7825,244.3819"/>
   <path d="M391.8075,235.4594L391.8075,226.5369"/>
   <path d="M394.7825,226.5369L388.8325,226.5369"/>
   <path d="M395.1693,205.5098L395.1693,213.6537"/>
   <path d="M392.1943,213.6537L398.1442,213.6537"/>
   <path d="M395.1693,205.5098L395.1693,197.3659"/>
   <path d="M398.1442,197.3659L392.1943,197.3659"/>
   <path d="M401.8927,239.8283L401.8927,246.0088"/>
   <path d="M398.9178,246.0088L404.8678,246.0088"/>
   <path d="M401.8927,239.8283L401.8927,233.6478"/>
   <path d="M404.8678,233.6478L398.9178,233.6478"/>
   <path d="M408.6163,192.3462L408.6163,220.4396"/>
   <path d="M405.6413,220.4396L411.5913,220.4396"/>
   <path d="M408.6163,192.3462L408.6163,164.2527"/>
   <path d="M411.5913,164.2527L405.6413,164.2527"/>
   <path d="M415.3398,248.0193L415.3398,259.5907"/>
   <path d="M412.3648,259.5907L418.3148,259.5907"/>
   <path d="M415.3398,248.0193L415.3398,236.4479"/>
   <path d="M418.3148,236.4479L412.3648,236.4479"/>
   <path d="M418.7015,234.2583L418.7015,247.7632"/>
   <path d="M415.7265,247.7632L421.6765,247.7632"/>
   <path d="M418.7015,234.2583L418.7015,220.7534"/>
   <path d="M421.6765,220.7534L415.7265,220.7534"/>
   <path d="M425.4250,161.8882L425.4250,185.5228"/>
   <path d="M422.4500,185.5228L428.4000,185.5228"/>
   <path d="M425.4250,161.8882L425.4250,138.2535"/>
   <path d="M428.4000,138.2535L422.4500,138.2535"/>
   <path d="M432.1485,274.4811L432.1485,290.3160"/>
   <path d="M429.1735,290.3160L435.1235,290.3160"/>
   <path d="M432.1485,274.4811L432.1485,258.6463"/>
   <path d="M435.1235,258.6463L429.1735,258.6463"/>
   <path d="M435.5103,273.8253L435.5103,287.1155"/>
   <path d="M432.5353,287.1155L438.4853,287.1155"/>
   <path d="M435.5103,273.8253L435.5103,260.5352"/>
   <path d="M438.4853,260.5352L432.5353,260.5352"/>
   <path d="M438.8720,271.8881L438.8720,285.1596"/>
   <path d="M435.8970,285.1596L441.8470,285.1596"/>
   <path d="M438.8720,271.8881L438.8720,258.6165"/>
   <path d="M441.8470,258.6165L435.8970,258.6165"/>
   <path d="M442.2338,261.3900L442.2338,274.0037"/>
   <path d="M439.2588,274.0037L445.2088,274.0037"/>
   <path d="M442.2338,261.3900L442.2338,248.7763"/>
   <path d="M445.2088,248.7763L439.2588,248.7763"/>
   <path d="M445.5955,279.8267L445.5955,294.3575"/>
   <path d="M442.6205,294.3575L448.5705,294.3575"/>
   <path d="M445.5955,279.8267L445.5955,265.2960"/>
   <path d="M448.5705,265.2960L442.6205,265.2960"/>
   <path d="M448.9573,272.7403L448.9573,288.7298"/>
   <path d="M445.9823,288.7298L451.9323,288.7298"/>
   <path d="M448.9573,272.7403L448.9573,256.7508"/>
   <path d="M451.9323,256.7508L445.9823,256.7508"/>
   <path d="M452.3190,292.0673L452.3190,303.5814"/>
   <path d="M449.3440,303.5814L455.2940,303.5814"/>
   <path d="M452.3190,292.0673L452.3190,280.5532"/>
   <path d="M455.2940,280.5532L449.3440,280.5532"/>
   <path d="M455.6808,272.2176L455.6808,281.4975"/>
   <path d="M452.7058,281.4975L458.6558,281.4975"/>
   <path d="M455.6808,272.2176L455.6808,262.9376"/>
   <path d="M458.6558,262.9376L452.7058,262.9376"/>
   <path d="M459.0425,290.8093L459.0425,302.3520"/>
   <path d="M456.0675,302.3520L462.0175,302.3520"/>
   <path d="M459.0425,290.8093L459.0425,279.2667"/>
   <path d="M462.0175,279.2667L456.0675,279.2667"/>
   <path d="M462.4042,263.5678L462.4042,271.9171"/>
   <path d="M459.4293,271.9171L465.3793,271.9171"/>
   <path d="M462.4042,263.5678L462.4042,255.2185"/>
   <path d="M465.3793,255.2185L459.4293,255.2185"/>
   <path d="M465.7660,270.2142L465.7660,278.9571"/>
   <path d="M462.7910,278.9571L468.7410,278.9571"/>
   <path d="M465.7660,270.2142L465.7660,261.4714"/>
   <path d="M468.7410,261.4714L462.7910,261.4714"/>
   <path d="M469.1278,261.9026L469.1278,271.2853"/>
   <path d="M466.1528,271.2853L472.1028,271.2853"/>
   <path d="M469.1278,261.9026L469.1278,252.5198"/>
   <path d="M472.1028,252.5198L466.1528,252.5198"/>
   <path d="M472.4895,238.3939L472.4895,269.4938"/>
   <path d="M469.5145,269.4938L475.4645,269.4938"/>
   <path d="M472.4895,238.3939L472.4895,207.2941"/>
   <path d="M475.4645,207.2941L469.5145,207.2941"/>
   <path d="M475.8513,267.1091L475.8513,273.3722"/>
   <path d="M472.8763,273.3722L478.8263,273.3722"/>
   <path d="M475.8513,267.1091L475.8513,260.8460"/>
   <path d="M478.8263,260.8460L472.8763,260.8460"/>
   <path d="M479.2130,269.7653L479.2130,275.9799"/>
   <path d="M476.2380,275.9799L482.1880,275.9799"/>
   <path d="M479.2130,269.7653L479.2130,263.5506"/>
   <path d="M482.1880,263.5506L476.2380,263.5506"/>
   <path d="M482.5748,248.0071L482.5748,252.2485"/>
   <path d="M479.5998,252.2485L485.5498,252.2485"/>
   <path d="M482.5748,248.0071L482.5748,243.7657"/>
   <path d="M485.5498,243.7657L479.5998,243.7657"/>
   <path d="M485.9365,275.6514L485.9365,281.3074"/>
   <path d="M482.9615,281.3074L488.9115,281.3074"/>
   <path d="M485.9365,275.6514L485.9365,269.9953"/>
   <path d="M488.9115,269.9953L482.9615,269.9953"/>
   <path d="M489.2982,267.7415L489.2982,273.9767"/>
   <path d="M486.3233,273.9767L492.2733,273.9767"/>
   <path d="M489.2982,267.7415L489.2982,261.5063"/>
   <path d="M492.2733,261.5063L486.3233,261.5063"/>
   <path d="M492.6600,269.7805L492.6600,277.4037"/>
   <path d="M489.6850,277.4037L495.6350,277.4037"/>
   <path d="M492.6600,269.7805L492.6600,262.1574"/>
   <path d="M495.6350,262.1574L489.6850,262.1574"/>
   <path d="M496.0217,246.9226L496.0217,255.6465"/>
   <path d="M493.0467,255.6465L498.9968,255.6465"/>
   <path d="M496.0217,246.9226L496.0217,238.1988"/>
   <path d="M498.9968,238.1988L493.0467,238.1988"/>
   <path d="M499.3835,266.8916L499.3835,273.2687"/>
   <path d="M496.4085,273.2687L502.3585,273.2687"/>
   <path d="M499.3835,266.8916L499.3835,260.5146"/>
   <path d="M502.3585,260.5146L496.4085,260.5146"/>
   <path d="M502.7453,209.6472L502.7453,213.5963"/>
   <path d="M499.7703,213.5963L505.7203,213.5963"/>
   <path d="M502.7453,209.6472L502.7453,205.6981"/>
   <path d="M505.7203,205.6981L499.7703,205.6981"/>
   <path d="M509.4688,227.8349L509.4688,231.7188"/>
   <path d="M506.4938,231.7188L512.4438,231.7188"/>
   <path d="M509.4688,227.8349L509.4688,223.9510"/>
   <path d="M512.4438,223.9510L506.4938,223.9510"/>
   <path d="M516.1923,217.5325L516.1923,220.9662"/>
   <path d="M513.2173,220.9662L519.1673,220.9662"/>
   <path d="M516.1923,217.5325L516.1923,214.0988"/>
   <path d="M519.1673,214.0988L513.2173,214.0988"/>
   <path d="M519.5540,207.2673L519.5540,211.5582"/>
   <path d="M516.5790,211.5582L522.5290,211.5582"/>
   <path d="M519.5540,207.2673L519.5540,202.9763"/>
   <path d="M522.5290,202.9763L516.5790,202.9763"/>
   <path d="M526.2775,228.0769L526.2775,236.2319"/>
   <path d="M523.3025,236.2319L529.2525,236.2319"/>
   <path d="M526.2775,228.0769L526.2775,219.9218"/>
   <path d="M529.2525,219.9218L523.3025,219.9218"/>
   <path d="M529.6392,253.8608L529.6392,262.1205"/>
   <path d="M526.6643,262.1205L532.6142,262.1205"/>
   <path d="M529.6392,253.8608L529.6392,245.6011"/>
   <path d="M532.6142,245.6011L526.6643,245.6011"/>
   <path d="M533.0010,276.3548L533.0010,290.1468"/>
   <path d="M530.0260,290.1468L535.9760,290.1468"/>
   <path d="M533.0010,276.3548L533.0010,262.5627"/>
   <path d="M535.9760,262.5627L530.0260,262.5627"/>
   <path d="M536.3628,229.2188L536.3628,234.9862"/>
   <path d="M533.3877,234.9862L539.3378,234.9862"/>
   <path d="M536.3628,229.2188L536.3628,223.4514"/>
   <path d="M539.3378,223.4514L533.3877,223.4514"/>
   <path d="M539.7245,273.5298L539.7245,279.5455"/>
   <path d="M536.7495,279.5455L542.6995,279.5455"/>
   <path d="M539.7245,273.5298L539.7245,267.5142"/>
   <path d="M542.6995,267.5142L536.7495,267.5142"/>
   <path d="M543.0862,282.6780L543.0862,291.3263"/>
   <path d="M540.1112,291.3263L546.0612,291.3263"/>
   <path d="M543.0862,282.6780L543.0862,274.0298"/>
   <path d="M546.0612,274.0298L540.1112,274.0298"/>
   <path d="M549.8098,287.3554L549.8098,297.8144"/>
   <path d="M546.8347,297.8144L552.7848,297.8144"/>
   <path d="M549.8098,287.3554L549.8098,276.8965"/>
   <path d="M552.7848,276.8965L546.8347,276.8965"/>
   <path d="M553.1715,272.3234L553.1715,280.0903"/>
   <path d="M550.1965,280.0903L556.1465,280.0903"/>
   <path d="M553.1715,272.3234L553.1715,264.5564"/>
   <path d="M556.1465,264.5564L550.1965,264.5564"/>
   <path d="M559.8950,260.1499L559.8950,266.1917"/>
   <path d="M556.9200,266.1917L562.8700,266.1917"/>
   <path d="M559.8950,260.1499L559.8950,254.1081"/>
   <path d="M562.8700,254.1081L556.9200,254.1081"/>
   <path d="M566.6185,274.4875L566.6185,282.3018"/>
   <path d="M563.6435,282.3018L569.5935,282.3018"/>
   <path d="M566.6185,274.4875L566.6185,266.6731"/>
   <path d="M569.5935,266.6731L563.6435,266.6731"/>
   <path d="M569.9802,274.3260L569.9802,283.9225"/>
   <path d="M567.0052,283.9225L572.9552,283.9225"/>
   <path d="M569.9802,274.3260L569.9802,264.7294"/>
   <path d="M572.9552,264.7294L567.0052,264.7294"/>
   <path d="M573.3420,278.9288L573.3420,285.6301"/>
   <path d="M570.3670,285.6301L576.3170,285.6301"/>
   <path d="M573.3420,278.9288L573.3420,272.2275"/>
   <path d="M576.3170,272.2275L570.3670,272.2275"/>
   <path d="M580.0655,248.3467L580.0655,256.1473"/>
   <path d="M577.0905,256.1473L583.0405,256.1473"/>
   <path d="M580.0655,248.3467L580.0655,240.5461"/>
   <path d="M583.0405,240.5461L577.0905,240.5461"/>
   <path d="M586.7890,263.2358L586.7890,272.8189"/>
   <path d="M583.8140,272.8189L589.7640,272.8189"/>
   <path d="M586.7890,263.2358L586.7890,253.6527"/>
   <path d="M589.7640,253.6527L583.8140,253.6527"/>
   <path d="M590.1508,254.9777L590.1508,269.1507"/>
   <path d="M587.1757,269.1507L593.1258,269.1507"/>
   <path d="M590.1508,254.9777L590.1508,240.8046"/>
   <path d="M593.1258,240.8046L587.1757,240.8046"/>
   <path d="M593.5125,285.6765L593.5125,301.9297"/>
   <path d="M590.5375,301.9297L596.4875,301.9297"/>
   <path d="M593.5125,285.6765L593.5125,269.4232"/>
   <path d="M596.4875,269.4232L590.5375,269.4232"/>
   <path d="M596.8742,264.4798L596.8742,274.8607"/>
   <path d="M593.8992,274.8607L599.8492,274.8607"/>
   <path d="M596.8742,264.4798L596.8742,254.0988"/>
   <path d="M599.8492,254.0988L593.8992,254.0988"/>
   <path d="M603.5978,247.8284L603.5978,257.5987"/>
   <path d="M600.6228,257.5987L606.5727,257.5987"/>
   <path d="M603.5978,247.8284L603.5978,238.0581"/>
   <path d="M606.5727,238.0581L600.6228,238.0581"/>
   <path d="M606.9595,252.6263L606.9595,264.4429"/>
   <path d="M603.9845,264.4429L609.9345,264.4429"/>
   <path d="M606.9595,252.6263L606.9595,240.8097"/>
   <path d="M609.9345,240.8097L603.9845,240.8097"/>
   <path d="M610.3212,280.5546L610.3212,289.3290"/>
   <path d="M607.3463,289.3290L613.2962,289.3290"/>
   <path d="M610.3212,280.5546L610.3212,271.7802"/>
   <path d="M613.2962,271.7802L607.3463,271.7802"/>
   <path d="M613.6830,268.3343L613.6830,275.2405"/>
   <path d="M610.7080,275.2405L616.6580,275.2405"/>
   <path d="M613.6830,268.3343L613.6830,261.4280"/>
   <path d="M616.6580,261.4280L610.7080,261.4280"/>
   <path d="M617.0448,283.7279L617.0448,293.4210"/>
   <path d="M614.0698,293.4210L620.0197,293.4210"/>
   <path d="M617.0448,283.7279L617.0448,274.0348"/>
   <path d="M620.0197,274.0348L614.0698,274.0348"/>
   <path d="M620.4065,301.8618L620.4065,314.5355"/>
   <path d="M617.4315,314.5355L623.3815,314.5355"/>
   <path d="M620.4065,301.8618L620.4065,289.1882"/>
   <path d="M623.3815,289.1882L617.4315,289.1882"/>
   <path d="M623.7683,291.1950L623.7683,299.0999"/>
   <path d="M620.7933,299.0999L626.7432,299.0999"/>
   <path d="M623.7683,291.1950L623.7683,283.2901"/>
   <path d="M626.7432,283.2901L620.7933,283.2901"/>
   <path d="M627.1300,260.3438L627.1300,268.3678"/>
   <path d="M624.1550,268.3678L630.1050,268.3678"/>
   <path d="M627.1300,260.3438L627.1300,252.3198"/>
   <path d="M630.1050,252.3198L624.1550,252.3198"/>
   <path d="M630.4918,285.7735L630.4918,294.3053"/>
   <path d="M627.5168,294.3053L633.4667,294.3053"/>
   <path d="M630.4918,285.7735L630.4918,277.2418"/>
   <path d="M633.4667,277.2418L627.5168,277.2418"/>
   <path d="M633.8535,278.9972L633.8535,284.5523"/>
   <path d="M630.8785,284.5523L636.8285,284.5523"/>
   <path d="M633.8535,278.9972L633.8535,273.4422"/>
   <path d="M636.8285,273.4422L630.8785,273.4422"/>
   <path d="M640.5770,262.7109L640.5770,269.4426"/>
   <path d="M637.6020,269.4426L643.5520,269.4426"/>
   <path d="M640.5770,262.7109L640.5770,255.9793"/>
   <path d="M643.5520,255.9793L637.6020,255.9793"/>
   <path d="M643.9387,252.8860L643.9387,258.6178"/>
   <path d="M640.9638,258.6178L646.9137,258.6178"/>
   <path d="M643.9387,252.8860L643.9387,247.1542"/>
   <path d="M646.9137,247.1542L640.9638,247.1542"/>
   <ellipse  rx="2.6775" ry="2.6775" cx="102.6970" cy="114.9107"/>
   <ellipse  rx="2.6775" ry="2.6775" cx="106.0587" cy="176.7016"/>
   <ellipse  rx="2.6775" ry="2.6775" cx="109.4205" cy="182.5821"/>
   <ellipse  rx="2.6775" ry="2.6775" cx="112.7822" cy="215.4592"/>
   <ellipse  rx="2.6775" ry="2.6775" cx="116.1440" cy="222.3778"/>
   <ellipse  rx="2.6775" ry="2.6775" cx="129.5910" cy="283.9012"/>
   <ellipse  rx="2.6775" ry="2.6775" cx="132.9527" cy="273.8961"/>
   <ellipse  rx="2.6775" ry="2.6775" cx="136.3145" cy="266.7548"/>
   <ellipse  rx="2.6775" ry="2.6775" cx="139.6762" cy="240.6625"/>
   <ellipse  rx="2.6775" ry="2.6775" cx="143.0380" cy="312.4884"/>
   <ellipse  rx="2.6775" ry="2.6775" cx="146.3997" cy="254.5537"/>
   <ellipse  rx="2.6775" ry="2.6775" cx="149.7615" cy="281.3347"/>
   <ellipse  rx="2.6775" ry="2.6775" cx="156.4850" cy="266.6251"/>
   <ellipse  rx="2.6775" ry="2.6775" cx="159.8467" cy="263.9353"/>
   <ellipse  rx="2.6775" ry="2.6775" cx="163.2085" cy="283.7553"/>
   <ellipse  rx="2.6775" ry="2.6775" cx="169.9320" cy="275.0372"/>
   <ellipse  rx="2.6775" ry="2.6775" cx="173.2937" cy="268.5294"/>
   <ellipse  rx="2.6775" ry="2.6775" cx="176.6555" cy="244.8017"/>
   <ellipse  rx="2.6775" ry="2.6775" cx="180.0172" cy="263.2985"/>
   <ellipse  rx="2.6775" ry="2.6775" cx="183.3790" cy="288.0995"/>
   <ellipse  rx="2.6775" ry="2.6775" cx="186.7407" cy="265.9783"/>
   <ellipse  rx="2.6775" ry="2.6775" cx="190.1025" cy="274.4306"/>
   <ellipse  rx="2.6775" ry="2.6775" cx="196.8260" cy="277.0404"/>
   <ellipse  rx="2.6775" ry="2.6775" cx="200.1877" cy="262.0638"/>
   <ellipse  rx="2.6775" ry="2.6775" cx="203.5495" cy="246.5203"/>
   <ellipse  rx="2.6775" ry="2.6775" cx="206.9112" cy="246.7648"/>
   <ellipse  rx="2.6775" ry="2.6775" cx="210.2730" cy="247.9417"/>
   <ellipse  rx="2.6775" ry="2.6775" cx="216.9965" cy="240.3352"/>
   <ellipse  rx="2.6775" ry="2.6775" cx="220.3582" cy="240.3708"/>
   <ellipse  rx="2.6775" ry="2.6775" cx="223.7200" cy="245.4533"/>
   <ellipse  rx="2.6775" ry="2.6775" cx="227.0817" cy="281.0018"/>
   <ellipse  rx="2.6775" ry="2.6775" cx="240.5287" cy="288.8444"/>
   <ellipse  rx="2.6775" ry="2.6775" cx="243.8905" cy="254.5494"/>
   <ellipse  rx="2.6775" ry="2.6775" cx="247.2522" cy="245.4767"/>
   <ellipse  rx="2.6775" ry="2.6775" cx="250.6140" cy="265.7374"/>
   <ellipse  rx="2.6775" ry="2.6775" cx="253.9758" cy="256.9194"/>
   <ellipse  rx="2.6775" ry="2.6775" cx="257.3375" cy="249.7516"/>
   <ellipse  rx="2.6775" ry="2.6775" cx="260.6993" cy="265.4058"/>
   <ellipse  rx="2.6775" ry="2.6775" cx="264.0610" cy="253.2153"/>
   <ellipse  rx="2.6775" ry="2.6775" cx="274.1463" cy="258.7744"/>
   <ellipse  rx="2.6775" ry="2.6775" cx="277.5080" cy="276.9102"/>
   <ellipse  rx="2.6775" ry="2.6775" cx="280.8697" cy="271.1565"/>
   <ellipse  rx="2.6775" ry="2.6775" cx="284.2315" cy="270.2361"/>
   <ellipse  rx="2.6775" ry="2.6775" cx="287.5933" cy="282.4813"/>
   <ellipse  rx="2.6775" ry="2.6775" cx="290.9550" cy="278.2705"/>
   <ellipse  rx="2.6775" ry="2.6775" cx="294.3168" cy="277.9398"/>
   <ellipse  rx="2.6775" ry="2.6775" cx="297.6785" cy="260.1168"/>
   <ellipse  rx="2.6775" ry="2.6775" cx="301.0403" cy="277.1335"/>
   <ellipse  rx="2.6775" ry="2.6775" cx="304.4020" cy="279.0566"/>
   <ellipse  rx="2.6775" ry="2.6775" cx="307.7638" cy="278.3568"/>
   <ellipse  rx="2.6775" ry="2.6775" cx="311.1255" cy="267.2035"/>
   <ellipse  rx="2.6775" ry="2.6775" cx="314.4872" cy="286.5782"/>
   <ellipse  rx="2.6775" ry="2.6775" cx="317.8490" cy="276.6283"/>
   <ellipse  rx="2.6775" ry="2.6775" cx="321.2107" cy="283.9423"/>
   <ellipse  rx="2.6775" ry="2.6775" cx="324.5725" cy="269.2622"/>
   <ellipse  rx="2.6775" ry="2.6775" cx="327.9342" cy="279.2990"/>
   <ellipse  rx="2.6775" ry="2.6775" cx="331.2960" cy="250.1833"/>
   <ellipse  rx="2.6775" ry="2.6775" cx="334.6577" cy="262.9751"/>
   <ellipse  rx="2.6775" ry="2.6775" cx="338.0195" cy="261.2073"/>
   <ellipse  rx="2.6775" ry="2.6775" cx="341.3812" cy="272.3959"/>
   <ellipse  rx="2.6775" ry="2.6775" cx="344.7430" cy="267.8893"/>
   <ellipse  rx="2.6775" ry="2.6775" cx="351.4665" cy="257.2946"/>
   <ellipse  rx="2.6775" ry="2.6775" cx="354.8282" cy="250.9390"/>
   <ellipse  rx="2.6775" ry="2.6775" cx="358.1900" cy="263.9853"/>
   <ellipse  rx="2.6775" ry="2.6775" cx="361.5517" cy="263.5850"/>
   <ellipse  rx="2.6775" ry="2.6775" cx="368.2753" cy="267.0122"/>
   <ellipse  rx="2.6775" ry="2.6775" cx="371.6370" cy="272.8285"/>
   <ellipse  rx="2.6775" ry="2.6775" cx="381.7222" cy="288.5906"/>
   <ellipse  rx="2.6775" ry="2.6775" cx="385.0840" cy="232.1330"/>
   <ellipse  rx="2.6775" ry="2.6775" cx="388.4457" cy="240.9343"/>
   <ellipse  rx="2.6775" ry="2.6775" cx="391.8075" cy="235.4594"/>
   <ellipse  rx="2.6775" ry="2.6775" cx="395.1693" cy="205.5098"/>
   <ellipse  rx="2.6775" ry="2.6775" cx="401.8927" cy="239.8283"/>
   <ellipse  rx="2.6775" ry="2.6775" cx="408.6163" cy="192.3462"/>
   <ellipse  rx="2.6775" ry="2.6775" cx="415.3398" cy="248.0193"/>
   <ellipse  rx="2.6775" ry="2.6775" cx="418.7015" cy="234.2583"/>
   <ellipse  rx="2.6775" ry="2.6775" cx="425.4250" cy="161.8882"/>
   <ellipse  rx="2.6775" ry="2.6775" cx="432.1485" cy="274.4811"/>
   <ellipse  rx="2.6775" ry="2.6775" cx="435.5103" cy="273.8253"/>
   <ellipse  rx="2.6775" ry="2.6775" cx="438.8720" cy="271.8881"/>
   <ellipse  rx="2.6775" ry="2.6775" cx="442.2338" cy="261.3900"/>
   <ellipse  rx="2.6775" ry="2.6775" cx="445.5955" cy="279.8267"/>
   <ellipse  rx="2.6775" ry="2.6775" cx="448.9573" cy="272.7403"/>
   <ellipse  rx="2.6775" ry="2.6775" cx="452.3190" cy="292.0673"/>
   <ellipse  rx="2.6775" ry="2.6775" cx="455.6808" cy="272.2176"/>
   <ellipse  rx="2.6775" ry="2.6775" cx="459.0425" cy="290.8093"/>
   <ellipse  rx="2.6775" ry="2.6775" cx="462.4042" cy="263.5678"/>
   <ellipse  rx="2.6775" ry="2.6775" cx="465.7660" cy="270.2142"/>
   <ellipse  rx="2.6775" ry="2.6775" cx="469.1278" cy="261.9026"/>
   <ellipse  rx="2.6775" ry="2.6775" cx="472.4895" cy="238.3939"/>
   <ellipse  rx="2.6775" ry="2.6775" cx="475.8513" cy="267.1091"/>
   <ellipse  rx="2.6775" ry="2.6775" cx="479.2130" cy="269.7653"/>
   <ellipse  rx="2.6775" ry="2.6775" cx="482.5748" cy="248.0071"/>
   <ellipse  rx="2.6775" ry="2.6775" cx="485.9365" cy="275.6514"/>
   <ellipse  rx="2.6775" ry="2.6775" cx="489.2982" cy="267.7415"/>
   <ellipse  rx="2.6775" ry="2.6775" cx="492.6600" cy="269.7805"/>
   <ellipse  rx="2.6775" ry="2.6775" cx="496.0217" cy="246.9226"/>
   <ellipse  rx="2.6775" ry="2.6775" cx="499.3835" cy="266.8916"/>
   <ellipse  rx="2.6775" ry="2.6775" cx="502.7453" cy="209.6472"/>
   <ellipse  rx="2.6775" ry="2.6775" cx="509.4688" cy="227.8349"/>
   <ellipse  rx="2.6775" ry="2.6775" cx="516.1923" cy="217.5325"/>
   <ellipse  rx="2.6775" ry="2.6775" cx="519.5540" cy="207.2673"/>
   <ellipse  rx="2.6775" ry="2.6775" cx="526.2775" cy="228.0769"/>
   <ellipse  rx="2.6775" ry="2.6775" cx="529.6392" cy="253.8608"/>
   <ellipse  rx="2.6775" ry="2.6775" cx="533.0010" cy="276.3548"/>
   <ellipse  rx="2.6775" ry="2.6775" cx="536.3628" cy="229.2188"/>
   <ellipse  rx="2.6775" ry="2.6775" cx="539.7245" cy="273.5298"/>
   <ellipse  rx="2.6775" ry="2.6775" cx="543.0862" cy="282.6780"/>
   <ellipse  rx="2.6775" ry="2.6775" cx="549.8098" cy="287.3554"/>
   <ellipse  rx="2.6775" ry="2.6775" cx="553.1715" cy="272.3234"/>
   <ellipse  rx="2.6775" ry="2.6775" cx="559.8950" cy="260.1499"/>
   <ellipse  rx="2.6775" ry="2.6775" cx="566.6185" cy="274.4875"/>
   <ellipse  rx="2.6775" ry="2.6775" cx="569.9802" cy="274.3260"/>
   <ellipse  rx="2.6775" ry="2.6775" cx="573.3420" cy="278.9288"/>
   <ellipse  rx="2.6775" ry="2.6775" cx="580.0655" cy="248.3467"/>
   <ellipse  rx="2.6775" ry="2.6775" cx="586.7890" cy="263.2358"/>
   <ellipse  rx="2.6775" ry="2.6775" cx="590.1508" cy="254.9777"/>
   <ellipse  rx="2.6775" ry="2.6775" cx="593.5125" cy="285.6765"/>
   <ellipse  rx="2.6775" ry="2.6775" cx="596.8742" cy="264.4798"/>
   <ellipse  rx="2.6775" ry="2.6775" cx="603.5978" cy="247.8284"/>
   <ellipse  rx="2.6775" ry="2.6775" cx="606.9595" cy="252.6263"/>
   <ellipse  rx="2.6775" ry="2.6775" cx="610.3212" cy="280.5546"/>
   <ellipse  rx="2.6775" ry="2.6775" cx="613.6830" cy="268.3343"/>
   <ellipse  rx="2.6775" ry="2.6775" cx="617.0448" cy="283.7279"/>
   <ellipse  rx="2.6775" ry="2.6775" cx="620.4065" cy="301.8618"/>
   <ellipse  rx="2.6775" ry="2.6775" cx="623.7683" cy="291.1950"/>
   <ellipse  rx="2.6775" ry="2.6775" cx="627.1300" cy="260.3438"/>
   <ellipse  rx="2.6775" ry="2.6775" cx="630.4918" cy="285.7735"/>
   <ellipse  rx="2.6775" ry="2.6775" cx="633.8535" cy="278.9972"/>
   <ellipse  rx="2.6775" ry="2.6775" cx="640.5770" cy="262.7109"/>
   <ellipse  rx="2.6775" ry="2.6775" cx="643.9387" cy="252.8860"/>
  </g>
  <g style="fill:none; stroke:#FF0000; stroke-width:  0.4463; stroke-linecap:butt; stroke-linejoin:miter; stroke-dasharray:none">
   <path d="M223.7200,247.0666L223.7200,250.2268"/>
   <path d="M220.7450,250.2268L226.6950,250.2268"/>
   <path d="M223.7200,247.0666L223.7200,243.9063"/>
   <path d="M226.6950,243.9063L220.7450,243.9063"/>
   <path d="M221.4441,244.7907L221.4441,249.3424L225.9959,249.3424L225.9959,244.7907z"/>
  </g>
  <g style="fill:none; stroke:#000000; stroke-width:  0.8925; stroke-linecap:butt; stroke-linejoin:miter; stroke-dasharray:none">
   <path d="M89.2500,89.2500L761.6000,89.2500"/>
   <path d="M89.2500,505.7500L761.6000,505.7500"/>
  </g>
  <g style="fill:none; stroke:#000000; stroke-width:  0.4463; stroke-linecap:butt; stroke-linejoin:miter; stroke-dasharray:none">
   <path d="M173.2937,89.2500L173.2937,92.2250"/>
   <path d="M173.2937,505.7500L173.2937,502.7750"/>
   <path d="M341.3812,89.2500L341.3812,92.2250"/>
   <path d="M341.3812,505.7500L341.3812,502.7750"/>
   <path d="M509.4688,89.2500L509.4688,92.2250"/>
   <path d="M509.4688,505.7500L509.4688,502.7750"/>
   <path d="M677.5562,89.2500L677.5562,92.2250"/>
   <path d="M677.5562,505.7500L677.5562,502.7750"/>
   <path d="M89.2500,89.2500L89.2500,95.2000"/>
   <path d="M89.2500,505.7500L89.2500,499.8000"/>
   <path d="M257.3375,89.2500L257.3375,95.2000"/>
   <path d="M257.3375,505.7500L257.3375,499.8000"/>
   <path d="M425.4250,89.2500L425.4250,95.2000"/>
   <path d="M425.4250,505.7500L425.4250,499.8000"/>
   <path d="M593.5125,89.2500L593.5125,95.2000"/>
   <path d="M593.5125,505.7500L593.5125,499.8000"/>
   <path d="M761.6000,89.2500L761.6000,95.2000"/>
   <path d="M761.6000,505.7500L761.6000,499.8000"/>
  </g>
  <g style="fill:#000000; fill-rule:nonzero">
   <text   style="font-family:'Times','Nimbus Roman No9 L'; font-style:normal; font-weight:normal; font-size:595.0000" transform="matrix(0.0196,0.0000,-0.0000,-0.0196,86.7500,75.3000)">0</text>
   <text   style="font-family:'Times','Nimbus Roman No9 L'; font-style:normal; font-weight:normal; font-size:595.0000" transform="matrix(0.0196,0.0000,-0.0000,-0.0196,251.8375,75.3000)">50</text>
   <text   style="font-family:'Times','Nimbus Roman No9 L'; font-style:normal; font-weight:normal; font-size:595.0000" transform="matrix(0.0196,0.0000,-0.0000,-0.0196,416.9250,75.3000)">100</text>
   <text   style="font-family:'Times','Nimbus Roman No9 L'; font-style:normal; font-weight:normal; font-size:595.0000" transform="matrix(0.0196,0.0000,-0.0000,-0.0196,585.0125,75.3000)">150</text>
   <text   style="font-family:'Times','Nimbus Roman No9 L'; font-style:normal; font-weight:normal; font-size:595.0000" transform="matrix(0.0196,0.0000,-0.0000,-0.0196,753.1000,75.3000)">200</text>
   <text   style="font-family:'Times','Nimbus Roman No9 L'; font-style:normal; font-weight:normal; font-size:595.0000" transform="matrix(0.0280,0.0000,-0.0000,-0.0280,370.9250,58.3500)">Residue number</text>
  </g>
  <g style="fill:none; stroke:#000000; stroke-width:  0.8925; stroke-linecap:butt; stroke-linejoin:miter; stroke-dasharray:none">
   <path d="M89.2500,89.2500L89.2500,505.7500"/>
   <path d="M761.6000,89.2500L761.6000,505.7500"/>
  </g>
  <g style="fill:none; stroke:#000000; stroke-width:  0.4463; stroke-linecap:butt; stroke-linejoin:miter; stroke-dasharray:none">
   <path d="M89.2500,141.3125L92.2250,141.3125"/>
   <path d="M761.6000,141.3125L758.6250,141.3125"/>
   <path d="M89.2500,245.4375L92.2250,245.4375"/>
   <path d="M761.6000,245.4375L758.6250,245.4375"/>
   <path d="M89.2500,349.5625L92.2250,349.5625"/>
   <path d="M761.6000,349.5625L758.6250,349.5625"/>
   <path d="M89.2500,453.6875L92.2250,453.6875"/>
   <path d="M761.6000,453.6875L758.6250,453.6875"/>
   <path d="M89.2500,89.2500L95.2000,89.2500"/>
   <path d="M761.6000,89.2500L755.6500,89.2500"/>
   <path d="M89.2500,193.3750L95.2000,193.3750"/>
   <path d="M761.6000,193.3750L755.6500,193.3750"/>
   <path d="M89.2500,297.5000L95.2000,297.5000"/>
   <path d="M761.6000,297.5000L755.6500,297.5000"/>
   <path d="M89.2500,401.6250L95.2000,401.6250"/>
   <path d="M761.6000,401.6250L755.6500,401.6250"/>
   <path d="M89.2500,505.7500L95.2000,505.7500"/>
   <path d="M761.6000,505.7500L755.6500,505.7500"/>
  </g>
  <g style="fill:#000000; fill-rule:nonzero">
   <text   style="font-family:'Times','Nimbus Roman No9 L'; font-style:normal; font-weight:normal; font-size:595.0000" transform="matrix(0.0196,0.0000,-0.0000,-0.0196,78.3000,85.2500)">0</text>
   <text   style="font-family:'Times','Nimbus Roman No9 L'; font-style:normal; font-weight:normal; font-size:595.0000" transform="matrix(0.0196,0.0000,-0.0000,-0.0196,69.3000,189.3750)">0.5</text>
   <text   style="font-family:'Times','Nimbus Roman No9 L'; font-style:normal; font-weight:normal; font-size:595.0000" transform="matrix(0.0196,0.0000,-0.0000,-0.0196,78.3000,293.5000)">1</text>
   <text   style="font-family:'Times','Nimbus Roman No9 L'; font-style:normal; font-weight:normal; font-size:595.0000" transform="matrix(0.0196,0.0000,-0.0000,-0.0196,69.3000,397.6250)">1.5</text>
   <text   style="font-family:'Times','Nimbus Roman No9 L'; font-style:normal; font-weight:normal; font-size:595.0000" transform="matrix(0.0196,0.0000,-0.0000,-0.0196,77.3000,501.7500)">2</text>
   <text   style="font-family:'Times','Nimbus Roman No9 L'; font-style:normal; font-weight:normal; font-size:595.0000" transform="matrix(0.0000,0.0280,0.0280,-0.0070,63.3500,279.5000)">NOE</text>
  </g>
  <g style="fill:none; stroke:#000000; stroke-width:  0.4463; stroke-linecap:butt; stroke-linejoin:miter; stroke-dasharray:none">
   <path d="M89.2500,89.2500L89.2500,505.7500L761.6000,505.7500L761.6000,89.2500z"/>
  </g>
  <g style="fill:#FFFFFF; fill-rule:nonzero">
   <path  d="M505.7500,476.0000L505.7500,428.1500L620.9781,428.1500L620.9781,476.0000z"/>
  </g>
  <g style="fill:none; stroke:#000000; stroke-width:  0.8925; stroke-linecap:butt; stroke-linejoin:miter; stroke-dasharray:none">
   <path d="M505.7500,476.0000L505.7500,428.1500L620.9781,428.1500L620.9781,476.0000z"/>
  </g>
  <g style="fill:#000000; fill-rule:nonzero">
   <text   style="font-family:'Times','Nimbus Roman No9 L'; font-style:normal; font-weight:normal; font-size:595.0000" transform="matrix(0.0280,0.0000,-0.0000,-0.0280,547.0281,459.0500)">N spins</text>
  </g>
  <g style="fill:none; stroke:#000000; stroke-width:  0.8925; stroke-linecap:butt; stroke-linejoin:miter; stroke-dasharray:none">
   <path d="M514.6006,462.5500L538.4006,462.5500"/>
  </g>
  <g style="fill:none; stroke:#000000; stroke-width:  0.4463; stroke-linecap:butt; stroke-linejoin:miter; stroke-dasharray:none">
   <ellipse  rx="2.6775" ry="2.6775" cx="514.6006" cy="462.5500"/>
   <ellipse  rx="2.6775" ry="2.6775" cx="538.4006" cy="462.5500"/>
  </g>
  <g style="fill:#000000; fill-rule:nonzero">
   <text   style="font-family:'Times','Nimbus Roman No9 L'; font-style:normal; font-weight:normal; font-size:595.0000" transform="matrix(0.0280,0.0000,-0.0000,-0.0280,547.0281,438.1000)">NE1 spins</text>
  </g>
  <g style="fill:none; stroke:#FF0000; stroke-width:  0.8925; stroke-linecap:butt; stroke-linejoin:miter; stroke-dasharray:none">
   <path d="M514.6006,441.6000L538.4006,441.6000"/>
  </g>
  <g style="fill:none; stroke:#FF0000; stroke-width:  0.4463; stroke-linecap:butt; stroke-linejoin:miter; stroke-dasharray:none">
   <path d="M512.3247,439.3241L512.3247,443.8759L516.8765,443.8759L516.8765,439.3241z"/>
   <path d="M536.1248,439.3241L536.1248,443.8759L540.6765,443.8759L540.6765,439.3241z"/>
  </g>
 </g>
</svg>
