<?xml version="1.0" encoding="ISO-8859-1"?>
<!DOCTYPE svg PUBLIC "-//W3C//DTD SVG 1.0//EN" "http://www.w3.org/TR/2001/REC-SVG-20010904/DTD/svg10.dtd">
<!-- generated by Grace-5.1.22 -->
<svg xml:space="preserve" width="11.6944in" height="8.2639in" viewBox="0.0000 0.0000 842.0000 595.0000">
 <g transform="translate(0,595.0000) scale(1,-1)">
  <g style="fill:#FFFFFF; fill-rule:nonzero">
   <path  d="M0.0000,0.0000L0.0000,595.0000L842.0000,595.0000L842.0000,0.0000z"/>
  </g>
  <g style="fill:none; stroke:#000000; stroke-width:  0.8925; stroke-linecap:butt; stroke-linejoin:miter; stroke-dasharray:none">
   <path d="M102.6970,125.5279L106.0587,141.6478L109.4205,105.2820L112.7822,125.2673L116.1440,154.5594L129.5910,151.4642L132.9527,130.4008L136.3145,180.6639L139.6762,113.8219L143.0380,132.9172
            L146.3997,249.4824L156.4850,130.7069L159.8467,148.6832L163.2085,113.1347L169.9320,112.1170L173.2937,106.4550L176.6555,145.0550L180.0172,155.4607L183.3790,105.9861L186.7407,147.8331
            L190.1025,114.3196L196.8260,118.0475L200.1877,125.3681L203.5495,105.3721L206.9112,137.1685L210.2730,116.9944L216.9965,105.0001L220.3582,138.3634L223.7200,129.5355L227.0817,109.3668
            L240.5287,116.7720L243.8905,101.9212L247.2522,110.2569L250.6140,115.8452L253.9758,111.0552L257.3375,112.6065L260.6993,139.2842L264.0610,152.5125L274.1463,136.5177L277.5080,102.9452
            L280.8697,108.5521L284.2315,116.3922L287.5933,124.3190L290.9550,137.2549L294.3168,116.4575L297.6785,105.1775L301.0403,116.1944L304.4020,106.6456L307.7638,192.8032L314.4872,98.9044
            L317.8490,151.0317L321.2107,101.1300L324.5725,505.4482L327.9342,125.4665L331.2960,119.1054L334.6577,138.8804L338.0195,106.9718L341.3812,130.0625L344.7430,150.2357L351.4665,152.8251
            L354.8282,117.2232L358.1900,126.3678L361.5517,120.0347L368.2753,114.8214L371.6370,116.9323L381.7222,110.5601L385.0840,125.6902L388.4457,117.9783L391.8075,121.5855L395.1693,146.8521
            L401.8927,116.2213L408.6163,152.9711L415.3398,127.8311L418.7015,127.7322L425.4250,178.8774L432.1485,149.5204L435.5103,113.7640L438.8720,107.0696L442.2338,122.6813L445.5955,131.3621
            L448.9573,122.9962L452.3190,118.2900L455.6808,144.2511L459.0425,178.1922L462.4042,148.0299L465.7660,147.9956L469.1278,116.9399L472.4895,294.0627L475.8513,150.1960L479.2130,117.8084
            L482.5748,155.2249L485.9365,115.9509L489.2982,110.2235L492.6600,151.2450L496.0217,116.1815L499.3835,144.1923L502.7453,144.6652L509.4688,130.1892L516.1923,128.0280L519.5540,132.2319
            L526.2775,129.1824L529.6392,133.9336L533.0010,167.4202L536.3628,102.0640L539.7245,116.5796L543.0862,138.3741L546.4480,137.3657L549.8098,173.8541L553.1715,127.5821L559.8950,133.7088
            L566.6185,177.4200L569.9802,154.0905L573.3420,138.6254L580.0655,140.0109L586.7890,136.3102L590.1508,108.6224L593.5125,102.8411L596.8742,103.3824L603.5978,111.4532L606.9595,112.7142
            L610.3212,137.0481L613.6830,198.7863L617.0448,139.3796L620.4065,120.6172L623.7683,139.4577L627.1300,110.5327L630.4918,105.1250L633.8535,114.1295L640.5770,130.3612L643.9387,113.5556"/>
  </g>
  <g style="fill:none; stroke:#000000; stroke-width:  0.4463; stroke-linecap:butt; stroke-linejoin:miter; stroke-dasharray:none">
   <ellipse  rx="2.6775" ry="2.6775" cx="102.6970" cy="125.5279"/>
   <ellipse  rx="2.6775" ry="2.6775" cx="106.0587" cy="141.6478"/>
   <ellipse  rx="2.6775" ry="2.6775" cx="109.4205" cy="105.2820"/>
   <ellipse  rx="2.6775" ry="2.6775" cx="112.7822" cy="125.2673"/>
   <ellipse  rx="2.6775" ry="2.6775" cx="116.1440" cy="154.5594"/>
   <ellipse  rx="2.6775" ry="2.6775" cx="129.5910" cy="151.4642"/>
   <ellipse  rx="2.6775" ry="2.6775" cx="132.9527" cy="130.4008"/>
   <ellipse  rx="2.6775" ry="2.6775" cx="136.3145" cy="180.6639"/>
   <ellipse  rx="2.6775" ry="2.6775" cx="139.6762" cy="113.8219"/>
   <ellipse  rx="2.6775" ry="2.6775" cx="143.0380" cy="132.9172"/>
   <ellipse  rx="2.6775" ry="2.6775" cx="146.3997" cy="249.4824"/>
   <ellipse  rx="2.6775" ry="2.6775" cx="156.4850" cy="130.7069"/>
   <ellipse  rx="2.6775" ry="2.6775" cx="159.8467" cy="148.6832"/>
   <ellipse  rx="2.6775" ry="2.6775" cx="163.2085" cy="113.1347"/>
   <ellipse  rx="2.6775" ry="2.6775" cx="169.9320" cy="112.1170"/>
   <ellipse  rx="2.6775" ry="2.6775" cx="173.2937" cy="106.4550"/>
   <ellipse  rx="2.6775" ry="2.6775" cx="176.6555" cy="145.0550"/>
   <ellipse  rx="2.6775" ry="2.6775" cx="180.0172" cy="155.4607"/>
   <ellipse  rx="2.6775" ry="2.6775" cx="183.3790" cy="105.9861"/>
   <ellipse  rx="2.6775" ry="2.6775" cx="186.7407" cy="147.8331"/>
   <ellipse  rx="2.6775" ry="2.6775" cx="190.1025" cy="114.3196"/>
   <ellipse  rx="2.6775" ry="2.6775" cx="196.8260" cy="118.0475"/>
   <ellipse  rx="2.6775" ry="2.6775" cx="200.1877" cy="125.3681"/>
   <ellipse  rx="2.6775" ry="2.6775" cx="203.5495" cy="105.3721"/>
   <ellipse  rx="2.6775" ry="2.6775" cx="206.9112" cy="137.1685"/>
   <ellipse  rx="2.6775" ry="2.6775" cx="210.2730" cy="116.9944"/>
   <ellipse  rx="2.6775" ry="2.6775" cx="216.9965" cy="105.0001"/>
   <ellipse  rx="2.6775" ry="2.6775" cx="220.3582" cy="138.3634"/>
   <ellipse  rx="2.6775" ry="2.6775" cx="223.7200" cy="129.5355"/>
   <ellipse  rx="2.6775" ry="2.6775" cx="227.0817" cy="109.3668"/>
   <ellipse  rx="2.6775" ry="2.6775" cx="240.5287" cy="116.7720"/>
   <ellipse  rx="2.6775" ry="2.6775" cx="243.8905" cy="101.9212"/>
   <ellipse  rx="2.6775" ry="2.6775" cx="247.2522" cy="110.2569"/>
   <ellipse  rx="2.6775" ry="2.6775" cx="250.6140" cy="115.8452"/>
   <ellipse  rx="2.6775" ry="2.6775" cx="253.9758" cy="111.0552"/>
   <ellipse  rx="2.6775" ry="2.6775" cx="257.3375" cy="112.6065"/>
   <ellipse  rx="2.6775" ry="2.6775" cx="260.6993" cy="139.2842"/>
   <ellipse  rx="2.6775" ry="2.6775" cx="264.0610" cy="152.5125"/>
   <ellipse  rx="2.6775" ry="2.6775" cx="274.1463" cy="136.5177"/>
   <ellipse  rx="2.6775" ry="2.6775" cx="277.5080" cy="102.9452"/>
   <ellipse  rx="2.6775" ry="2.6775" cx="280.8697" cy="108.5521"/>
   <ellipse  rx="2.6775" ry="2.6775" cx="284.2315" cy="116.3922"/>
   <ellipse  rx="2.6775" ry="2.6775" cx="287.5933" cy="124.3190"/>
   <ellipse  rx="2.6775" ry="2.6775" cx="290.9550" cy="137.2549"/>
   <ellipse  rx="2.6775" ry="2.6775" cx="294.3168" cy="116.4575"/>
   <ellipse  rx="2.6775" ry="2.6775" cx="297.6785" cy="105.1775"/>
   <ellipse  rx="2.6775" ry="2.6775" cx="301.0403" cy="116.1944"/>
   <ellipse  rx="2.6775" ry="2.6775" cx="304.4020" cy="106.6456"/>
   <ellipse  rx="2.6775" ry="2.6775" cx="307.7638" cy="192.8032"/>
   <ellipse  rx="2.6775" ry="2.6775" cx="314.4872" cy="98.9044"/>
   <ellipse  rx="2.6775" ry="2.6775" cx="317.8490" cy="151.0317"/>
   <ellipse  rx="2.6775" ry="2.6775" cx="321.2107" cy="101.1300"/>
   <ellipse  rx="2.6775" ry="2.6775" cx="324.5725" cy="505.4482"/>
   <ellipse  rx="2.6775" ry="2.6775" cx="327.9342" cy="125.4665"/>
   <ellipse  rx="2.6775" ry="2.6775" cx="331.2960" cy="119.1054"/>
   <ellipse  rx="2.6775" ry="2.6775" cx="334.6577" cy="138.8804"/>
   <ellipse  rx="2.6775" ry="2.6775" cx="338.0195" cy="106.9718"/>
   <ellipse  rx="2.6775" ry="2.6775" cx="341.3812" cy="130.0625"/>
   <ellipse  rx="2.6775" ry="2.6775" cx="344.7430" cy="150.2357"/>
   <ellipse  rx="2.6775" ry="2.6775" cx="351.4665" cy="152.8251"/>
   <ellipse  rx="2.6775" ry="2.6775" cx="354.8282" cy="117.2232"/>
   <ellipse  rx="2.6775" ry="2.6775" cx="358.1900" cy="126.3678"/>
   <ellipse  rx="2.6775" ry="2.6775" cx="361.5517" cy="120.0347"/>
   <ellipse  rx="2.6775" ry="2.6775" cx="368.2753" cy="114.8214"/>
   <ellipse  rx="2.6775" ry="2.6775" cx="371.6370" cy="116.9323"/>
   <ellipse  rx="2.6775" ry="2.6775" cx="381.7222" cy="110.5601"/>
   <ellipse  rx="2.6775" ry="2.6775" cx="385.0840" cy="125.6902"/>
   <ellipse  rx="2.6775" ry="2.6775" cx="388.4457" cy="117.9783"/>
   <ellipse  rx="2.6775" ry="2.6775" cx="391.8075" cy="121.5855"/>
   <ellipse  rx="2.6775" ry="2.6775" cx="395.1693" cy="146.8521"/>
   <ellipse  rx="2.6775" ry="2.6775" cx="401.8927" cy="116.2213"/>
   <ellipse  rx="2.6775" ry="2.6775" cx="408.6163" cy="152.9711"/>
   <ellipse  rx="2.6775" ry="2.6775" cx="415.3398" cy="127.8311"/>
   <ellipse  rx="2.6775" ry="2.6775" cx="418.7015" cy="127.7322"/>
   <ellipse  rx="2.6775" ry="2.6775" cx="425.4250" cy="178.8774"/>
   <ellipse  rx="2.6775" ry="2.6775" cx="432.1485" cy="149.5204"/>
   <ellipse  rx="2.6775" ry="2.6775" cx="435.5103" cy="113.7640"/>
   <ellipse  rx="2.6775" ry="2.6775" cx="438.8720" cy="107.0696"/>
   <ellipse  rx="2.6775" ry="2.6775" cx="442.2338" cy="122.6813"/>
   <ellipse  rx="2.6775" ry="2.6775" cx="445.5955" cy="131.3621"/>
   <ellipse  rx="2.6775" ry="2.6775" cx="448.9573" cy="122.9962"/>
   <ellipse  rx="2.6775" ry="2.6775" cx="452.3190" cy="118.2900"/>
   <ellipse  rx="2.6775" ry="2.6775" cx="455.6808" cy="144.2511"/>
   <ellipse  rx="2.6775" ry="2.6775" cx="459.0425" cy="178.1922"/>
   <ellipse  rx="2.6775" ry="2.6775" cx="462.4042" cy="148.0299"/>
   <ellipse  rx="2.6775" ry="2.6775" cx="465.7660" cy="147.9956"/>
   <ellipse  rx="2.6775" ry="2.6775" cx="469.1278" cy="116.9399"/>
   <ellipse  rx="2.6775" ry="2.6775" cx="472.4895" cy="294.0627"/>
   <ellipse  rx="2.6775" ry="2.6775" cx="475.8513" cy="150.1960"/>
   <ellipse  rx="2.6775" ry="2.6775" cx="479.2130" cy="117.8084"/>
   <ellipse  rx="2.6775" ry="2.6775" cx="482.5748" cy="155.2249"/>
   <ellipse  rx="2.6775" ry="2.6775" cx="485.9365" cy="115.9509"/>
   <ellipse  rx="2.6775" ry="2.6775" cx="489.2982" cy="110.2235"/>
   <ellipse  rx="2.6775" ry="2.6775" cx="492.6600" cy="151.2450"/>
   <ellipse  rx="2.6775" ry="2.6775" cx="496.0217" cy="116.1815"/>
   <ellipse  rx="2.6775" ry="2.6775" cx="499.3835" cy="144.1923"/>
   <ellipse  rx="2.6775" ry="2.6775" cx="502.7453" cy="144.6652"/>
   <ellipse  rx="2.6775" ry="2.6775" cx="509.4688" cy="130.1892"/>
   <ellipse  rx="2.6775" ry="2.6775" cx="516.1923" cy="128.0280"/>
   <ellipse  rx="2.6775" ry="2.6775" cx="519.5540" cy="132.2319"/>
   <ellipse  rx="2.6775" ry="2.6775" cx="526.2775" cy="129.1824"/>
   <ellipse  rx="2.6775" ry="2.6775" cx="529.6392" cy="133.9336"/>
   <ellipse  rx="2.6775" ry="2.6775" cx="533.0010" cy="167.4202"/>
   <ellipse  rx="2.6775" ry="2.6775" cx="536.3628" cy="102.0640"/>
   <ellipse  rx="2.6775" ry="2.6775" cx="539.7245" cy="116.5796"/>
   <ellipse  rx="2.6775" ry="2.6775" cx="543.0862" cy="138.3741"/>
   <ellipse  rx="2.6775" ry="2.6775" cx="546.4480" cy="137.3657"/>
   <ellipse  rx="2.6775" ry="2.6775" cx="549.8098" cy="173.8541"/>
   <ellipse  rx="2.6775" ry="2.6775" cx="553.1715" cy="127.5821"/>
   <ellipse  rx="2.6775" ry="2.6775" cx="559.8950" cy="133.7088"/>
   <ellipse  rx="2.6775" ry="2.6775" cx="566.6185" cy="177.4200"/>
   <ellipse  rx="2.6775" ry="2.6775" cx="569.9802" cy="154.0905"/>
   <ellipse  rx="2.6775" ry="2.6775" cx="573.3420" cy="138.6254"/>
   <ellipse  rx="2.6775" ry="2.6775" cx="580.0655" cy="140.0109"/>
   <ellipse  rx="2.6775" ry="2.6775" cx="586.7890" cy="136.3102"/>
   <ellipse  rx="2.6775" ry="2.6775" cx="590.1508" cy="108.6224"/>
   <ellipse  rx="2.6775" ry="2.6775" cx="593.5125" cy="102.8411"/>
   <ellipse  rx="2.6775" ry="2.6775" cx="596.8742" cy="103.3824"/>
   <ellipse  rx="2.6775" ry="2.6775" cx="603.5978" cy="111.4532"/>
   <ellipse  rx="2.6775" ry="2.6775" cx="606.9595" cy="112.7142"/>
   <ellipse  rx="2.6775" ry="2.6775" cx="610.3212" cy="137.0481"/>
   <ellipse  rx="2.6775" ry="2.6775" cx="613.6830" cy="198.7863"/>
   <ellipse  rx="2.6775" ry="2.6775" cx="617.0448" cy="139.3796"/>
   <ellipse  rx="2.6775" ry="2.6775" cx="620.4065" cy="120.6172"/>
   <ellipse  rx="2.6775" ry="2.6775" cx="623.7683" cy="139.4577"/>
   <ellipse  rx="2.6775" ry="2.6775" cx="627.1300" cy="110.5327"/>
   <ellipse  rx="2.6775" ry="2.6775" cx="630.4918" cy="105.1250"/>
   <ellipse  rx="2.6775" ry="2.6775" cx="633.8535" cy="114.1295"/>
   <ellipse  rx="2.6775" ry="2.6775" cx="640.5770" cy="130.3612"/>
   <ellipse  rx="2.6775" ry="2.6775" cx="643.9387" cy="113.5556"/>
  </g>
  <g style="fill:none; stroke:#FF0000; stroke-width:  0.8925; stroke-linecap:butt; stroke-linejoin:miter; stroke-dasharray:none">
   <path d="M223.7200,105.5772L354.8282,143.9076L411.9780,219.8893L425.4250,127.1338L448.9573,162.9540L539.7245,142.0059L546.4480,165.2036"/>
  </g>
  <g style="fill:none; stroke:#FF0000; stroke-width:  0.4463; stroke-linecap:butt; stroke-linejoin:miter; stroke-dasharray:none">
   <path d="M221.4441,103.3013L221.4441,107.8531L225.9959,107.8531L225.9959,103.3013z"/>
   <path d="M352.5524,141.6317L352.5524,146.1835L357.1041,146.1835L357.1041,141.6317z"/>
   <path d="M409.7021,217.6134L409.7021,222.1652L414.2539,222.1652L414.2539,217.6134z"/>
   <path d="M423.1491,124.8579L423.1491,129.4097L427.7009,129.4097L427.7009,124.8579z"/>
   <path d="M446.6814,160.6782L446.6814,165.2299L451.2331,165.2299L451.2331,160.6782z"/>
   <path d="M537.4486,139.7300L537.4486,144.2818L542.0004,144.2818L542.0004,139.7300z"/>
   <path d="M544.1721,162.9277L544.1721,167.4794L548.7239,167.4794L548.7239,162.9277z"/>
  </g>
  <g style="fill:none; stroke:#000000; stroke-width:  0.8925; stroke-linecap:butt; stroke-linejoin:miter; stroke-dasharray:none">
   <path d="M89.2500,89.2500L761.6000,89.2500"/>
   <path d="M89.2500,505.7500L761.6000,505.7500"/>
  </g>
  <g style="fill:none; stroke:#000000; stroke-width:  0.4463; stroke-linecap:butt; stroke-linejoin:miter; stroke-dasharray:none">
   <path d="M173.2937,89.2500L173.2937,92.2250"/>
   <path d="M173.2937,505.7500L173.2937,502.7750"/>
   <path d="M341.3812,89.2500L341.3812,92.2250"/>
   <path d="M341.3812,505.7500L341.3812,502.7750"/>
   <path d="M509.4688,89.2500L509.4688,92.2250"/>
   <path d="M509.4688,505.7500L509.4688,502.7750"/>
   <path d="M677.5562,89.2500L677.5562,92.2250"/>
   <path d="M677.5562,505.7500L677.5562,502.7750"/>
   <path d="M89.2500,89.2500L89.2500,95.2000"/>
   <path d="M89.2500,505.7500L89.2500,499.8000"/>
   <path d="M257.3375,89.2500L257.3375,95.2000"/>
   <path d="M257.3375,505.7500L257.3375,499.8000"/>
   <path d="M425.4250,89.2500L425.4250,95.2000"/>
   <path d="M425.4250,505.7500L425.4250,499.8000"/>
   <path d="M593.5125,89.2500L593.5125,95.2000"/>
   <path d="M593.5125,505.7500L593.5125,499.8000"/>
   <path d="M761.6000,89.2500L761.6000,95.2000"/>
   <path d="M761.6000,505.7500L761.6000,499.8000"/>
  </g>
  <g style="fill:#000000; fill-rule:nonzero">
   <text   style="font-family:'Times','Nimbus Roman No9 L'; font-style:normal; font-weight:normal; font-size:595.0000" transform="matrix(0.0196,0.0000,-0.0000,-0.0196,86.7500,75.3000)">0</text>
   <text   style="font-family:'Times','Nimbus Roman No9 L'; font-style:normal; font-weight:normal; font-size:595.0000" transform="matrix(0.0196,0.0000,-0.0000,-0.0196,251.8375,75.3000)">50</text>
   <text   style="font-family:'Times','Nimbus Roman No9 L'; font-style:normal; font-weight:normal; font-size:595.0000" transform="matrix(0.0196,0.0000,-0.0000,-0.0196,416.9250,75.3000)">100</text>
   <text   style="font-family:'Times','Nimbus Roman No9 L'; font-style:normal; font-weight:normal; font-size:595.0000" transform="matrix(0.0196,0.0000,-0.0000,-0.0196,585.0125,75.3000)">150</text>
   <text   style="font-family:'Times','Nimbus Roman No9 L'; font-style:normal; font-weight:normal; font-size:595.0000" transform="matrix(0.0196,0.0000,-0.0000,-0.0196,753.1000,75.3000)">200</text>
   <text   style="font-family:'Times','Nimbus Roman No9 L'; font-style:normal; font-weight:normal; font-size:595.0000" transform="matrix(0.0280,0.0000,-0.0000,-0.0280,370.9250,58.3500)">Residue number</text>
  </g>
  <g style="fill:none; stroke:#000000; stroke-width:  0.8925; stroke-linecap:butt; stroke-linejoin:miter; stroke-dasharray:none">
   <path d="M89.2500,89.2500L89.2500,505.7500"/>
   <path d="M761.6000,89.2500L761.6000,505.7500"/>
  </g>
  <g style="fill:none; stroke:#000000; stroke-width:  0.4463; stroke-linecap:butt; stroke-linejoin:miter; stroke-dasharray:none">
   <path d="M89.2500,141.3125L92.2250,141.3125"/>
   <path d="M761.6000,141.3125L758.6250,141.3125"/>
   <path d="M89.2500,245.4375L92.2250,245.4375"/>
   <path d="M761.6000,245.4375L758.6250,245.4375"/>
   <path d="M89.2500,349.5625L92.2250,349.5625"/>
   <path d="M761.6000,349.5625L758.6250,349.5625"/>
   <path d="M89.2500,453.6875L92.2250,453.6875"/>
   <path d="M761.6000,453.6875L758.6250,453.6875"/>
   <path d="M89.2500,89.2500L95.2000,89.2500"/>
   <path d="M761.6000,89.2500L755.6500,89.2500"/>
   <path d="M89.2500,193.3750L95.2000,193.3750"/>
   <path d="M761.6000,193.3750L755.6500,193.3750"/>
   <path d="M89.2500,297.5000L95.2000,297.5000"/>
   <path d="M761.6000,297.5000L755.6500,297.5000"/>
   <path d="M89.2500,401.6250L95.2000,401.6250"/>
   <path d="M761.6000,401.6250L755.6500,401.6250"/>
   <path d="M89.2500,505.7500L95.2000,505.7500"/>
   <path d="M761.6000,505.7500L755.6500,505.7500"/>
  </g>
  <g style="fill:#000000; fill-rule:nonzero">
   <text   style="font-family:'Times','Nimbus Roman No9 L'; font-style:normal; font-weight:normal; font-size:595.0000" transform="matrix(0.0196,0.0000,-0.0000,-0.0196,78.3000,85.2500)">0</text>
   <text   style="font-family:'Times','Nimbus Roman No9 L'; font-style:normal; font-weight:normal; font-size:595.0000" transform="matrix(0.0196,0.0000,-0.0000,-0.0196,72.3000,189.3750)">20</text>
   <text   style="font-family:'Times','Nimbus Roman No9 L'; font-style:normal; font-weight:normal; font-size:595.0000" transform="matrix(0.0196,0.0000,-0.0000,-0.0196,72.3000,293.5000)">40</text>
   <text   style="font-family:'Times','Nimbus Roman No9 L'; font-style:normal; font-weight:normal; font-size:595.0000" transform="matrix(0.0196,0.0000,-0.0000,-0.0196,72.3000,397.6250)">60</text>
   <text   style="font-family:'Times','Nimbus Roman No9 L'; font-style:normal; font-weight:normal; font-size:595.0000" transform="matrix(0.0196,0.0000,-0.0000,-0.0196,72.3000,501.7500)">80</text>
   <text   style="font-family:'Symbol','Standard Symbols L'; font-style:normal; font-weight:normal; font-size:595.0000" transform="matrix(0.0000,0.0280,0.0280,-0.0000,62.3500,290.0000)">c</text>
   <text   style="font-family:'Symbol','Standard Symbols L'; font-style:normal; font-weight:normal; font-size:595.0000" transform="matrix(0.0000,0.0198,0.0198,-0.0000,52.3540,299.0000)">2</text>
  </g>
  <g style="fill:none; stroke:#000000; stroke-width:  0.4463; stroke-linecap:butt; stroke-linejoin:miter; stroke-dasharray:none">
   <path d="M89.2500,89.2500L89.2500,505.7500L761.6000,505.7500L761.6000,89.2500z"/>
  </g>
  <g style="fill:#FFFFFF; fill-rule:nonzero">
   <path  d="M505.7500,476.0000L505.7500,428.1500L620.9781,428.1500L620.9781,476.0000z"/>
  </g>
  <g style="fill:none; stroke:#000000; stroke-width:  0.8925; stroke-linecap:butt; stroke-linejoin:miter; stroke-dasharray:none">
   <path d="M505.7500,476.0000L505.7500,428.1500L620.9781,428.1500L620.9781,476.0000z"/>
  </g>
  <g style="fill:#000000; fill-rule:nonzero">
   <text   style="font-family:'Times','Nimbus Roman No9 L'; font-style:normal; font-weight:normal; font-size:595.0000" transform="matrix(0.0280,0.0000,-0.0000,-0.0280,547.0281,459.0500)">N spins</text>
  </g>
  <g style="fill:none; stroke:#000000; stroke-width:  0.8925; stroke-linecap:butt; stroke-linejoin:miter; stroke-dasharray:none">
   <path d="M514.6006,462.5500L538.4006,462.5500"/>
  </g>
  <g style="fill:none; stroke:#000000; stroke-width:  0.4463; stroke-linecap:butt; stroke-linejoin:miter; stroke-dasharray:none">
   <ellipse  rx="2.6775" ry="2.6775" cx="514.6006" cy="462.5500"/>
   <ellipse  rx="2.6775" ry="2.6775" cx="538.4006" cy="462.5500"/>
  </g>
  <g style="fill:#000000; fill-rule:nonzero">
   <text   style="font-family:'Times','Nimbus Roman No9 L'; font-style:normal; font-weight:normal; font-size:595.0000" transform="matrix(0.0280,0.0000,-0.0000,-0.0280,547.0281,438.1000)">NE1 spins</text>
  </g>
  <g style="fill:none; stroke:#FF0000; stroke-width:  0.8925; stroke-linecap:butt; stroke-linejoin:miter; stroke-dasharray:none">
   <path d="M514.6006,441.6000L538.4006,441.6000"/>
  </g>
  <g style="fill:none; stroke:#FF0000; stroke-width:  0.4463; stroke-linecap:butt; stroke-linejoin:miter; stroke-dasharray:none">
   <path d="M512.3247,439.3241L512.3247,443.8759L516.8765,443.8759L516.8765,439.3241z"/>
   <path d="M536.1248,439.3241L536.1248,443.8759L540.6765,443.8759L540.6765,439.3241z"/>
  </g>
 </g>
</svg>
