<?xml version="1.0" encoding="ISO-8859-1"?>
<!DOCTYPE svg PUBLIC "-//W3C//DTD SVG 1.0//EN" "http://www.w3.org/TR/2001/REC-SVG-20010904/DTD/svg10.dtd">
<!-- generated by Grace-5.1.22 -->
<svg xml:space="preserve" width="11.6944in" height="8.2639in" viewBox="0.0000 0.0000 842.0000 595.0000">
 <g transform="translate(0,595.0000) scale(1,-1)">
  <g style="fill:#FFFFFF; fill-rule:nonzero">
   <path  d="M0.0000,0.0000L0.0000,595.0000L842.0000,595.0000L842.0000,0.0000z"/>
  </g>
  <g style="fill:none; stroke:#000000; stroke-width:  0.8925; stroke-linecap:butt; stroke-linejoin:miter; stroke-dasharray:none">
   <path d="M102.6970,288.3953L106.0587,320.4727L109.4205,267.7239L112.7822,235.6717L116.1440,288.1311L129.5910,181.3042L132.9527,215.0203L136.3145,177.3089L139.6762,172.8227L143.0380,151.4489
            L146.3997,187.3647L156.4850,207.8537L159.8467,156.5790L163.2085,218.9163L169.9320,246.1095L173.2937,318.6972L176.6555,264.9065L180.0172,290.8776L183.3790,202.4908L186.7407,183.0174
            L190.1025,232.6453L196.8260,218.7565L200.1877,188.9548L203.5495,183.8725L206.9112,167.0015L210.2730,237.7315L216.9965,248.4500L220.3582,277.7309L223.7200,196.5606L227.0817,211.6190
            L240.5287,184.5476L243.8905,203.0602L247.2522,195.7088L250.6140,211.9525L253.9758,360.7940L257.3375,207.1311L260.6993,354.9294L264.0610,290.5260L274.1463,255.2749L277.5080,263.4407
            L280.8697,313.6567L284.2315,202.3699L287.5933,232.0816L290.9550,199.7553L294.3168,245.0647L297.6785,224.2874L301.0403,215.0355L304.4020,207.7056L307.7638,172.8937L314.4872,228.8905
            L317.8490,150.6408L321.2107,167.7444L324.5725,352.2732L327.9342,271.8165L331.2960,345.7942L334.6577,179.2647L338.0195,281.9270L341.3812,301.5812L344.7430,213.9026L351.4665,334.8361
            L354.8282,177.6358L358.1900,167.3324L361.5517,210.1361L368.2753,188.6136L371.6370,169.6890L381.7222,140.9599L385.0840,167.5252L388.4457,208.0251L391.8075,213.5926L395.1693,196.6362
            L401.8927,250.2156L408.6163,118.1393L415.3398,165.3994L418.7015,150.5835L425.4250,118.3475L432.1485,160.6641L435.5103,175.2557L438.8720,173.4592L442.2338,173.7914L445.5955,170.3264
            L448.9573,151.3943L452.3190,198.9281L455.6808,219.0216L459.0425,194.7206L462.4042,235.9186L465.7660,214.5587L469.1278,210.2511L472.4895,182.9181L475.8513,295.1213L479.2130,316.3274
            L482.5748,369.2408L485.9365,314.8024L489.2982,278.2775L492.6600,239.2755L496.0217,232.4991L499.3835,304.1500L502.7453,351.1899L509.4688,365.2420L516.1923,427.4390L519.5540,392.5324
            L526.2775,229.5215L529.6392,215.9798L533.0010,178.8759L536.3628,266.5596L539.7245,314.9429L543.0862,244.9764L546.4480,311.5068L549.8098,205.9718L553.1715,260.9505L559.8950,310.5953
            L566.6185,253.4315L569.9802,229.7779L573.3420,277.7444L580.0655,252.1336L586.7890,226.2864L590.1508,157.2893L593.5125,168.9493L596.8742,200.1181L603.5978,198.5115L606.9595,179.3267
            L610.3212,248.0172L613.6830,259.7483L617.0448,221.1378L620.4065,213.9453L623.7683,273.2162L627.1300,245.8596L630.4918,247.1520L633.8535,328.7652L640.5770,277.0107L643.9387,287.0729"/>
  </g>
  <g style="fill:none; stroke:#000000; stroke-width:  0.4463; stroke-linecap:butt; stroke-linejoin:miter; stroke-dasharray:none">
   <path d="M102.6970,288.3953L102.6970,289.1984"/>
   <path d="M99.7220,289.1984L105.6720,289.1984"/>
   <path d="M102.6970,288.3953L102.6970,287.5923"/>
   <path d="M105.6720,287.5923L99.7220,287.5923"/>
   <path d="M106.0587,320.4727L106.0587,321.2832"/>
   <path d="M103.0837,321.2832L109.0337,321.2832"/>
   <path d="M106.0587,320.4727L106.0587,319.6621"/>
   <path d="M109.0337,319.6621L103.0837,319.6621"/>
   <path d="M109.4205,267.7239L109.4205,268.5572"/>
   <path d="M106.4455,268.5572L112.3955,268.5572"/>
   <path d="M109.4205,267.7239L109.4205,266.8907"/>
   <path d="M112.3955,266.8907L106.4455,266.8907"/>
   <path d="M112.7822,235.6717L112.7822,236.5706"/>
   <path d="M109.8072,236.5706L115.7572,236.5706"/>
   <path d="M112.7822,235.6717L112.7822,234.7727"/>
   <path d="M115.7572,234.7727L109.8072,234.7727"/>
   <path d="M116.1440,288.1311L116.1440,289.1333"/>
   <path d="M113.1690,289.1333L119.1190,289.1333"/>
   <path d="M116.1440,288.1311L116.1440,287.1290"/>
   <path d="M119.1190,287.1290L113.1690,287.1290"/>
   <path d="M129.5910,181.3042L129.5910,182.3116"/>
   <path d="M126.6160,182.3116L132.5660,182.3116"/>
   <path d="M129.5910,181.3042L129.5910,180.2967"/>
   <path d="M132.5660,180.2967L126.6160,180.2967"/>
   <path d="M132.9527,215.0203L132.9527,216.2522"/>
   <path d="M129.9777,216.2522L135.9277,216.2522"/>
   <path d="M132.9527,215.0203L132.9527,213.7883"/>
   <path d="M135.9277,213.7883L129.9777,213.7883"/>
   <path d="M136.3145,177.3089L136.3145,178.4159"/>
   <path d="M133.3395,178.4159L139.2895,178.4159"/>
   <path d="M136.3145,177.3089L136.3145,176.2019"/>
   <path d="M139.2895,176.2019L133.3395,176.2019"/>
   <path d="M139.6762,172.8227L139.6762,173.9510"/>
   <path d="M136.7012,173.9510L142.6512,173.9510"/>
   <path d="M139.6762,172.8227L139.6762,171.6945"/>
   <path d="M142.6512,171.6945L136.7012,171.6945"/>
   <path d="M143.0380,151.4489L143.0380,152.5968"/>
   <path d="M140.0630,152.5968L146.0130,152.5968"/>
   <path d="M143.0380,151.4489L143.0380,150.3010"/>
   <path d="M146.0130,150.3010L140.0630,150.3010"/>
   <path d="M146.3997,187.3647L146.3997,188.5489"/>
   <path d="M143.4247,188.5489L149.3747,188.5489"/>
   <path d="M146.3997,187.3647L146.3997,186.1805"/>
   <path d="M149.3747,186.1805L143.4247,186.1805"/>
   <path d="M156.4850,207.8537L156.4850,208.9112"/>
   <path d="M153.5100,208.9112L159.4600,208.9112"/>
   <path d="M156.4850,207.8537L156.4850,206.7961"/>
   <path d="M159.4600,206.7961L153.5100,206.7961"/>
   <path d="M159.8467,156.5790L159.8467,157.6695"/>
   <path d="M156.8717,157.6695L162.8217,157.6695"/>
   <path d="M159.8467,156.5790L159.8467,155.4885"/>
   <path d="M162.8217,155.4885L156.8717,155.4885"/>
   <path d="M163.2085,218.9163L163.2085,220.0624"/>
   <path d="M160.2335,220.0624L166.1835,220.0624"/>
   <path d="M163.2085,218.9163L163.2085,217.7701"/>
   <path d="M166.1835,217.7701L160.2335,217.7701"/>
   <path d="M169.9320,246.1095L169.9320,247.1611"/>
   <path d="M166.9570,247.1611L172.9070,247.1611"/>
   <path d="M169.9320,246.1095L169.9320,245.0580"/>
   <path d="M172.9070,245.0580L166.9570,245.0580"/>
   <path d="M173.2937,318.6972L173.2937,319.7124"/>
   <path d="M170.3187,319.7124L176.2687,319.7124"/>
   <path d="M173.2937,318.6972L173.2937,317.6819"/>
   <path d="M176.2687,317.6819L170.3187,317.6819"/>
   <path d="M176.6555,264.9065L176.6555,265.9463"/>
   <path d="M173.6805,265.9463L179.6305,265.9463"/>
   <path d="M176.6555,264.9065L176.6555,263.8668"/>
   <path d="M179.6305,263.8668L173.6805,263.8668"/>
   <path d="M180.0172,290.8776L180.0172,291.9232"/>
   <path d="M177.0422,291.9232L182.9922,291.9232"/>
   <path d="M180.0172,290.8776L180.0172,289.8321"/>
   <path d="M182.9922,289.8321L177.0422,289.8321"/>
   <path d="M183.3790,202.4908L183.3790,203.6371"/>
   <path d="M180.4040,203.6371L186.3540,203.6371"/>
   <path d="M183.3790,202.4908L183.3790,201.3446"/>
   <path d="M186.3540,201.3446L180.4040,201.3446"/>
   <path d="M186.7407,183.0174L186.7407,184.1389"/>
   <path d="M183.7657,184.1389L189.7157,184.1389"/>
   <path d="M186.7407,183.0174L186.7407,181.8959"/>
   <path d="M189.7157,181.8959L183.7657,181.8959"/>
   <path d="M190.1025,232.6453L190.1025,233.8452"/>
   <path d="M187.1275,233.8452L193.0775,233.8452"/>
   <path d="M190.1025,232.6453L190.1025,231.4453"/>
   <path d="M193.0775,231.4453L187.1275,231.4453"/>
   <path d="M196.8260,218.7565L196.8260,219.9305"/>
   <path d="M193.8510,219.9305L199.8010,219.9305"/>
   <path d="M196.8260,218.7565L196.8260,217.5824"/>
   <path d="M199.8010,217.5824L193.8510,217.5824"/>
   <path d="M200.1877,188.9548L200.1877,190.0086"/>
   <path d="M197.2127,190.0086L203.1627,190.0086"/>
   <path d="M200.1877,188.9548L200.1877,187.9010"/>
   <path d="M203.1627,187.9010L197.2127,187.9010"/>
   <path d="M203.5495,183.8725L203.5495,185.0651"/>
   <path d="M200.5745,185.0651L206.5245,185.0651"/>
   <path d="M203.5495,183.8725L203.5495,182.6799"/>
   <path d="M206.5245,182.6799L200.5745,182.6799"/>
   <path d="M206.9112,167.0015L206.9112,168.1869"/>
   <path d="M203.9362,168.1869L209.8862,168.1869"/>
   <path d="M206.9112,167.0015L206.9112,165.8161"/>
   <path d="M209.8862,165.8161L203.9362,165.8161"/>
   <path d="M210.2730,237.7315L210.2730,238.9750"/>
   <path d="M207.2980,238.9750L213.2480,238.9750"/>
   <path d="M210.2730,237.7315L210.2730,236.4881"/>
   <path d="M213.2480,236.4881L207.2980,236.4881"/>
   <path d="M216.9965,248.4500L216.9965,249.6357"/>
   <path d="M214.0215,249.6357L219.9715,249.6357"/>
   <path d="M216.9965,248.4500L216.9965,247.2643"/>
   <path d="M219.9715,247.2643L214.0215,247.2643"/>
   <path d="M220.3582,277.7309L220.3582,278.8082"/>
   <path d="M217.3832,278.8082L223.3332,278.8082"/>
   <path d="M220.3582,277.7309L220.3582,276.6537"/>
   <path d="M223.3332,276.6537L217.3832,276.6537"/>
   <path d="M223.7200,196.5606L223.7200,197.5629"/>
   <path d="M220.7450,197.5629L226.6950,197.5629"/>
   <path d="M223.7200,196.5606L223.7200,195.5583"/>
   <path d="M226.6950,195.5583L220.7450,195.5583"/>
   <path d="M227.0817,211.6190L227.0817,212.7580"/>
   <path d="M224.1067,212.7580L230.0567,212.7580"/>
   <path d="M227.0817,211.6190L227.0817,210.4800"/>
   <path d="M230.0567,210.4800L224.1067,210.4800"/>
   <path d="M240.5287,184.5476L240.5287,185.8653"/>
   <path d="M237.5537,185.8653L243.5037,185.8653"/>
   <path d="M240.5287,184.5476L240.5287,183.2298"/>
   <path d="M243.5037,183.2298L237.5537,183.2298"/>
   <path d="M243.8905,203.0602L243.8905,204.1117"/>
   <path d="M240.9155,204.1117L246.8655,204.1117"/>
   <path d="M243.8905,203.0602L243.8905,202.0087"/>
   <path d="M246.8655,202.0087L240.9155,202.0087"/>
   <path d="M247.2522,195.7088L247.2522,196.7688"/>
   <path d="M244.2772,196.7688L250.2272,196.7688"/>
   <path d="M247.2522,195.7088L247.2522,194.6489"/>
   <path d="M250.2272,194.6489L244.2772,194.6489"/>
   <path d="M250.6140,211.9525L250.6140,213.0415"/>
   <path d="M247.6390,213.0415L253.5890,213.0415"/>
   <path d="M250.6140,211.9525L250.6140,210.8635"/>
   <path d="M253.5890,210.8635L247.6390,210.8635"/>
   <path d="M253.9758,360.7940L253.9758,361.8335"/>
   <path d="M251.0008,361.8335L256.9508,361.8335"/>
   <path d="M253.9758,360.7940L253.9758,359.7545"/>
   <path d="M256.9508,359.7545L251.0008,359.7545"/>
   <path d="M257.3375,207.1311L257.3375,208.0927"/>
   <path d="M254.3625,208.0927L260.3125,208.0927"/>
   <path d="M257.3375,207.1311L257.3375,206.1695"/>
   <path d="M260.3125,206.1695L254.3625,206.1695"/>
   <path d="M260.6993,354.9294L260.6993,356.0176"/>
   <path d="M257.7242,356.0176L263.6742,356.0176"/>
   <path d="M260.6993,354.9294L260.6993,353.8412"/>
   <path d="M263.6742,353.8412L257.7242,353.8412"/>
   <path d="M264.0610,290.5260L264.0610,291.5167"/>
   <path d="M261.0860,291.5167L267.0360,291.5167"/>
   <path d="M264.0610,290.5260L264.0610,289.5353"/>
   <path d="M267.0360,289.5353L261.0860,289.5353"/>
   <path d="M274.1463,255.2749L274.1463,256.3637"/>
   <path d="M271.1712,256.3637L277.1212,256.3637"/>
   <path d="M274.1463,255.2749L274.1463,254.1862"/>
   <path d="M277.1212,254.1862L271.1712,254.1862"/>
   <path d="M277.5080,263.4407L277.5080,264.5386"/>
   <path d="M274.5330,264.5386L280.4830,264.5386"/>
   <path d="M277.5080,263.4407L277.5080,262.3427"/>
   <path d="M280.4830,262.3427L274.5330,262.3427"/>
   <path d="M280.8697,313.6567L280.8697,314.7275"/>
   <path d="M277.8947,314.7275L283.8447,314.7275"/>
   <path d="M280.8697,313.6567L280.8697,312.5860"/>
   <path d="M283.8447,312.5860L277.8947,312.5860"/>
   <path d="M284.2315,202.3699L284.2315,203.5264"/>
   <path d="M281.2565,203.5264L287.2065,203.5264"/>
   <path d="M284.2315,202.3699L284.2315,201.2134"/>
   <path d="M287.2065,201.2134L281.2565,201.2134"/>
   <path d="M287.5933,232.0816L287.5933,233.2593"/>
   <path d="M284.6182,233.2593L290.5682,233.2593"/>
   <path d="M287.5933,232.0816L287.5933,230.9039"/>
   <path d="M290.5682,230.9039L284.6182,230.9039"/>
   <path d="M290.9550,199.7553L290.9550,200.9232"/>
   <path d="M287.9800,200.9232L293.9300,200.9232"/>
   <path d="M290.9550,199.7553L290.9550,198.5874"/>
   <path d="M293.9300,198.5874L287.9800,198.5874"/>
   <path d="M294.3168,245.0647L294.3168,246.2130"/>
   <path d="M291.3417,246.2130L297.2917,246.2130"/>
   <path d="M294.3168,245.0647L294.3168,243.9163"/>
   <path d="M297.2917,243.9163L291.3417,243.9163"/>
   <path d="M297.6785,224.2874L297.6785,225.4605"/>
   <path d="M294.7035,225.4605L300.6535,225.4605"/>
   <path d="M297.6785,224.2874L297.6785,223.1143"/>
   <path d="M300.6535,223.1143L294.7035,223.1143"/>
   <path d="M301.0403,215.0355L301.0403,216.2069"/>
   <path d="M298.0652,216.2069L304.0153,216.2069"/>
   <path d="M301.0403,215.0355L301.0403,213.8640"/>
   <path d="M304.0153,213.8640L298.0652,213.8640"/>
   <path d="M304.4020,207.7056L304.4020,208.7900"/>
   <path d="M301.4270,208.7900L307.3770,208.7900"/>
   <path d="M304.4020,207.7056L304.4020,206.6212"/>
   <path d="M307.3770,206.6212L301.4270,206.6212"/>
   <path d="M307.7638,172.8937L307.7638,174.0607"/>
   <path d="M304.7887,174.0607L310.7387,174.0607"/>
   <path d="M307.7638,172.8937L307.7638,171.7267"/>
   <path d="M310.7387,171.7267L304.7887,171.7267"/>
   <path d="M314.4872,228.8905L314.4872,230.0071"/>
   <path d="M311.5122,230.0071L317.4622,230.0071"/>
   <path d="M314.4872,228.8905L314.4872,227.7739"/>
   <path d="M317.4622,227.7739L311.5122,227.7739"/>
   <path d="M317.8490,150.6408L317.8490,151.7498"/>
   <path d="M314.8740,151.7498L320.8240,151.7498"/>
   <path d="M317.8490,150.6408L317.8490,149.5319"/>
   <path d="M320.8240,149.5319L314.8740,149.5319"/>
   <path d="M321.2107,167.7444L321.2107,168.7702"/>
   <path d="M318.2357,168.7702L324.1857,168.7702"/>
   <path d="M321.2107,167.7444L321.2107,166.7186"/>
   <path d="M324.1857,166.7186L318.2357,166.7186"/>
   <path d="M324.5725,352.2732L324.5725,353.2946"/>
   <path d="M321.5975,353.2946L327.5475,353.2946"/>
   <path d="M324.5725,352.2732L324.5725,351.2519"/>
   <path d="M327.5475,351.2519L321.5975,351.2519"/>
   <path d="M327.9342,271.8165L327.9342,272.8616"/>
   <path d="M324.9592,272.8616L330.9092,272.8616"/>
   <path d="M327.9342,271.8165L327.9342,270.7715"/>
   <path d="M330.9092,270.7715L324.9592,270.7715"/>
   <path d="M331.2960,345.7942L331.2960,346.7734"/>
   <path d="M328.3210,346.7734L334.2710,346.7734"/>
   <path d="M331.2960,345.7942L331.2960,344.8151"/>
   <path d="M334.2710,344.8151L328.3210,344.8151"/>
   <path d="M334.6577,179.2647L334.6577,180.3244"/>
   <path d="M331.6827,180.3244L337.6327,180.3244"/>
   <path d="M334.6577,179.2647L334.6577,178.2049"/>
   <path d="M337.6327,178.2049L331.6827,178.2049"/>
   <path d="M338.0195,281.9270L338.0195,282.9924"/>
   <path d="M335.0445,282.9924L340.9945,282.9924"/>
   <path d="M338.0195,281.9270L338.0195,280.8617"/>
   <path d="M340.9945,280.8617L335.0445,280.8617"/>
   <path d="M341.3812,301.5812L341.3812,302.7205"/>
   <path d="M338.4062,302.7205L344.3562,302.7205"/>
   <path d="M341.3812,301.5812L341.3812,300.4418"/>
   <path d="M344.3562,300.4418L338.4062,300.4418"/>
   <path d="M344.7430,213.9026L344.7430,214.8910"/>
   <path d="M341.7680,214.8910L347.7180,214.8910"/>
   <path d="M344.7430,213.9026L344.7430,212.9143"/>
   <path d="M347.7180,212.9143L341.7680,212.9143"/>
   <path d="M351.4665,334.8361L351.4665,335.7543"/>
   <path d="M348.4915,335.7543L354.4415,335.7543"/>
   <path d="M351.4665,334.8361L351.4665,333.9179"/>
   <path d="M354.4415,333.9179L348.4915,333.9179"/>
   <path d="M354.8282,177.6358L354.8282,178.7847"/>
   <path d="M351.8532,178.7847L357.8032,178.7847"/>
   <path d="M354.8282,177.6358L354.8282,176.4869"/>
   <path d="M357.8032,176.4869L351.8532,176.4869"/>
   <path d="M358.1900,167.3324L358.1900,168.3732"/>
   <path d="M355.2150,168.3732L361.1650,168.3732"/>
   <path d="M358.1900,167.3324L358.1900,166.2917"/>
   <path d="M361.1650,166.2917L355.2150,166.2917"/>
   <path d="M361.5517,210.1361L361.5517,211.1426"/>
   <path d="M358.5767,211.1426L364.5267,211.1426"/>
   <path d="M361.5517,210.1361L361.5517,209.1296"/>
   <path d="M364.5267,209.1296L358.5767,209.1296"/>
   <path d="M368.2753,188.6136L368.2753,189.9198"/>
   <path d="M365.3003,189.9198L371.2502,189.9198"/>
   <path d="M368.2753,188.6136L368.2753,187.3075"/>
   <path d="M371.2502,187.3075L365.3003,187.3075"/>
   <path d="M371.6370,169.6890L371.6370,170.8259"/>
   <path d="M368.6620,170.8259L374.6120,170.8259"/>
   <path d="M371.6370,169.6890L371.6370,168.5521"/>
   <path d="M374.6120,168.5521L368.6620,168.5521"/>
   <path d="M381.7222,140.9599L381.7222,142.2587"/>
   <path d="M378.7472,142.2587L384.6972,142.2587"/>
   <path d="M381.7222,140.9599L381.7222,139.6610"/>
   <path d="M384.6972,139.6610L378.7472,139.6610"/>
   <path d="M385.0840,167.5252L385.0840,168.5829"/>
   <path d="M382.1090,168.5829L388.0590,168.5829"/>
   <path d="M385.0840,167.5252L385.0840,166.4676"/>
   <path d="M388.0590,166.4676L382.1090,166.4676"/>
   <path d="M388.4457,208.0251L388.4457,209.1695"/>
   <path d="M385.4707,209.1695L391.4207,209.1695"/>
   <path d="M388.4457,208.0251L388.4457,206.8808"/>
   <path d="M391.4207,206.8808L385.4707,206.8808"/>
   <path d="M391.8075,213.5926L391.8075,214.9026"/>
   <path d="M388.8325,214.9026L394.7825,214.9026"/>
   <path d="M391.8075,213.5926L391.8075,212.2826"/>
   <path d="M394.7825,212.2826L388.8325,212.2826"/>
   <path d="M395.1693,196.6362L395.1693,197.7686"/>
   <path d="M392.1943,197.7686L398.1442,197.7686"/>
   <path d="M395.1693,196.6362L395.1693,195.5038"/>
   <path d="M398.1442,195.5038L392.1943,195.5038"/>
   <path d="M401.8927,250.2156L401.8927,251.3171"/>
   <path d="M398.9178,251.3171L404.8678,251.3171"/>
   <path d="M401.8927,250.2156L401.8927,249.1142"/>
   <path d="M404.8678,249.1142L398.9178,249.1142"/>
   <path d="M408.6163,118.1393L408.6163,120.0798"/>
   <path d="M405.6413,120.0798L411.5913,120.0798"/>
   <path d="M408.6163,118.1393L408.6163,116.1987"/>
   <path d="M411.5913,116.1987L405.6413,116.1987"/>
   <path d="M415.3398,165.3994L415.3398,166.3633"/>
   <path d="M412.3648,166.3633L418.3148,166.3633"/>
   <path d="M415.3398,165.3994L415.3398,164.4356"/>
   <path d="M418.3148,164.4356L412.3648,164.4356"/>
   <path d="M418.7015,150.5835L418.7015,151.7686"/>
   <path d="M415.7265,151.7686L421.6765,151.7686"/>
   <path d="M418.7015,150.5835L418.7015,149.3985"/>
   <path d="M421.6765,149.3985L415.7265,149.3985"/>
   <path d="M425.4250,118.3475L425.4250,120.3208"/>
   <path d="M422.4500,120.3208L428.4000,120.3208"/>
   <path d="M425.4250,118.3475L425.4250,116.3742"/>
   <path d="M428.4000,116.3742L422.4500,116.3742"/>
   <path d="M432.1485,160.6641L432.1485,161.8371"/>
   <path d="M429.1735,161.8371L435.1235,161.8371"/>
   <path d="M432.1485,160.6641L432.1485,159.4912"/>
   <path d="M435.1235,159.4912L429.1735,159.4912"/>
   <path d="M435.5103,175.2557L435.5103,176.3579"/>
   <path d="M432.5353,176.3579L438.4853,176.3579"/>
   <path d="M435.5103,175.2557L435.5103,174.1534"/>
   <path d="M438.4853,174.1534L432.5353,174.1534"/>
   <path d="M438.8720,173.4592L438.8720,174.5809"/>
   <path d="M435.8970,174.5809L441.8470,174.5809"/>
   <path d="M438.8720,173.4592L438.8720,172.3375"/>
   <path d="M441.8470,172.3375L435.8970,172.3375"/>
   <path d="M442.2338,173.7914L442.2338,174.8297"/>
   <path d="M439.2588,174.8297L445.2088,174.8297"/>
   <path d="M442.2338,173.7914L442.2338,172.7531"/>
   <path d="M445.2088,172.7531L439.2588,172.7531"/>
   <path d="M445.5955,170.3264L445.5955,171.4641"/>
   <path d="M442.6205,171.4641L448.5705,171.4641"/>
   <path d="M445.5955,170.3264L445.5955,169.1886"/>
   <path d="M448.5705,169.1886L442.6205,169.1886"/>
   <path d="M448.9573,151.3943L448.9573,152.3946"/>
   <path d="M445.9823,152.3946L451.9323,152.3946"/>
   <path d="M448.9573,151.3943L448.9573,150.3939"/>
   <path d="M451.9323,150.3939L445.9823,150.3939"/>
   <path d="M452.3190,198.9281L452.3190,200.0085"/>
   <path d="M449.3440,200.0085L455.2940,200.0085"/>
   <path d="M452.3190,198.9281L452.3190,197.8476"/>
   <path d="M455.2940,197.8476L449.3440,197.8476"/>
   <path d="M455.6808,219.0216L455.6808,220.0517"/>
   <path d="M452.7058,220.0517L458.6558,220.0517"/>
   <path d="M455.6808,219.0216L455.6808,217.9916"/>
   <path d="M458.6558,217.9916L452.7058,217.9916"/>
   <path d="M459.0425,194.7206L459.0425,195.8146"/>
   <path d="M456.0675,195.8146L462.0175,195.8146"/>
   <path d="M459.0425,194.7206L459.0425,193.6266"/>
   <path d="M462.0175,193.6266L456.0675,193.6266"/>
   <path d="M462.4042,235.9186L462.4042,236.9712"/>
   <path d="M459.4293,236.9712L465.3793,236.9712"/>
   <path d="M462.4042,235.9186L462.4042,234.8660"/>
   <path d="M465.3793,234.8660L459.4293,234.8660"/>
   <path d="M465.7660,214.5587L465.7660,215.5428"/>
   <path d="M462.7910,215.5428L468.7410,215.5428"/>
   <path d="M465.7660,214.5587L465.7660,213.5745"/>
   <path d="M468.7410,213.5745L462.7910,213.5745"/>
   <path d="M469.1278,210.2511L469.1278,211.4315"/>
   <path d="M466.1528,211.4315L472.1028,211.4315"/>
   <path d="M469.1278,210.2511L469.1278,209.0706"/>
   <path d="M472.1028,209.0706L466.1528,209.0706"/>
   <path d="M472.4895,182.9181L472.4895,184.0848"/>
   <path d="M469.5145,184.0848L475.4645,184.0848"/>
   <path d="M472.4895,182.9181L472.4895,181.7514"/>
   <path d="M475.4645,181.7514L469.5145,181.7514"/>
   <path d="M475.8513,295.1213L475.8513,296.2126"/>
   <path d="M472.8763,296.2126L478.8263,296.2126"/>
   <path d="M475.8513,295.1213L475.8513,294.0299"/>
   <path d="M478.8263,294.0299L472.8763,294.0299"/>
   <path d="M479.2130,316.3274L479.2130,317.3861"/>
   <path d="M476.2380,317.3861L482.1880,317.3861"/>
   <path d="M479.2130,316.3274L479.2130,315.2688"/>
   <path d="M482.1880,315.2688L476.2380,315.2688"/>
   <path d="M482.5748,369.2408L482.5748,370.3851"/>
   <path d="M479.5998,370.3851L485.5498,370.3851"/>
   <path d="M482.5748,369.2408L482.5748,368.0964"/>
   <path d="M485.5498,368.0964L479.5998,368.0964"/>
   <path d="M485.9365,314.8024L485.9365,315.9587"/>
   <path d="M482.9615,315.9587L488.9115,315.9587"/>
   <path d="M485.9365,314.8024L485.9365,313.6461"/>
   <path d="M488.9115,313.6461L482.9615,313.6461"/>
   <path d="M489.2982,278.2775L489.2982,279.4038"/>
   <path d="M486.3233,279.4038L492.2733,279.4038"/>
   <path d="M489.2982,278.2775L489.2982,277.1512"/>
   <path d="M492.2733,277.1512L486.3233,277.1512"/>
   <path d="M492.6600,239.2755L492.6600,240.3362"/>
   <path d="M489.6850,240.3362L495.6350,240.3362"/>
   <path d="M492.6600,239.2755L492.6600,238.2148"/>
   <path d="M495.6350,238.2148L489.6850,238.2148"/>
   <path d="M496.0217,232.4991L496.0217,233.5294"/>
   <path d="M493.0467,233.5294L498.9968,233.5294"/>
   <path d="M496.0217,232.4991L496.0217,231.4688"/>
   <path d="M498.9968,231.4688L493.0467,231.4688"/>
   <path d="M499.3835,304.1500L499.3835,305.2928"/>
   <path d="M496.4085,305.2928L502.3585,305.2928"/>
   <path d="M499.3835,304.1500L499.3835,303.0071"/>
   <path d="M502.3585,303.0071L496.4085,303.0071"/>
   <path d="M502.7453,351.1899L502.7453,352.1009"/>
   <path d="M499.7703,352.1009L505.7203,352.1009"/>
   <path d="M502.7453,351.1899L502.7453,350.2789"/>
   <path d="M505.7203,350.2789L499.7703,350.2789"/>
   <path d="M509.4688,365.2420L509.4688,366.1793"/>
   <path d="M506.4938,366.1793L512.4438,366.1793"/>
   <path d="M509.4688,365.2420L509.4688,364.3048"/>
   <path d="M512.4438,364.3048L506.4938,364.3048"/>
   <path d="M516.1923,427.4390L516.1923,428.3689"/>
   <path d="M513.2173,428.3689L519.1673,428.3689"/>
   <path d="M516.1923,427.4390L516.1923,426.5090"/>
   <path d="M519.1673,426.5090L513.2173,426.5090"/>
   <path d="M519.5540,392.5324L519.5540,393.4592"/>
   <path d="M516.5790,393.4592L522.5290,393.4592"/>
   <path d="M519.5540,392.5324L519.5540,391.6056"/>
   <path d="M522.5290,391.6056L516.5790,391.6056"/>
   <path d="M526.2775,229.5215L526.2775,230.5852"/>
   <path d="M523.3025,230.5852L529.2525,230.5852"/>
   <path d="M526.2775,229.5215L526.2775,228.4579"/>
   <path d="M529.2525,228.4579L523.3025,228.4579"/>
   <path d="M529.6392,215.9798L529.6392,217.0384"/>
   <path d="M526.6643,217.0384L532.6142,217.0384"/>
   <path d="M529.6392,215.9798L529.6392,214.9212"/>
   <path d="M532.6142,214.9212L526.6643,214.9212"/>
   <path d="M533.0010,178.8759L533.0010,180.0027"/>
   <path d="M530.0260,180.0027L535.9760,180.0027"/>
   <path d="M533.0010,178.8759L533.0010,177.7491"/>
   <path d="M535.9760,177.7491L530.0260,177.7491"/>
   <path d="M536.3628,266.5596L536.3628,267.6596"/>
   <path d="M533.3877,267.6596L539.3378,267.6596"/>
   <path d="M536.3628,266.5596L536.3628,265.4597"/>
   <path d="M539.3378,265.4597L533.3877,265.4597"/>
   <path d="M539.7245,314.9429L539.7245,316.0507"/>
   <path d="M536.7495,316.0507L542.6995,316.0507"/>
   <path d="M539.7245,314.9429L539.7245,313.8350"/>
   <path d="M542.6995,313.8350L536.7495,313.8350"/>
   <path d="M543.0862,244.9764L543.0862,246.0928"/>
   <path d="M540.1112,246.0928L546.0612,246.0928"/>
   <path d="M543.0862,244.9764L543.0862,243.8599"/>
   <path d="M546.0612,243.8599L540.1112,243.8599"/>
   <path d="M546.4480,311.5068L546.4480,312.5552"/>
   <path d="M543.4730,312.5552L549.4230,312.5552"/>
   <path d="M546.4480,311.5068L546.4480,310.4584"/>
   <path d="M549.4230,310.4584L543.4730,310.4584"/>
   <path d="M549.8098,205.9718L549.8098,207.0258"/>
   <path d="M546.8347,207.0258L552.7848,207.0258"/>
   <path d="M549.8098,205.9718L549.8098,204.9179"/>
   <path d="M552.7848,204.9179L546.8347,204.9179"/>
   <path d="M553.1715,260.9505L553.1715,262.0139"/>
   <path d="M550.1965,262.0139L556.1465,262.0139"/>
   <path d="M553.1715,260.9505L553.1715,259.8870"/>
   <path d="M556.1465,259.8870L550.1965,259.8870"/>
   <path d="M559.8950,310.5953L559.8950,311.6536"/>
   <path d="M556.9200,311.6536L562.8700,311.6536"/>
   <path d="M559.8950,310.5953L559.8950,309.5370"/>
   <path d="M562.8700,309.5370L556.9200,309.5370"/>
   <path d="M566.6185,253.4315L566.6185,254.5536"/>
   <path d="M563.6435,254.5536L569.5935,254.5536"/>
   <path d="M566.6185,253.4315L566.6185,252.3095"/>
   <path d="M569.5935,252.3095L563.6435,252.3095"/>
   <path d="M569.9802,229.7779L569.9802,230.9226"/>
   <path d="M567.0052,230.9226L572.9552,230.9226"/>
   <path d="M569.9802,229.7779L569.9802,228.6332"/>
   <path d="M572.9552,228.6332L567.0052,228.6332"/>
   <path d="M573.3420,277.7444L573.3420,278.8953"/>
   <path d="M570.3670,278.8953L576.3170,278.8953"/>
   <path d="M573.3420,277.7444L573.3420,276.5934"/>
   <path d="M576.3170,276.5934L570.3670,276.5934"/>
   <path d="M580.0655,252.1336L580.0655,253.1963"/>
   <path d="M577.0905,253.1963L583.0405,253.1963"/>
   <path d="M580.0655,252.1336L580.0655,251.0710"/>
   <path d="M583.0405,251.0710L577.0905,251.0710"/>
   <path d="M586.7890,226.2864L586.7890,227.3349"/>
   <path d="M583.8140,227.3349L589.7640,227.3349"/>
   <path d="M586.7890,226.2864L586.7890,225.2378"/>
   <path d="M589.7640,225.2378L583.8140,225.2378"/>
   <path d="M590.1508,157.2893L590.1508,158.4811"/>
   <path d="M587.1757,158.4811L593.1258,158.4811"/>
   <path d="M590.1508,157.2893L590.1508,156.0974"/>
   <path d="M593.1258,156.0974L587.1757,156.0974"/>
   <path d="M593.5125,168.9493L593.5125,170.3542"/>
   <path d="M590.5375,170.3542L596.4875,170.3542"/>
   <path d="M593.5125,168.9493L593.5125,167.5444"/>
   <path d="M596.4875,167.5444L590.5375,167.5444"/>
   <path d="M596.8742,200.1181L596.8742,201.2205"/>
   <path d="M593.8992,201.2205L599.8492,201.2205"/>
   <path d="M596.8742,200.1181L596.8742,199.0158"/>
   <path d="M599.8492,199.0158L593.8992,199.0158"/>
   <path d="M603.5978,198.5115L603.5978,199.5739"/>
   <path d="M600.6228,199.5739L606.5727,199.5739"/>
   <path d="M603.5978,198.5115L603.5978,197.4490"/>
   <path d="M606.5727,197.4490L600.6228,197.4490"/>
   <path d="M606.9595,179.3267L606.9595,180.4800"/>
   <path d="M603.9845,180.4800L609.9345,180.4800"/>
   <path d="M606.9595,179.3267L606.9595,178.1734"/>
   <path d="M609.9345,178.1734L603.9845,178.1734"/>
   <path d="M610.3212,248.0172L610.3212,249.1534"/>
   <path d="M607.3463,249.1534L613.2962,249.1534"/>
   <path d="M610.3212,248.0172L610.3212,246.8811"/>
   <path d="M613.2962,246.8811L607.3463,246.8811"/>
   <path d="M613.6830,259.7483L613.6830,260.9041"/>
   <path d="M610.7080,260.9041L616.6580,260.9041"/>
   <path d="M613.6830,259.7483L613.6830,258.5924"/>
   <path d="M616.6580,258.5924L610.7080,258.5924"/>
   <path d="M617.0448,221.1378L617.0448,222.3050"/>
   <path d="M614.0698,222.3050L620.0197,222.3050"/>
   <path d="M617.0448,221.1378L617.0448,219.9706"/>
   <path d="M620.0197,219.9706L614.0698,219.9706"/>
   <path d="M620.4065,213.9453L620.4065,215.0143"/>
   <path d="M617.4315,215.0143L623.3815,215.0143"/>
   <path d="M620.4065,213.9453L620.4065,212.8763"/>
   <path d="M623.3815,212.8763L617.4315,212.8763"/>
   <path d="M623.7683,273.2162L623.7683,274.2906"/>
   <path d="M620.7933,274.2906L626.7432,274.2906"/>
   <path d="M623.7683,273.2162L623.7683,272.1419"/>
   <path d="M626.7432,272.1419L620.7933,272.1419"/>
   <path d="M627.1300,245.8596L627.1300,246.9242"/>
   <path d="M624.1550,246.9242L630.1050,246.9242"/>
   <path d="M627.1300,245.8596L627.1300,244.7949"/>
   <path d="M630.1050,244.7949L624.1550,244.7949"/>
   <path d="M630.4918,247.1520L630.4918,248.2316"/>
   <path d="M627.5168,248.2316L633.4667,248.2316"/>
   <path d="M630.4918,247.1520L630.4918,246.0724"/>
   <path d="M633.4667,246.0724L627.5168,246.0724"/>
   <path d="M633.8535,328.7652L633.8535,329.8444"/>
   <path d="M630.8785,329.8444L636.8285,329.8444"/>
   <path d="M633.8535,328.7652L633.8535,327.6859"/>
   <path d="M636.8285,327.6859L630.8785,327.6859"/>
   <path d="M640.5770,277.0107L640.5770,278.0732"/>
   <path d="M637.6020,278.0732L643.5520,278.0732"/>
   <path d="M640.5770,277.0107L640.5770,275.9482"/>
   <path d="M643.5520,275.9482L637.6020,275.9482"/>
   <path d="M643.9387,287.0729L643.9387,288.0931"/>
   <path d="M640.9638,288.0931L646.9137,288.0931"/>
   <path d="M643.9387,287.0729L643.9387,286.0526"/>
   <path d="M646.9137,286.0526L640.9638,286.0526"/>
   <ellipse  rx="2.6775" ry="2.6775" cx="102.6970" cy="288.3953"/>
   <ellipse  rx="2.6775" ry="2.6775" cx="106.0587" cy="320.4727"/>
   <ellipse  rx="2.6775" ry="2.6775" cx="109.4205" cy="267.7239"/>
   <ellipse  rx="2.6775" ry="2.6775" cx="112.7822" cy="235.6717"/>
   <ellipse  rx="2.6775" ry="2.6775" cx="116.1440" cy="288.1311"/>
   <ellipse  rx="2.6775" ry="2.6775" cx="129.5910" cy="181.3042"/>
   <ellipse  rx="2.6775" ry="2.6775" cx="132.9527" cy="215.0203"/>
   <ellipse  rx="2.6775" ry="2.6775" cx="136.3145" cy="177.3089"/>
   <ellipse  rx="2.6775" ry="2.6775" cx="139.6762" cy="172.8227"/>
   <ellipse  rx="2.6775" ry="2.6775" cx="143.0380" cy="151.4489"/>
   <ellipse  rx="2.6775" ry="2.6775" cx="146.3997" cy="187.3647"/>
   <ellipse  rx="2.6775" ry="2.6775" cx="156.4850" cy="207.8537"/>
   <ellipse  rx="2.6775" ry="2.6775" cx="159.8467" cy="156.5790"/>
   <ellipse  rx="2.6775" ry="2.6775" cx="163.2085" cy="218.9163"/>
   <ellipse  rx="2.6775" ry="2.6775" cx="169.9320" cy="246.1095"/>
   <ellipse  rx="2.6775" ry="2.6775" cx="173.2937" cy="318.6972"/>
   <ellipse  rx="2.6775" ry="2.6775" cx="176.6555" cy="264.9065"/>
   <ellipse  rx="2.6775" ry="2.6775" cx="180.0172" cy="290.8776"/>
   <ellipse  rx="2.6775" ry="2.6775" cx="183.3790" cy="202.4908"/>
   <ellipse  rx="2.6775" ry="2.6775" cx="186.7407" cy="183.0174"/>
   <ellipse  rx="2.6775" ry="2.6775" cx="190.1025" cy="232.6453"/>
   <ellipse  rx="2.6775" ry="2.6775" cx="196.8260" cy="218.7565"/>
   <ellipse  rx="2.6775" ry="2.6775" cx="200.1877" cy="188.9548"/>
   <ellipse  rx="2.6775" ry="2.6775" cx="203.5495" cy="183.8725"/>
   <ellipse  rx="2.6775" ry="2.6775" cx="206.9112" cy="167.0015"/>
   <ellipse  rx="2.6775" ry="2.6775" cx="210.2730" cy="237.7315"/>
   <ellipse  rx="2.6775" ry="2.6775" cx="216.9965" cy="248.4500"/>
   <ellipse  rx="2.6775" ry="2.6775" cx="220.3582" cy="277.7309"/>
   <ellipse  rx="2.6775" ry="2.6775" cx="223.7200" cy="196.5606"/>
   <ellipse  rx="2.6775" ry="2.6775" cx="227.0817" cy="211.6190"/>
   <ellipse  rx="2.6775" ry="2.6775" cx="240.5287" cy="184.5476"/>
   <ellipse  rx="2.6775" ry="2.6775" cx="243.8905" cy="203.0602"/>
   <ellipse  rx="2.6775" ry="2.6775" cx="247.2522" cy="195.7088"/>
   <ellipse  rx="2.6775" ry="2.6775" cx="250.6140" cy="211.9525"/>
   <ellipse  rx="2.6775" ry="2.6775" cx="253.9758" cy="360.7940"/>
   <ellipse  rx="2.6775" ry="2.6775" cx="257.3375" cy="207.1311"/>
   <ellipse  rx="2.6775" ry="2.6775" cx="260.6993" cy="354.9294"/>
   <ellipse  rx="2.6775" ry="2.6775" cx="264.0610" cy="290.5260"/>
   <ellipse  rx="2.6775" ry="2.6775" cx="274.1463" cy="255.2749"/>
   <ellipse  rx="2.6775" ry="2.6775" cx="277.5080" cy="263.4407"/>
   <ellipse  rx="2.6775" ry="2.6775" cx="280.8697" cy="313.6567"/>
   <ellipse  rx="2.6775" ry="2.6775" cx="284.2315" cy="202.3699"/>
   <ellipse  rx="2.6775" ry="2.6775" cx="287.5933" cy="232.0816"/>
   <ellipse  rx="2.6775" ry="2.6775" cx="290.9550" cy="199.7553"/>
   <ellipse  rx="2.6775" ry="2.6775" cx="294.3168" cy="245.0647"/>
   <ellipse  rx="2.6775" ry="2.6775" cx="297.6785" cy="224.2874"/>
   <ellipse  rx="2.6775" ry="2.6775" cx="301.0403" cy="215.0355"/>
   <ellipse  rx="2.6775" ry="2.6775" cx="304.4020" cy="207.7056"/>
   <ellipse  rx="2.6775" ry="2.6775" cx="307.7638" cy="172.8937"/>
   <ellipse  rx="2.6775" ry="2.6775" cx="314.4872" cy="228.8905"/>
   <ellipse  rx="2.6775" ry="2.6775" cx="317.8490" cy="150.6408"/>
   <ellipse  rx="2.6775" ry="2.6775" cx="321.2107" cy="167.7444"/>
   <ellipse  rx="2.6775" ry="2.6775" cx="324.5725" cy="352.2732"/>
   <ellipse  rx="2.6775" ry="2.6775" cx="327.9342" cy="271.8165"/>
   <ellipse  rx="2.6775" ry="2.6775" cx="331.2960" cy="345.7942"/>
   <ellipse  rx="2.6775" ry="2.6775" cx="334.6577" cy="179.2647"/>
   <ellipse  rx="2.6775" ry="2.6775" cx="338.0195" cy="281.9270"/>
   <ellipse  rx="2.6775" ry="2.6775" cx="341.3812" cy="301.5812"/>
   <ellipse  rx="2.6775" ry="2.6775" cx="344.7430" cy="213.9026"/>
   <ellipse  rx="2.6775" ry="2.6775" cx="351.4665" cy="334.8361"/>
   <ellipse  rx="2.6775" ry="2.6775" cx="354.8282" cy="177.6358"/>
   <ellipse  rx="2.6775" ry="2.6775" cx="358.1900" cy="167.3324"/>
   <ellipse  rx="2.6775" ry="2.6775" cx="361.5517" cy="210.1361"/>
   <ellipse  rx="2.6775" ry="2.6775" cx="368.2753" cy="188.6136"/>
   <ellipse  rx="2.6775" ry="2.6775" cx="371.6370" cy="169.6890"/>
   <ellipse  rx="2.6775" ry="2.6775" cx="381.7222" cy="140.9599"/>
   <ellipse  rx="2.6775" ry="2.6775" cx="385.0840" cy="167.5252"/>
   <ellipse  rx="2.6775" ry="2.6775" cx="388.4457" cy="208.0251"/>
   <ellipse  rx="2.6775" ry="2.6775" cx="391.8075" cy="213.5926"/>
   <ellipse  rx="2.6775" ry="2.6775" cx="395.1693" cy="196.6362"/>
   <ellipse  rx="2.6775" ry="2.6775" cx="401.8927" cy="250.2156"/>
   <ellipse  rx="2.6775" ry="2.6775" cx="408.6163" cy="118.1393"/>
   <ellipse  rx="2.6775" ry="2.6775" cx="415.3398" cy="165.3994"/>
   <ellipse  rx="2.6775" ry="2.6775" cx="418.7015" cy="150.5835"/>
   <ellipse  rx="2.6775" ry="2.6775" cx="425.4250" cy="118.3475"/>
   <ellipse  rx="2.6775" ry="2.6775" cx="432.1485" cy="160.6641"/>
   <ellipse  rx="2.6775" ry="2.6775" cx="435.5103" cy="175.2557"/>
   <ellipse  rx="2.6775" ry="2.6775" cx="438.8720" cy="173.4592"/>
   <ellipse  rx="2.6775" ry="2.6775" cx="442.2338" cy="173.7914"/>
   <ellipse  rx="2.6775" ry="2.6775" cx="445.5955" cy="170.3264"/>
   <ellipse  rx="2.6775" ry="2.6775" cx="448.9573" cy="151.3943"/>
   <ellipse  rx="2.6775" ry="2.6775" cx="452.3190" cy="198.9281"/>
   <ellipse  rx="2.6775" ry="2.6775" cx="455.6808" cy="219.0216"/>
   <ellipse  rx="2.6775" ry="2.6775" cx="459.0425" cy="194.7206"/>
   <ellipse  rx="2.6775" ry="2.6775" cx="462.4042" cy="235.9186"/>
   <ellipse  rx="2.6775" ry="2.6775" cx="465.7660" cy="214.5587"/>
   <ellipse  rx="2.6775" ry="2.6775" cx="469.1278" cy="210.2511"/>
   <ellipse  rx="2.6775" ry="2.6775" cx="472.4895" cy="182.9181"/>
   <ellipse  rx="2.6775" ry="2.6775" cx="475.8513" cy="295.1213"/>
   <ellipse  rx="2.6775" ry="2.6775" cx="479.2130" cy="316.3274"/>
   <ellipse  rx="2.6775" ry="2.6775" cx="482.5748" cy="369.2408"/>
   <ellipse  rx="2.6775" ry="2.6775" cx="485.9365" cy="314.8024"/>
   <ellipse  rx="2.6775" ry="2.6775" cx="489.2982" cy="278.2775"/>
   <ellipse  rx="2.6775" ry="2.6775" cx="492.6600" cy="239.2755"/>
   <ellipse  rx="2.6775" ry="2.6775" cx="496.0217" cy="232.4991"/>
   <ellipse  rx="2.6775" ry="2.6775" cx="499.3835" cy="304.1500"/>
   <ellipse  rx="2.6775" ry="2.6775" cx="502.7453" cy="351.1899"/>
   <ellipse  rx="2.6775" ry="2.6775" cx="509.4688" cy="365.2420"/>
   <ellipse  rx="2.6775" ry="2.6775" cx="516.1923" cy="427.4390"/>
   <ellipse  rx="2.6775" ry="2.6775" cx="519.5540" cy="392.5324"/>
   <ellipse  rx="2.6775" ry="2.6775" cx="526.2775" cy="229.5215"/>
   <ellipse  rx="2.6775" ry="2.6775" cx="529.6392" cy="215.9798"/>
   <ellipse  rx="2.6775" ry="2.6775" cx="533.0010" cy="178.8759"/>
   <ellipse  rx="2.6775" ry="2.6775" cx="536.3628" cy="266.5596"/>
   <ellipse  rx="2.6775" ry="2.6775" cx="539.7245" cy="314.9429"/>
   <ellipse  rx="2.6775" ry="2.6775" cx="543.0862" cy="244.9764"/>
   <ellipse  rx="2.6775" ry="2.6775" cx="546.4480" cy="311.5068"/>
   <ellipse  rx="2.6775" ry="2.6775" cx="549.8098" cy="205.9718"/>
   <ellipse  rx="2.6775" ry="2.6775" cx="553.1715" cy="260.9505"/>
   <ellipse  rx="2.6775" ry="2.6775" cx="559.8950" cy="310.5953"/>
   <ellipse  rx="2.6775" ry="2.6775" cx="566.6185" cy="253.4315"/>
   <ellipse  rx="2.6775" ry="2.6775" cx="569.9802" cy="229.7779"/>
   <ellipse  rx="2.6775" ry="2.6775" cx="573.3420" cy="277.7444"/>
   <ellipse  rx="2.6775" ry="2.6775" cx="580.0655" cy="252.1336"/>
   <ellipse  rx="2.6775" ry="2.6775" cx="586.7890" cy="226.2864"/>
   <ellipse  rx="2.6775" ry="2.6775" cx="590.1508" cy="157.2893"/>
   <ellipse  rx="2.6775" ry="2.6775" cx="593.5125" cy="168.9493"/>
   <ellipse  rx="2.6775" ry="2.6775" cx="596.8742" cy="200.1181"/>
   <ellipse  rx="2.6775" ry="2.6775" cx="603.5978" cy="198.5115"/>
   <ellipse  rx="2.6775" ry="2.6775" cx="606.9595" cy="179.3267"/>
   <ellipse  rx="2.6775" ry="2.6775" cx="610.3212" cy="248.0172"/>
   <ellipse  rx="2.6775" ry="2.6775" cx="613.6830" cy="259.7483"/>
   <ellipse  rx="2.6775" ry="2.6775" cx="617.0448" cy="221.1378"/>
   <ellipse  rx="2.6775" ry="2.6775" cx="620.4065" cy="213.9453"/>
   <ellipse  rx="2.6775" ry="2.6775" cx="623.7683" cy="273.2162"/>
   <ellipse  rx="2.6775" ry="2.6775" cx="627.1300" cy="245.8596"/>
   <ellipse  rx="2.6775" ry="2.6775" cx="630.4918" cy="247.1520"/>
   <ellipse  rx="2.6775" ry="2.6775" cx="633.8535" cy="328.7652"/>
   <ellipse  rx="2.6775" ry="2.6775" cx="640.5770" cy="277.0107"/>
   <ellipse  rx="2.6775" ry="2.6775" cx="643.9387" cy="287.0729"/>
  </g>
  <g style="fill:none; stroke:#FF0000; stroke-width:  0.8925; stroke-linecap:butt; stroke-linejoin:miter; stroke-dasharray:none">
   <path d="M223.7200,488.1790L354.8282,269.4366L411.9780,338.2974L425.4250,313.5652L448.9573,177.4612L539.7245,428.9500L546.4480,313.2144"/>
  </g>
  <g style="fill:none; stroke:#FF0000; stroke-width:  0.4463; stroke-linecap:butt; stroke-linejoin:miter; stroke-dasharray:none">
   <path d="M223.7200,488.1790L223.7200,489.0954"/>
   <path d="M220.7450,489.0954L226.6950,489.0954"/>
   <path d="M223.7200,488.1790L223.7200,487.2626"/>
   <path d="M226.6950,487.2626L220.7450,487.2626"/>
   <path d="M354.8282,269.4366L354.8282,270.4176"/>
   <path d="M351.8532,270.4176L357.8032,270.4176"/>
   <path d="M354.8282,269.4366L354.8282,268.4557"/>
   <path d="M357.8032,268.4557L351.8532,268.4557"/>
   <path d="M411.9780,338.2974L411.9780,339.1958"/>
   <path d="M409.0030,339.1958L414.9530,339.1958"/>
   <path d="M411.9780,338.2974L411.9780,337.3990"/>
   <path d="M414.9530,337.3990L409.0030,337.3990"/>
   <path d="M425.4250,313.5652L425.4250,314.4735"/>
   <path d="M422.4500,314.4735L428.4000,314.4735"/>
   <path d="M425.4250,313.5652L425.4250,312.6569"/>
   <path d="M428.4000,312.6569L422.4500,312.6569"/>
   <path d="M448.9573,177.4612L448.9573,178.5260"/>
   <path d="M445.9823,178.5260L451.9323,178.5260"/>
   <path d="M448.9573,177.4612L448.9573,176.3965"/>
   <path d="M451.9323,176.3965L445.9823,176.3965"/>
   <path d="M539.7245,428.9500L539.7245,429.9658"/>
   <path d="M536.7495,429.9658L542.6995,429.9658"/>
   <path d="M539.7245,428.9500L539.7245,427.9341"/>
   <path d="M542.6995,427.9341L536.7495,427.9341"/>
   <path d="M546.4480,313.2144L546.4480,314.2324"/>
   <path d="M543.4730,314.2324L549.4230,314.2324"/>
   <path d="M546.4480,313.2144L546.4480,312.1965"/>
   <path d="M549.4230,312.1965L543.4730,312.1965"/>
   <path d="M221.4441,485.9031L221.4441,490.4549L225.9959,490.4549L225.9959,485.9031z"/>
   <path d="M352.5524,267.1608L352.5524,271.7125L357.1041,271.7125L357.1041,267.1608z"/>
   <path d="M409.7021,336.0215L409.7021,340.5733L414.2539,340.5733L414.2539,336.0215z"/>
   <path d="M423.1491,311.2894L423.1491,315.8411L427.7009,315.8411L427.7009,311.2894z"/>
   <path d="M446.6814,175.1854L446.6814,179.7371L451.2331,179.7371L451.2331,175.1854z"/>
   <path d="M537.4486,426.6741L537.4486,431.2258L542.0004,431.2258L542.0004,426.6741z"/>
   <path d="M544.1721,310.9386L544.1721,315.4903L548.7239,315.4903L548.7239,310.9386z"/>
  </g>
  <g style="fill:none; stroke:#000000; stroke-width:  0.8925; stroke-linecap:butt; stroke-linejoin:miter; stroke-dasharray:none">
   <path d="M89.2500,89.2500L761.6000,89.2500"/>
   <path d="M89.2500,505.7500L761.6000,505.7500"/>
  </g>
  <g style="fill:none; stroke:#000000; stroke-width:  0.4463; stroke-linecap:butt; stroke-linejoin:miter; stroke-dasharray:none">
   <path d="M173.2937,89.2500L173.2937,92.2250"/>
   <path d="M173.2937,505.7500L173.2937,502.7750"/>
   <path d="M341.3812,89.2500L341.3812,92.2250"/>
   <path d="M341.3812,505.7500L341.3812,502.7750"/>
   <path d="M509.4688,89.2500L509.4688,92.2250"/>
   <path d="M509.4688,505.7500L509.4688,502.7750"/>
   <path d="M677.5562,89.2500L677.5562,92.2250"/>
   <path d="M677.5562,505.7500L677.5562,502.7750"/>
   <path d="M89.2500,89.2500L89.2500,95.2000"/>
   <path d="M89.2500,505.7500L89.2500,499.8000"/>
   <path d="M257.3375,89.2500L257.3375,95.2000"/>
   <path d="M257.3375,505.7500L257.3375,499.8000"/>
   <path d="M425.4250,89.2500L425.4250,95.2000"/>
   <path d="M425.4250,505.7500L425.4250,499.8000"/>
   <path d="M593.5125,89.2500L593.5125,95.2000"/>
   <path d="M593.5125,505.7500L593.5125,499.8000"/>
   <path d="M761.6000,89.2500L761.6000,95.2000"/>
   <path d="M761.6000,505.7500L761.6000,499.8000"/>
  </g>
  <g style="fill:#000000; fill-rule:nonzero">
   <text   style="font-family:'Times','Nimbus Roman No9 L'; font-style:normal; font-weight:normal; font-size:595.0000" transform="matrix(0.0196,0.0000,-0.0000,-0.0196,86.7500,75.3000)">0</text>
   <text   style="font-family:'Times','Nimbus Roman No9 L'; font-style:normal; font-weight:normal; font-size:595.0000" transform="matrix(0.0196,0.0000,-0.0000,-0.0196,251.8375,75.3000)">50</text>
   <text   style="font-family:'Times','Nimbus Roman No9 L'; font-style:normal; font-weight:normal; font-size:595.0000" transform="matrix(0.0196,0.0000,-0.0000,-0.0196,416.9250,75.3000)">100</text>
   <text   style="font-family:'Times','Nimbus Roman No9 L'; font-style:normal; font-weight:normal; font-size:595.0000" transform="matrix(0.0196,0.0000,-0.0000,-0.0196,585.0125,75.3000)">150</text>
   <text   style="font-family:'Times','Nimbus Roman No9 L'; font-style:normal; font-weight:normal; font-size:595.0000" transform="matrix(0.0196,0.0000,-0.0000,-0.0196,753.1000,75.3000)">200</text>
   <text   style="font-family:'Times','Nimbus Roman No9 L'; font-style:normal; font-weight:normal; font-size:595.0000" transform="matrix(0.0280,0.0000,-0.0000,-0.0280,370.9250,58.3500)">Residue number</text>
  </g>
  <g style="fill:none; stroke:#000000; stroke-width:  0.8925; stroke-linecap:butt; stroke-linejoin:miter; stroke-dasharray:none">
   <path d="M89.2500,89.2500L89.2500,505.7500"/>
   <path d="M761.6000,89.2500L761.6000,505.7500"/>
  </g>
  <g style="fill:none; stroke:#000000; stroke-width:  0.4463; stroke-linecap:butt; stroke-linejoin:miter; stroke-dasharray:none">
   <path d="M89.2500,130.9000L92.2250,130.9000"/>
   <path d="M761.6000,130.9000L758.6250,130.9000"/>
   <path d="M89.2500,214.2000L92.2250,214.2000"/>
   <path d="M761.6000,214.2000L758.6250,214.2000"/>
   <path d="M89.2500,297.5000L92.2250,297.5000"/>
   <path d="M761.6000,297.5000L758.6250,297.5000"/>
   <path d="M89.2500,380.8000L92.2250,380.8000"/>
   <path d="M761.6000,380.8000L758.6250,380.8000"/>
   <path d="M89.2500,464.1000L92.2250,464.1000"/>
   <path d="M761.6000,464.1000L758.6250,464.1000"/>
   <path d="M89.2500,89.2500L95.2000,89.2500"/>
   <path d="M761.6000,89.2500L755.6500,89.2500"/>
   <path d="M89.2500,172.5500L95.2000,172.5500"/>
   <path d="M761.6000,172.5500L755.6500,172.5500"/>
   <path d="M89.2500,255.8500L95.2000,255.8500"/>
   <path d="M761.6000,255.8500L755.6500,255.8500"/>
   <path d="M89.2500,339.1500L95.2000,339.1500"/>
   <path d="M761.6000,339.1500L755.6500,339.1500"/>
   <path d="M89.2500,422.4500L95.2000,422.4500"/>
   <path d="M761.6000,422.4500L755.6500,422.4500"/>
   <path d="M89.2500,505.7500L95.2000,505.7500"/>
   <path d="M761.6000,505.7500L755.6500,505.7500"/>
  </g>
  <g style="fill:#000000; fill-rule:nonzero">
   <text   style="font-family:'Times','Nimbus Roman No9 L'; font-style:normal; font-weight:normal; font-size:595.0000" transform="matrix(0.0196,0.0000,-0.0000,-0.0196,78.3000,85.2500)">0</text>
   <text   style="font-family:'Times','Nimbus Roman No9 L'; font-style:normal; font-weight:normal; font-size:595.0000" transform="matrix(0.0196,0.0000,-0.0000,-0.0196,55.3000,168.5500)">2e+05</text>
   <text   style="font-family:'Times','Nimbus Roman No9 L'; font-style:normal; font-weight:normal; font-size:595.0000" transform="matrix(0.0196,0.0000,-0.0000,-0.0196,55.3000,251.8500)">4e+05</text>
   <text   style="font-family:'Times','Nimbus Roman No9 L'; font-style:normal; font-weight:normal; font-size:595.0000" transform="matrix(0.0196,0.0000,-0.0000,-0.0196,55.3000,335.1500)">6e+05</text>
   <text   style="font-family:'Times','Nimbus Roman No9 L'; font-style:normal; font-weight:normal; font-size:595.0000" transform="matrix(0.0196,0.0000,-0.0000,-0.0196,55.3000,418.4500)">8e+05</text>
   <text   style="font-family:'Times','Nimbus Roman No9 L'; font-style:normal; font-weight:normal; font-size:595.0000" transform="matrix(0.0196,0.0000,-0.0000,-0.0196,55.3000,501.7500)">1e+06</text>
   <text   style="font-family:'Times','Nimbus Roman No9 L'; font-style:normal; font-weight:normal; font-size:595.0000" transform="matrix(0.0000,0.0280,0.0280,-0.0070,42.6860,291.8330)">I</text>
   <text   style="font-family:'Times','Nimbus Roman No9 L'; font-style:normal; font-weight:normal; font-size:595.0000" transform="matrix(0.0000,0.0198,0.0198,-0.0049,49.3500,296.1670)">0</text>
  </g>
  <g style="fill:none; stroke:#000000; stroke-width:  0.4463; stroke-linecap:butt; stroke-linejoin:miter; stroke-dasharray:none">
   <path d="M89.2500,89.2500L89.2500,505.7500L761.6000,505.7500L761.6000,89.2500z"/>
  </g>
  <g style="fill:#FFFFFF; fill-rule:nonzero">
   <path  d="M505.7500,476.0000L505.7500,428.1500L620.9781,428.1500L620.9781,476.0000z"/>
  </g>
  <g style="fill:none; stroke:#000000; stroke-width:  0.8925; stroke-linecap:butt; stroke-linejoin:miter; stroke-dasharray:none">
   <path d="M505.7500,476.0000L505.7500,428.1500L620.9781,428.1500L620.9781,476.0000z"/>
  </g>
  <g style="fill:#000000; fill-rule:nonzero">
   <text   style="font-family:'Times','Nimbus Roman No9 L'; font-style:normal; font-weight:normal; font-size:595.0000" transform="matrix(0.0280,0.0000,-0.0000,-0.0280,547.0281,459.0500)">N spins</text>
  </g>
  <g style="fill:none; stroke:#000000; stroke-width:  0.8925; stroke-linecap:butt; stroke-linejoin:miter; stroke-dasharray:none">
   <path d="M514.6006,462.5500L538.4006,462.5500"/>
  </g>
  <g style="fill:none; stroke:#000000; stroke-width:  0.4463; stroke-linecap:butt; stroke-linejoin:miter; stroke-dasharray:none">
   <ellipse  rx="2.6775" ry="2.6775" cx="514.6006" cy="462.5500"/>
   <ellipse  rx="2.6775" ry="2.6775" cx="538.4006" cy="462.5500"/>
  </g>
  <g style="fill:#000000; fill-rule:nonzero">
   <text   style="font-family:'Times','Nimbus Roman No9 L'; font-style:normal; font-weight:normal; font-size:595.0000" transform="matrix(0.0280,0.0000,-0.0000,-0.0280,547.0281,438.1000)">NE1 spins</text>
  </g>
  <g style="fill:none; stroke:#FF0000; stroke-width:  0.8925; stroke-linecap:butt; stroke-linejoin:miter; stroke-dasharray:none">
   <path d="M514.6006,441.6000L538.4006,441.6000"/>
  </g>
  <g style="fill:none; stroke:#FF0000; stroke-width:  0.4463; stroke-linecap:butt; stroke-linejoin:miter; stroke-dasharray:none">
   <path d="M512.3247,439.3241L512.3247,443.8759L516.8765,443.8759L516.8765,439.3241z"/>
   <path d="M536.1248,439.3241L536.1248,443.8759L540.6765,443.8759L540.6765,439.3241z"/>
  </g>
 </g>
</svg>
