<?xml version="1.0" encoding="ISO-8859-1"?>
<!DOCTYPE svg PUBLIC "-//W3C//DTD SVG 1.0//EN" "http://www.w3.org/TR/2001/REC-SVG-20010904/DTD/svg10.dtd">
<!-- generated by Grace-5.1.22 -->
<svg xml:space="preserve" width="11.6944in" height="8.2639in" viewBox="0.0000 0.0000 842.0000 595.0000">
 <g transform="translate(0,595.0000) scale(1,-1)">
  <g style="fill:#FFFFFF; fill-rule:nonzero">
   <path  d="M0.0000,0.0000L0.0000,595.0000L842.0000,595.0000L842.0000,0.0000z"/>
  </g>
  <g style="fill:none; stroke:#000000; stroke-width:  0.8925; stroke-linecap:butt; stroke-linejoin:miter; stroke-dasharray:none">
   <path d="M102.6970,93.4538L106.0587,99.4810L109.4205,118.6236L112.7822,147.2415L116.1440,162.4205L129.5910,201.2952L132.9527,262.5265L136.3145,224.5952L139.6762,266.9598L143.0380,266.3177
            L146.3997,255.7395L156.4850,237.1814L159.8467,246.0705L163.2085,229.7792L169.9320,216.6764L173.2937,217.2397L176.6555,218.0157L180.0172,227.9883L183.3790,233.5823L186.7407,222.8562
            L190.1025,268.2393L196.8260,255.5636L200.1877,219.8007L203.5495,275.9718L206.9112,266.7710L210.2730,274.3682L216.9965,247.6130L220.3582,207.4132L223.7200,189.1447L227.0817,245.7231
            L240.5287,289.8414L243.8905,213.2821L247.2522,219.2413L250.6140,255.5041L253.9758,199.9474L257.3375,173.2450L260.6993,226.7421L264.0610,193.3514L274.1463,224.9259L277.5080,233.4475
            L280.8697,245.4698L284.2315,238.1232L287.5933,256.5110L290.9550,263.8446L294.3168,253.1862L297.6785,243.4634L301.0403,256.7470L304.4020,230.3966L307.7638,238.8819L314.4872,245.0558
            L317.8490,238.4104L321.2107,201.5573L324.5725,193.4522L327.9342,211.6287L331.2960,186.0494L334.6577,213.1571L338.0195,230.9092L341.3812,223.6903L344.7430,210.7546L351.4665,152.7050
            L354.8282,241.9282L358.1900,221.3537L361.5517,219.5210L368.2753,298.9278L371.6370,230.6033L381.7222,324.2874L385.0840,230.1573L388.4457,269.5581L391.8075,304.0224L395.1693,221.8835
            L401.8927,223.1683L408.6163,464.3256L415.3398,190.1377L418.7015,253.8800L425.4250,495.0579L432.1485,271.4958L435.5103,249.9099L438.8720,245.7760L442.2338,228.1575L445.5955,256.1277
            L448.9573,198.2879L452.3190,234.8081L455.6808,228.0998L459.0425,226.3175L462.4042,219.2401L465.7660,206.3960L469.1278,244.9610L472.4895,231.1427L475.8513,212.5277L479.2130,219.6575
            L482.5748,259.6784L485.9365,251.4473L489.2982,256.9085L492.6600,214.2748L496.0217,214.2315L499.3835,249.7168L502.7453,173.2043L509.4688,143.0189L516.1923,163.6836L519.5540,160.8543
            L526.2775,204.5207L529.6392,230.1365L533.0010,252.6201L536.3628,218.3226L539.7245,251.6765L543.0862,241.7323L546.4480,213.6463L549.8098,232.3244L553.1715,215.0110L559.8950,225.8496
            L566.6185,254.5052L569.9802,262.9866L573.3420,259.1567L580.0655,234.2148L586.7890,219.2414L590.1508,268.9933L593.5125,328.1302L596.8742,249.6362L603.5978,217.7970L606.9595,254.0150
            L610.3212,251.0284L613.6830,254.9019L617.0448,250.5956L620.4065,250.6439L623.7683,229.8760L627.1300,231.1364L630.4918,235.2647L633.8535,237.3066L640.5770,231.0651L643.9387,208.8566"/>
  </g>
  <g style="fill:none; stroke:#000000; stroke-width:  0.4463; stroke-linecap:butt; stroke-linejoin:miter; stroke-dasharray:none">
   <path d="M102.6970,93.4538L102.6970,94.7079"/>
   <path d="M99.7220,94.7079L105.6720,94.7079"/>
   <path d="M102.6970,93.4538L102.6970,92.1996"/>
   <path d="M105.6720,92.1996L99.7220,92.1996"/>
   <path d="M106.0587,99.4810L106.0587,100.6387"/>
   <path d="M103.0837,100.6387L109.0337,100.6387"/>
   <path d="M106.0587,99.4810L106.0587,98.3233"/>
   <path d="M109.0337,98.3233L103.0837,98.3233"/>
   <path d="M109.4205,118.6236L109.4205,120.3356"/>
   <path d="M106.4455,120.3356L112.3955,120.3356"/>
   <path d="M109.4205,118.6236L109.4205,116.9115"/>
   <path d="M112.3955,116.9115L106.4455,116.9115"/>
   <path d="M112.7822,147.2415L112.7822,149.8568"/>
   <path d="M109.8072,149.8568L115.7572,149.8568"/>
   <path d="M112.7822,147.2415L112.7822,144.6263"/>
   <path d="M115.7572,144.6263L109.8072,144.6263"/>
   <path d="M116.1440,162.4205L116.1440,164.3656"/>
   <path d="M113.1690,164.3656L119.1190,164.3656"/>
   <path d="M116.1440,162.4205L116.1440,160.4753"/>
   <path d="M119.1190,160.4753L113.1690,160.4753"/>
   <path d="M129.5910,201.2952L129.5910,206.4830"/>
   <path d="M126.6160,206.4830L132.5660,206.4830"/>
   <path d="M129.5910,201.2952L129.5910,196.1075"/>
   <path d="M132.5660,196.1075L126.6160,196.1075"/>
   <path d="M132.9527,262.5265L132.9527,267.8077"/>
   <path d="M129.9777,267.8077L135.9277,267.8077"/>
   <path d="M132.9527,262.5265L132.9527,257.2453"/>
   <path d="M135.9277,257.2453L129.9777,257.2453"/>
   <path d="M136.3145,224.5952L136.3145,230.9836"/>
   <path d="M133.3395,230.9836L139.2895,230.9836"/>
   <path d="M136.3145,224.5952L136.3145,218.2068"/>
   <path d="M139.2895,218.2068L133.3395,218.2068"/>
   <path d="M139.6762,266.9598L139.6762,274.8503"/>
   <path d="M136.7012,274.8503L142.6512,274.8503"/>
   <path d="M139.6762,266.9598L139.6762,259.0693"/>
   <path d="M142.6512,259.0693L136.7012,259.0693"/>
   <path d="M143.0380,266.3177L143.0380,276.4374"/>
   <path d="M140.0630,276.4374L146.0130,276.4374"/>
   <path d="M143.0380,266.3177L143.0380,256.1980"/>
   <path d="M146.0130,256.1980L140.0630,256.1980"/>
   <path d="M146.3997,255.7395L146.3997,262.3127"/>
   <path d="M143.4247,262.3127L149.3747,262.3127"/>
   <path d="M146.3997,255.7395L146.3997,249.1663"/>
   <path d="M149.3747,249.1663L143.4247,249.1663"/>
   <path d="M156.4850,237.1814L156.4850,242.0183"/>
   <path d="M153.5100,242.0183L159.4600,242.0183"/>
   <path d="M156.4850,237.1814L156.4850,232.3444"/>
   <path d="M159.4600,232.3444L153.5100,232.3444"/>
   <path d="M159.8467,246.0705L159.8467,254.5645"/>
   <path d="M156.8717,254.5645L162.8217,254.5645"/>
   <path d="M159.8467,246.0705L159.8467,237.5766"/>
   <path d="M162.8217,237.5766L156.8717,237.5766"/>
   <path d="M163.2085,229.7792L163.2085,234.2507"/>
   <path d="M160.2335,234.2507L166.1835,234.2507"/>
   <path d="M163.2085,229.7792L163.2085,225.3078"/>
   <path d="M166.1835,225.3078L160.2335,225.3078"/>
   <path d="M169.9320,216.6764L169.9320,219.9046"/>
   <path d="M166.9570,219.9046L172.9070,219.9046"/>
   <path d="M169.9320,216.6764L169.9320,213.4483"/>
   <path d="M172.9070,213.4483L166.9570,213.4483"/>
   <path d="M173.2937,217.2397L173.2937,219.3778"/>
   <path d="M170.3187,219.3778L176.2687,219.3778"/>
   <path d="M173.2937,217.2397L173.2937,215.1015"/>
   <path d="M176.2687,215.1015L170.3187,215.1015"/>
   <path d="M176.6555,218.0157L176.6555,220.9395"/>
   <path d="M173.6805,220.9395L179.6305,220.9395"/>
   <path d="M176.6555,218.0157L176.6555,215.0918"/>
   <path d="M179.6305,215.0918L173.6805,215.0918"/>
   <path d="M180.0172,227.9883L180.0172,230.6296"/>
   <path d="M177.0422,230.6296L182.9922,230.6296"/>
   <path d="M180.0172,227.9883L180.0172,225.3471"/>
   <path d="M182.9922,225.3471L177.0422,225.3471"/>
   <path d="M183.3790,233.5823L183.3790,238.7112"/>
   <path d="M180.4040,238.7112L186.3540,238.7112"/>
   <path d="M183.3790,233.5823L183.3790,228.4533"/>
   <path d="M186.3540,228.4533L180.4040,228.4533"/>
   <path d="M186.7407,222.8562L186.7407,229.0632"/>
   <path d="M183.7657,229.0632L189.7157,229.0632"/>
   <path d="M186.7407,222.8562L186.7407,216.6492"/>
   <path d="M189.7157,216.6492L183.7657,216.6492"/>
   <path d="M190.1025,268.2393L190.1025,273.0216"/>
   <path d="M187.1275,273.0216L193.0775,273.0216"/>
   <path d="M190.1025,268.2393L190.1025,263.4570"/>
   <path d="M193.0775,263.4570L187.1275,263.4570"/>
   <path d="M196.8260,255.5636L196.8260,260.4647"/>
   <path d="M193.8510,260.4647L199.8010,260.4647"/>
   <path d="M196.8260,255.5636L196.8260,250.6624"/>
   <path d="M199.8010,250.6624L193.8510,250.6624"/>
   <path d="M200.1877,219.8007L200.1877,225.0230"/>
   <path d="M197.2127,225.0230L203.1627,225.0230"/>
   <path d="M200.1877,219.8007L200.1877,214.5784"/>
   <path d="M203.1627,214.5784L197.2127,214.5784"/>
   <path d="M203.5495,275.9718L203.5495,282.9740"/>
   <path d="M200.5745,282.9740L206.5245,282.9740"/>
   <path d="M203.5495,275.9718L203.5495,268.9696"/>
   <path d="M206.5245,268.9696L200.5745,268.9696"/>
   <path d="M206.9112,266.7710L206.9112,275.1807"/>
   <path d="M203.9362,275.1807L209.8862,275.1807"/>
   <path d="M206.9112,266.7710L206.9112,258.3613"/>
   <path d="M209.8862,258.3613L203.9362,258.3613"/>
   <path d="M210.2730,274.3682L210.2730,279.2288"/>
   <path d="M207.2980,279.2288L213.2480,279.2288"/>
   <path d="M210.2730,274.3682L210.2730,269.5077"/>
   <path d="M213.2480,269.5077L207.2980,269.5077"/>
   <path d="M216.9965,247.6130L216.9965,251.3707"/>
   <path d="M214.0215,251.3707L219.9715,251.3707"/>
   <path d="M216.9965,247.6130L216.9965,243.8552"/>
   <path d="M219.9715,243.8552L214.0215,243.8552"/>
   <path d="M220.3582,207.4132L220.3582,210.0417"/>
   <path d="M217.3832,210.0417L223.3332,210.0417"/>
   <path d="M220.3582,207.4132L220.3582,204.7847"/>
   <path d="M223.3332,204.7847L217.3832,204.7847"/>
   <path d="M223.7200,189.1447L223.7200,193.4779"/>
   <path d="M220.7450,193.4779L226.6950,193.4779"/>
   <path d="M223.7200,189.1447L223.7200,184.8115"/>
   <path d="M226.6950,184.8115L220.7450,184.8115"/>
   <path d="M227.0817,245.7231L227.0817,250.6725"/>
   <path d="M224.1067,250.6725L230.0567,250.6725"/>
   <path d="M227.0817,245.7231L227.0817,240.7738"/>
   <path d="M230.0567,240.7738L224.1067,240.7738"/>
   <path d="M240.5287,289.8414L240.5287,297.2720"/>
   <path d="M237.5537,297.2720L243.5037,297.2720"/>
   <path d="M240.5287,289.8414L240.5287,282.4108"/>
   <path d="M243.5037,282.4108L237.5537,282.4108"/>
   <path d="M243.8905,213.2821L243.8905,217.9465"/>
   <path d="M240.9155,217.9465L246.8655,217.9465"/>
   <path d="M243.8905,213.2821L243.8905,208.6176"/>
   <path d="M246.8655,208.6176L240.9155,208.6176"/>
   <path d="M247.2522,219.2413L247.2522,224.2310"/>
   <path d="M244.2772,224.2310L250.2272,224.2310"/>
   <path d="M247.2522,219.2413L247.2522,214.2517"/>
   <path d="M250.2272,214.2517L244.2772,214.2517"/>
   <path d="M250.6140,255.5041L250.6140,260.3974"/>
   <path d="M247.6390,260.3974L253.5890,260.3974"/>
   <path d="M250.6140,255.5041L250.6140,250.6107"/>
   <path d="M253.5890,250.6107L247.6390,250.6107"/>
   <path d="M253.9758,199.9474L253.9758,201.6605"/>
   <path d="M251.0008,201.6605L256.9508,201.6605"/>
   <path d="M253.9758,199.9474L253.9758,198.2342"/>
   <path d="M256.9508,198.2342L251.0008,198.2342"/>
   <path d="M257.3375,173.2450L257.3375,176.8937"/>
   <path d="M254.3625,176.8937L260.3125,176.8937"/>
   <path d="M257.3375,173.2450L257.3375,169.5963"/>
   <path d="M260.3125,169.5963L254.3625,169.5963"/>
   <path d="M260.6993,226.7421L260.6993,228.7939"/>
   <path d="M257.7242,228.7939L263.6742,228.7939"/>
   <path d="M260.6993,226.7421L260.6993,224.6903"/>
   <path d="M263.6742,224.6903L257.7242,224.6903"/>
   <path d="M264.0610,193.3514L264.0610,195.7280"/>
   <path d="M261.0860,195.7280L267.0360,195.7280"/>
   <path d="M264.0610,193.3514L264.0610,190.9747"/>
   <path d="M267.0360,190.9747L261.0860,190.9747"/>
   <path d="M274.1463,224.9259L274.1463,228.2989"/>
   <path d="M271.1712,228.2989L277.1212,228.2989"/>
   <path d="M274.1463,224.9259L274.1463,221.5529"/>
   <path d="M277.1212,221.5529L271.1712,221.5529"/>
   <path d="M277.5080,233.4475L277.5080,236.7574"/>
   <path d="M274.5330,236.7574L280.4830,236.7574"/>
   <path d="M277.5080,233.4475L277.5080,230.1376"/>
   <path d="M280.4830,230.1376L274.5330,230.1376"/>
   <path d="M280.8697,245.4698L280.8697,248.0334"/>
   <path d="M277.8947,248.0334L283.8447,248.0334"/>
   <path d="M280.8697,245.4698L280.8697,242.9062"/>
   <path d="M283.8447,242.9062L277.8947,242.9062"/>
   <path d="M284.2315,238.1232L284.2315,243.1495"/>
   <path d="M281.2565,243.1495L287.2065,243.1495"/>
   <path d="M284.2315,238.1232L284.2315,233.0970"/>
   <path d="M287.2065,233.0970L281.2565,233.0970"/>
   <path d="M287.5933,256.5110L287.5933,261.0352"/>
   <path d="M284.6182,261.0352L290.5682,261.0352"/>
   <path d="M287.5933,256.5110L287.5933,251.9868"/>
   <path d="M290.5682,251.9868L284.6182,251.9868"/>
   <path d="M290.9550,263.8446L290.9550,269.6461"/>
   <path d="M287.9800,269.6461L293.9300,269.6461"/>
   <path d="M290.9550,263.8446L290.9550,258.0432"/>
   <path d="M293.9300,258.0432L287.9800,258.0432"/>
   <path d="M294.3168,253.1862L294.3168,257.1641"/>
   <path d="M291.3417,257.1641L297.2917,257.1641"/>
   <path d="M294.3168,253.1862L294.3168,249.2083"/>
   <path d="M297.2917,249.2083L291.3417,249.2083"/>
   <path d="M297.6785,243.4634L297.6785,247.9122"/>
   <path d="M294.7035,247.9122L300.6535,247.9122"/>
   <path d="M297.6785,243.4634L297.6785,239.0147"/>
   <path d="M300.6535,239.0147L294.7035,239.0147"/>
   <path d="M301.0403,256.7470L301.0403,261.7551"/>
   <path d="M298.0652,261.7551L304.0153,261.7551"/>
   <path d="M301.0403,256.7470L301.0403,251.7389"/>
   <path d="M304.0153,251.7389L298.0652,251.7389"/>
   <path d="M304.4020,230.3966L304.4020,235.1644"/>
   <path d="M301.4270,235.1644L307.3770,235.1644"/>
   <path d="M304.4020,230.3966L304.4020,225.6289"/>
   <path d="M307.3770,225.6289L301.4270,225.6289"/>
   <path d="M307.7638,238.8819L307.7638,245.8458"/>
   <path d="M304.7887,245.8458L310.7387,245.8458"/>
   <path d="M307.7638,238.8819L307.7638,231.9179"/>
   <path d="M310.7387,231.9179L304.7887,231.9179"/>
   <path d="M314.4872,245.0558L314.4872,249.2565"/>
   <path d="M311.5122,249.2565L317.4622,249.2565"/>
   <path d="M314.4872,245.0558L314.4872,240.8551"/>
   <path d="M317.4622,240.8551L311.5122,240.8551"/>
   <path d="M317.8490,238.4104L317.8490,247.6520"/>
   <path d="M314.8740,247.6520L320.8240,247.6520"/>
   <path d="M317.8490,238.4104L317.8490,229.1687"/>
   <path d="M320.8240,229.1687L314.8740,229.1687"/>
   <path d="M321.2107,201.5573L321.2107,207.8072"/>
   <path d="M318.2357,207.8072L324.1857,207.8072"/>
   <path d="M321.2107,201.5573L321.2107,195.3073"/>
   <path d="M324.1857,195.3073L318.2357,195.3073"/>
   <path d="M324.5725,193.4522L324.5725,195.2319"/>
   <path d="M321.5975,195.2319L327.5475,195.2319"/>
   <path d="M324.5725,193.4522L324.5725,191.6726"/>
   <path d="M327.5475,191.6726L321.5975,191.6726"/>
   <path d="M327.9342,211.6287L327.9342,214.3372"/>
   <path d="M324.9592,214.3372L330.9092,214.3372"/>
   <path d="M327.9342,211.6287L327.9342,208.9202"/>
   <path d="M330.9092,208.9202L324.9592,208.9202"/>
   <path d="M331.2960,186.0494L331.2960,187.7980"/>
   <path d="M328.3210,187.7980L334.2710,187.7980"/>
   <path d="M331.2960,186.0494L331.2960,184.3009"/>
   <path d="M334.2710,184.3009L328.3210,184.3009"/>
   <path d="M334.6577,213.1571L334.6577,218.8659"/>
   <path d="M331.6827,218.8659L337.6327,218.8659"/>
   <path d="M334.6577,213.1571L334.6577,207.4483"/>
   <path d="M337.6327,207.4483L331.6827,207.4483"/>
   <path d="M338.0195,230.9092L338.0195,233.7102"/>
   <path d="M335.0445,233.7102L340.9945,233.7102"/>
   <path d="M338.0195,230.9092L338.0195,228.1083"/>
   <path d="M340.9945,228.1083L335.0445,228.1083"/>
   <path d="M341.3812,223.6903L341.3812,226.2708"/>
   <path d="M338.4062,226.2708L344.3562,226.2708"/>
   <path d="M341.3812,223.6903L341.3812,221.1098"/>
   <path d="M344.3562,221.1098L338.4062,221.1098"/>
   <path d="M344.7430,210.7546L344.7430,214.5907"/>
   <path d="M341.7680,214.5907L347.7180,214.5907"/>
   <path d="M344.7430,210.7546L344.7430,206.9186"/>
   <path d="M347.7180,206.9186L341.7680,206.9186"/>
   <path d="M351.4665,152.7050L351.4665,154.1579"/>
   <path d="M348.4915,154.1579L354.4415,154.1579"/>
   <path d="M351.4665,152.7050L351.4665,151.2521"/>
   <path d="M354.4415,151.2521L348.4915,151.2521"/>
   <path d="M354.8282,241.9282L354.8282,248.9986"/>
   <path d="M351.8532,248.9986L357.8032,248.9986"/>
   <path d="M354.8282,241.9282L354.8282,234.8579"/>
   <path d="M357.8032,234.8579L351.8532,234.8579"/>
   <path d="M358.1900,221.3537L358.1900,227.8579"/>
   <path d="M355.2150,227.8579L361.1650,227.8579"/>
   <path d="M358.1900,221.3537L358.1900,214.8496"/>
   <path d="M361.1650,214.8496L355.2150,214.8496"/>
   <path d="M361.5517,219.5210L361.5517,223.5980"/>
   <path d="M358.5767,223.5980L364.5267,223.5980"/>
   <path d="M361.5517,219.5210L361.5517,215.4440"/>
   <path d="M364.5267,215.4440L358.5767,215.4440"/>
   <path d="M368.2753,298.9278L368.2753,306.4915"/>
   <path d="M365.3003,306.4915L371.2502,306.4915"/>
   <path d="M368.2753,298.9278L368.2753,291.3641"/>
   <path d="M371.2502,291.3641L365.3003,291.3641"/>
   <path d="M371.6370,230.6033L371.6370,237.5773"/>
   <path d="M368.6620,237.5773L374.6120,237.5773"/>
   <path d="M371.6370,230.6033L371.6370,223.6293"/>
   <path d="M374.6120,223.6293L368.6620,223.6293"/>
   <path d="M381.7222,324.2874L381.7222,340.5858"/>
   <path d="M378.7472,340.5858L384.6972,340.5858"/>
   <path d="M381.7222,324.2874L381.7222,307.9890"/>
   <path d="M384.6972,307.9890L378.7472,307.9890"/>
   <path d="M385.0840,230.1573L385.0840,237.1987"/>
   <path d="M382.1090,237.1987L388.0590,237.1987"/>
   <path d="M385.0840,230.1573L385.0840,223.1158"/>
   <path d="M388.0590,223.1158L382.1090,223.1158"/>
   <path d="M388.4457,269.5581L388.4457,275.1043"/>
   <path d="M385.4707,275.1043L391.4207,275.1043"/>
   <path d="M388.4457,269.5581L388.4457,264.0120"/>
   <path d="M391.4207,264.0120L385.4707,264.0120"/>
   <path d="M391.8075,304.0224L391.8075,310.4166"/>
   <path d="M388.8325,310.4166L394.7825,310.4166"/>
   <path d="M391.8075,304.0224L391.8075,297.6282"/>
   <path d="M394.7825,297.6282L388.8325,297.6282"/>
   <path d="M395.1693,221.8835L395.1693,227.1590"/>
   <path d="M392.1943,227.1590L398.1442,227.1590"/>
   <path d="M395.1693,221.8835L395.1693,216.6080"/>
   <path d="M398.1442,216.6080L392.1943,216.6080"/>
   <path d="M401.8927,223.1683L401.8927,226.4330"/>
   <path d="M398.9178,226.4330L404.8678,226.4330"/>
   <path d="M401.8927,223.1683L401.8927,219.9036"/>
   <path d="M404.8678,219.9036L398.9178,219.9036"/>
   <path d="M408.6163,464.3256L408.6163,505.8095"/>
   <path d="M408.6163,464.3256L408.6163,414.6771"/>
   <path d="M411.5913,414.6771L405.6413,414.6771"/>
   <path d="M415.3398,190.1377L415.3398,196.0674"/>
   <path d="M412.3648,196.0674L418.3148,196.0674"/>
   <path d="M415.3398,190.1377L415.3398,184.2080"/>
   <path d="M418.3148,184.2080L412.3648,184.2080"/>
   <path d="M418.7015,253.8800L418.7015,264.4815"/>
   <path d="M415.7265,264.4815L421.6765,264.4815"/>
   <path d="M418.7015,253.8800L418.7015,243.2785"/>
   <path d="M421.6765,243.2785L415.7265,243.2785"/>
   <path d="M425.4250,495.0579L425.4250,505.8095"/>
   <path d="M425.4250,495.0579L425.4250,440.0819"/>
   <path d="M428.4000,440.0819L422.4500,440.0819"/>
   <path d="M432.1485,271.4958L432.1485,280.5363"/>
   <path d="M429.1735,280.5363L435.1235,280.5363"/>
   <path d="M432.1485,271.4958L432.1485,262.4552"/>
   <path d="M435.1235,262.4552L429.1735,262.4552"/>
   <path d="M435.5103,249.9099L435.5103,256.9048"/>
   <path d="M432.5353,256.9048L438.4853,256.9048"/>
   <path d="M435.5103,249.9099L435.5103,242.9149"/>
   <path d="M438.4853,242.9149L432.5353,242.9149"/>
   <path d="M438.8720,245.7760L438.8720,253.0574"/>
   <path d="M435.8970,253.0574L441.8470,253.0574"/>
   <path d="M438.8720,245.7760L438.8720,238.4945"/>
   <path d="M441.8470,238.4945L435.8970,238.4945"/>
   <path d="M442.2338,228.1575L442.2338,234.7060"/>
   <path d="M439.2588,234.7060L445.2088,234.7060"/>
   <path d="M442.2338,228.1575L442.2338,221.6091"/>
   <path d="M445.2088,221.6091L439.2588,221.6091"/>
   <path d="M445.5955,256.1277L445.5955,263.7896"/>
   <path d="M442.6205,263.7896L448.5705,263.7896"/>
   <path d="M445.5955,256.1277L445.5955,248.4658"/>
   <path d="M448.5705,248.4658L442.6205,248.4658"/>
   <path d="M448.9573,198.2879L448.9573,205.9311"/>
   <path d="M445.9823,205.9311L451.9323,205.9311"/>
   <path d="M448.9573,198.2879L448.9573,190.6446"/>
   <path d="M451.9323,190.6446L445.9823,190.6446"/>
   <path d="M452.3190,234.8081L452.3190,239.8245"/>
   <path d="M449.3440,239.8245L455.2940,239.8245"/>
   <path d="M452.3190,234.8081L452.3190,229.7917"/>
   <path d="M455.2940,229.7917L449.3440,229.7917"/>
   <path d="M455.6808,228.0998L455.6808,232.1871"/>
   <path d="M452.7058,232.1871L458.6558,232.1871"/>
   <path d="M455.6808,228.0998L455.6808,224.0126"/>
   <path d="M458.6558,224.0126L452.7058,224.0126"/>
   <path d="M459.0425,226.3175L459.0425,231.5466"/>
   <path d="M456.0675,231.5466L462.0175,231.5466"/>
   <path d="M459.0425,226.3175L459.0425,221.0884"/>
   <path d="M462.0175,221.0884L456.0675,221.0884"/>
   <path d="M462.4042,219.2401L462.4042,222.9262"/>
   <path d="M459.4293,222.9262L465.3793,222.9262"/>
   <path d="M462.4042,219.2401L462.4042,215.5541"/>
   <path d="M465.3793,215.5541L459.4293,215.5541"/>
   <path d="M465.7660,206.3960L465.7660,210.3120"/>
   <path d="M462.7910,210.3120L468.7410,210.3120"/>
   <path d="M465.7660,206.3960L465.7660,202.4800"/>
   <path d="M468.7410,202.4800L462.7910,202.4800"/>
   <path d="M469.1278,244.9610L469.1278,250.1669"/>
   <path d="M466.1528,250.1669L472.1028,250.1669"/>
   <path d="M469.1278,244.9610L469.1278,239.7551"/>
   <path d="M472.1028,239.7551L466.1528,239.7551"/>
   <path d="M472.4895,231.1427L472.4895,237.3565"/>
   <path d="M469.5145,237.3565L475.4645,237.3565"/>
   <path d="M472.4895,231.1427L472.4895,224.9290"/>
   <path d="M475.4645,224.9290L469.5145,224.9290"/>
   <path d="M475.8513,212.5277L475.8513,215.0795"/>
   <path d="M472.8763,215.0795L478.8263,215.0795"/>
   <path d="M475.8513,212.5277L475.8513,209.9759"/>
   <path d="M478.8263,209.9759L472.8763,209.9759"/>
   <path d="M479.2130,219.6575L479.2130,221.9496"/>
   <path d="M476.2380,221.9496L482.1880,221.9496"/>
   <path d="M479.2130,219.6575L479.2130,217.3654"/>
   <path d="M482.1880,217.3654L476.2380,217.3654"/>
   <path d="M482.5748,259.6784L482.5748,261.8980"/>
   <path d="M479.5998,261.8980L485.5498,261.8980"/>
   <path d="M482.5748,259.6784L482.5748,257.4587"/>
   <path d="M485.5498,257.4587L479.5998,257.4587"/>
   <path d="M485.9365,251.4473L485.9365,254.1972"/>
   <path d="M482.9615,254.1972L488.9115,254.1972"/>
   <path d="M485.9365,251.4473L485.9365,248.6973"/>
   <path d="M488.9115,248.6973L482.9615,248.6973"/>
   <path d="M489.2982,256.9085L489.2982,260.2707"/>
   <path d="M486.3233,260.2707L492.2733,260.2707"/>
   <path d="M489.2982,256.9085L489.2982,253.5464"/>
   <path d="M492.2733,253.5464L486.3233,253.5464"/>
   <path d="M492.6600,214.2748L492.6600,217.8352"/>
   <path d="M489.6850,217.8352L495.6350,217.8352"/>
   <path d="M492.6600,214.2748L492.6600,210.7144"/>
   <path d="M495.6350,210.7144L489.6850,210.7144"/>
   <path d="M496.0217,214.2315L496.0217,217.7677"/>
   <path d="M493.0467,217.7677L498.9968,217.7677"/>
   <path d="M496.0217,214.2315L496.0217,210.6954"/>
   <path d="M498.9968,210.6954L493.0467,210.6954"/>
   <path d="M499.3835,249.7168L499.3835,252.5683"/>
   <path d="M496.4085,252.5683L502.3585,252.5683"/>
   <path d="M499.3835,249.7168L499.3835,246.8653"/>
   <path d="M502.3585,246.8653L496.4085,246.8653"/>
   <path d="M502.7453,173.2043L502.7453,174.7432"/>
   <path d="M499.7703,174.7432L505.7203,174.7432"/>
   <path d="M502.7453,173.2043L502.7453,171.6655"/>
   <path d="M505.7203,171.6655L499.7703,171.6655"/>
   <path d="M509.4688,143.0189L509.4688,144.3274"/>
   <path d="M506.4938,144.3274L512.4438,144.3274"/>
   <path d="M509.4688,143.0189L509.4688,141.7104"/>
   <path d="M512.4438,141.7104L506.4938,141.7104"/>
   <path d="M516.1923,163.6836L516.1923,164.8827"/>
   <path d="M513.2173,164.8827L519.1673,164.8827"/>
   <path d="M516.1923,163.6836L516.1923,162.4844"/>
   <path d="M519.1673,162.4844L513.2173,162.4844"/>
   <path d="M519.5540,160.8543L519.5540,162.1149"/>
   <path d="M516.5790,162.1149L522.5290,162.1149"/>
   <path d="M519.5540,160.8543L519.5540,159.5937"/>
   <path d="M522.5290,159.5937L516.5790,159.5937"/>
   <path d="M526.2775,204.5207L526.2775,208.1089"/>
   <path d="M523.3025,208.1089L529.2525,208.1089"/>
   <path d="M526.2775,204.5207L526.2775,200.9325"/>
   <path d="M529.2525,200.9325L523.3025,200.9325"/>
   <path d="M529.6392,230.1365L529.6392,234.4032"/>
   <path d="M526.6643,234.4032L532.6142,234.4032"/>
   <path d="M529.6392,230.1365L529.6392,225.8699"/>
   <path d="M532.6142,225.8699L526.6643,225.8699"/>
   <path d="M533.0010,252.6201L533.0010,259.5907"/>
   <path d="M530.0260,259.5907L535.9760,259.5907"/>
   <path d="M533.0010,252.6201L533.0010,245.6496"/>
   <path d="M535.9760,245.6496L530.0260,245.6496"/>
   <path d="M536.3628,218.3226L536.3628,221.3446"/>
   <path d="M533.3877,221.3446L539.3378,221.3446"/>
   <path d="M536.3628,218.3226L536.3628,215.3005"/>
   <path d="M539.3378,215.3005L533.3877,215.3005"/>
   <path d="M539.7245,251.6765L539.7245,254.4158"/>
   <path d="M536.7495,254.4158L542.6995,254.4158"/>
   <path d="M539.7245,251.6765L539.7245,248.9373"/>
   <path d="M542.6995,248.9373L536.7495,248.9373"/>
   <path d="M543.0862,241.7323L543.0862,245.5798"/>
   <path d="M540.1112,245.5798L546.0612,245.5798"/>
   <path d="M543.0862,241.7323L543.0862,237.8848"/>
   <path d="M546.0612,237.8848L540.1112,237.8848"/>
   <path d="M546.4480,213.6463L546.4480,215.8797"/>
   <path d="M543.4730,215.8797L549.4230,215.8797"/>
   <path d="M546.4480,213.6463L546.4480,211.4129"/>
   <path d="M549.4230,211.4129L543.4730,211.4129"/>
   <path d="M549.8098,232.3244L549.8098,236.9522"/>
   <path d="M546.8347,236.9522L552.7848,236.9522"/>
   <path d="M549.8098,232.3244L549.8098,227.6965"/>
   <path d="M552.7848,227.6965L546.8347,227.6965"/>
   <path d="M553.1715,215.0110L553.1715,217.9769"/>
   <path d="M550.1965,217.9769L556.1465,217.9769"/>
   <path d="M553.1715,215.0110L553.1715,212.0451"/>
   <path d="M556.1465,212.0451L550.1965,212.0451"/>
   <path d="M559.8950,225.8496L559.8950,228.2346"/>
   <path d="M556.9200,228.2346L562.8700,228.2346"/>
   <path d="M559.8950,225.8496L559.8950,223.4645"/>
   <path d="M562.8700,223.4645L556.9200,223.4645"/>
   <path d="M566.6185,254.5052L566.6185,258.3710"/>
   <path d="M563.6435,258.3710L569.5935,258.3710"/>
   <path d="M566.6185,254.5052L566.6185,250.6393"/>
   <path d="M569.5935,250.6393L563.6435,250.6393"/>
   <path d="M569.9802,262.9866L569.9802,267.4461"/>
   <path d="M567.0052,267.4461L572.9552,267.4461"/>
   <path d="M569.9802,262.9866L569.9802,258.5271"/>
   <path d="M572.9552,258.5271L567.0052,258.5271"/>
   <path d="M573.3420,259.1567L573.3420,262.5898"/>
   <path d="M570.3670,262.5898L576.3170,262.5898"/>
   <path d="M573.3420,259.1567L573.3420,255.7237"/>
   <path d="M576.3170,255.7237L570.3670,255.7237"/>
   <path d="M580.0655,234.2148L580.0655,237.6533"/>
   <path d="M577.0905,237.6533L583.0405,237.6533"/>
   <path d="M580.0655,234.2148L580.0655,230.7763"/>
   <path d="M583.0405,230.7763L577.0905,230.7763"/>
   <path d="M586.7890,219.2414L586.7890,223.1303"/>
   <path d="M583.8140,223.1303L589.7640,223.1303"/>
   <path d="M586.7890,219.2414L586.7890,215.3525"/>
   <path d="M589.7640,215.3525L583.8140,215.3525"/>
   <path d="M590.1508,268.9933L590.1508,279.0655"/>
   <path d="M587.1757,279.0655L593.1258,279.0655"/>
   <path d="M590.1508,268.9933L590.1508,258.9210"/>
   <path d="M593.1258,258.9210L587.1757,258.9210"/>
   <path d="M593.5125,328.1302L593.5125,339.0195"/>
   <path d="M590.5375,339.0195L596.4875,339.0195"/>
   <path d="M593.5125,328.1302L593.5125,317.2408"/>
   <path d="M596.4875,317.2408L590.5375,317.2408"/>
   <path d="M596.8742,249.6362L596.8742,254.8829"/>
   <path d="M593.8992,254.8829L599.8492,254.8829"/>
   <path d="M596.8742,249.6362L596.8742,244.3896"/>
   <path d="M599.8492,244.3896L593.8992,244.3896"/>
   <path d="M603.5978,217.7970L603.5978,222.5291"/>
   <path d="M600.6228,222.5291L606.5727,222.5291"/>
   <path d="M603.5978,217.7970L603.5978,213.0649"/>
   <path d="M606.5727,213.0649L600.6228,213.0649"/>
   <path d="M606.9595,254.0150L606.9595,260.8134"/>
   <path d="M603.9845,260.8134L609.9345,260.8134"/>
   <path d="M606.9595,254.0150L606.9595,247.2165"/>
   <path d="M609.9345,247.2165L603.9845,247.2165"/>
   <path d="M610.3212,251.0284L610.3212,254.9177"/>
   <path d="M607.3463,254.9177L613.2962,254.9177"/>
   <path d="M610.3212,251.0284L610.3212,247.1392"/>
   <path d="M613.2962,247.1392L607.3463,247.1392"/>
   <path d="M613.6830,254.9019L613.6830,258.5482"/>
   <path d="M610.7080,258.5482L616.6580,258.5482"/>
   <path d="M613.6830,254.9019L613.6830,251.2557"/>
   <path d="M616.6580,251.2557L610.7080,251.2557"/>
   <path d="M617.0448,250.5956L617.0448,255.3035"/>
   <path d="M614.0698,255.3035L620.0197,255.3035"/>
   <path d="M617.0448,250.5956L617.0448,245.8877"/>
   <path d="M620.0197,245.8877L614.0698,245.8877"/>
   <path d="M620.4065,250.6439L620.4065,255.4471"/>
   <path d="M617.4315,255.4471L623.3815,255.4471"/>
   <path d="M620.4065,250.6439L620.4065,245.8407"/>
   <path d="M623.3815,245.8407L617.4315,245.8407"/>
   <path d="M623.7683,229.8760L623.7683,232.9597"/>
   <path d="M620.7933,232.9597L626.7432,232.9597"/>
   <path d="M623.7683,229.8760L623.7683,226.7923"/>
   <path d="M626.7432,226.7923L620.7933,226.7923"/>
   <path d="M627.1300,231.1364L627.1300,234.7169"/>
   <path d="M624.1550,234.7169L630.1050,234.7169"/>
   <path d="M627.1300,231.1364L627.1300,227.5559"/>
   <path d="M630.1050,227.5559L624.1550,227.5559"/>
   <path d="M630.4918,235.2647L630.4918,238.8102"/>
   <path d="M627.5168,238.8102L633.4667,238.8102"/>
   <path d="M630.4918,235.2647L630.4918,231.7192"/>
   <path d="M633.4667,231.7192L627.5168,231.7192"/>
   <path d="M633.8535,237.3066L633.8535,239.5860"/>
   <path d="M630.8785,239.5860L636.8285,239.5860"/>
   <path d="M633.8535,237.3066L633.8535,235.0273"/>
   <path d="M636.8285,235.0273L630.8785,235.0273"/>
   <path d="M640.5770,231.0651L640.5770,234.0621"/>
   <path d="M637.6020,234.0621L643.5520,234.0621"/>
   <path d="M640.5770,231.0651L640.5770,228.0682"/>
   <path d="M643.5520,228.0682L637.6020,228.0682"/>
   <path d="M643.9387,208.8566L643.9387,211.3038"/>
   <path d="M640.9638,211.3038L646.9137,211.3038"/>
   <path d="M643.9387,208.8566L643.9387,206.4093"/>
   <path d="M646.9137,206.4093L640.9638,206.4093"/>
   <ellipse  rx="2.6775" ry="2.6775" cx="102.6970" cy="93.4538"/>
   <ellipse  rx="2.6775" ry="2.6775" cx="106.0587" cy="99.4810"/>
   <ellipse  rx="2.6775" ry="2.6775" cx="109.4205" cy="118.6236"/>
   <ellipse  rx="2.6775" ry="2.6775" cx="112.7822" cy="147.2415"/>
   <ellipse  rx="2.6775" ry="2.6775" cx="116.1440" cy="162.4205"/>
   <ellipse  rx="2.6775" ry="2.6775" cx="129.5910" cy="201.2952"/>
   <ellipse  rx="2.6775" ry="2.6775" cx="132.9527" cy="262.5265"/>
   <ellipse  rx="2.6775" ry="2.6775" cx="136.3145" cy="224.5952"/>
   <ellipse  rx="2.6775" ry="2.6775" cx="139.6762" cy="266.9598"/>
   <ellipse  rx="2.6775" ry="2.6775" cx="143.0380" cy="266.3177"/>
   <ellipse  rx="2.6775" ry="2.6775" cx="146.3997" cy="255.7395"/>
   <ellipse  rx="2.6775" ry="2.6775" cx="156.4850" cy="237.1814"/>
   <ellipse  rx="2.6775" ry="2.6775" cx="159.8467" cy="246.0705"/>
   <ellipse  rx="2.6775" ry="2.6775" cx="163.2085" cy="229.7792"/>
   <ellipse  rx="2.6775" ry="2.6775" cx="169.9320" cy="216.6764"/>
   <ellipse  rx="2.6775" ry="2.6775" cx="173.2937" cy="217.2397"/>
   <ellipse  rx="2.6775" ry="2.6775" cx="176.6555" cy="218.0157"/>
   <ellipse  rx="2.6775" ry="2.6775" cx="180.0172" cy="227.9883"/>
   <ellipse  rx="2.6775" ry="2.6775" cx="183.3790" cy="233.5823"/>
   <ellipse  rx="2.6775" ry="2.6775" cx="186.7407" cy="222.8562"/>
   <ellipse  rx="2.6775" ry="2.6775" cx="190.1025" cy="268.2393"/>
   <ellipse  rx="2.6775" ry="2.6775" cx="196.8260" cy="255.5636"/>
   <ellipse  rx="2.6775" ry="2.6775" cx="200.1877" cy="219.8007"/>
   <ellipse  rx="2.6775" ry="2.6775" cx="203.5495" cy="275.9718"/>
   <ellipse  rx="2.6775" ry="2.6775" cx="206.9112" cy="266.7710"/>
   <ellipse  rx="2.6775" ry="2.6775" cx="210.2730" cy="274.3682"/>
   <ellipse  rx="2.6775" ry="2.6775" cx="216.9965" cy="247.6130"/>
   <ellipse  rx="2.6775" ry="2.6775" cx="220.3582" cy="207.4132"/>
   <ellipse  rx="2.6775" ry="2.6775" cx="223.7200" cy="189.1447"/>
   <ellipse  rx="2.6775" ry="2.6775" cx="227.0817" cy="245.7231"/>
   <ellipse  rx="2.6775" ry="2.6775" cx="240.5287" cy="289.8414"/>
   <ellipse  rx="2.6775" ry="2.6775" cx="243.8905" cy="213.2821"/>
   <ellipse  rx="2.6775" ry="2.6775" cx="247.2522" cy="219.2413"/>
   <ellipse  rx="2.6775" ry="2.6775" cx="250.6140" cy="255.5041"/>
   <ellipse  rx="2.6775" ry="2.6775" cx="253.9758" cy="199.9474"/>
   <ellipse  rx="2.6775" ry="2.6775" cx="257.3375" cy="173.2450"/>
   <ellipse  rx="2.6775" ry="2.6775" cx="260.6993" cy="226.7421"/>
   <ellipse  rx="2.6775" ry="2.6775" cx="264.0610" cy="193.3514"/>
   <ellipse  rx="2.6775" ry="2.6775" cx="274.1463" cy="224.9259"/>
   <ellipse  rx="2.6775" ry="2.6775" cx="277.5080" cy="233.4475"/>
   <ellipse  rx="2.6775" ry="2.6775" cx="280.8697" cy="245.4698"/>
   <ellipse  rx="2.6775" ry="2.6775" cx="284.2315" cy="238.1232"/>
   <ellipse  rx="2.6775" ry="2.6775" cx="287.5933" cy="256.5110"/>
   <ellipse  rx="2.6775" ry="2.6775" cx="290.9550" cy="263.8446"/>
   <ellipse  rx="2.6775" ry="2.6775" cx="294.3168" cy="253.1862"/>
   <ellipse  rx="2.6775" ry="2.6775" cx="297.6785" cy="243.4634"/>
   <ellipse  rx="2.6775" ry="2.6775" cx="301.0403" cy="256.7470"/>
   <ellipse  rx="2.6775" ry="2.6775" cx="304.4020" cy="230.3966"/>
   <ellipse  rx="2.6775" ry="2.6775" cx="307.7638" cy="238.8819"/>
   <ellipse  rx="2.6775" ry="2.6775" cx="314.4872" cy="245.0558"/>
   <ellipse  rx="2.6775" ry="2.6775" cx="317.8490" cy="238.4104"/>
   <ellipse  rx="2.6775" ry="2.6775" cx="321.2107" cy="201.5573"/>
   <ellipse  rx="2.6775" ry="2.6775" cx="324.5725" cy="193.4522"/>
   <ellipse  rx="2.6775" ry="2.6775" cx="327.9342" cy="211.6287"/>
   <ellipse  rx="2.6775" ry="2.6775" cx="331.2960" cy="186.0494"/>
   <ellipse  rx="2.6775" ry="2.6775" cx="334.6577" cy="213.1571"/>
   <ellipse  rx="2.6775" ry="2.6775" cx="338.0195" cy="230.9092"/>
   <ellipse  rx="2.6775" ry="2.6775" cx="341.3812" cy="223.6903"/>
   <ellipse  rx="2.6775" ry="2.6775" cx="344.7430" cy="210.7546"/>
   <ellipse  rx="2.6775" ry="2.6775" cx="351.4665" cy="152.7050"/>
   <ellipse  rx="2.6775" ry="2.6775" cx="354.8282" cy="241.9282"/>
   <ellipse  rx="2.6775" ry="2.6775" cx="358.1900" cy="221.3537"/>
   <ellipse  rx="2.6775" ry="2.6775" cx="361.5517" cy="219.5210"/>
   <ellipse  rx="2.6775" ry="2.6775" cx="368.2753" cy="298.9278"/>
   <ellipse  rx="2.6775" ry="2.6775" cx="371.6370" cy="230.6033"/>
   <ellipse  rx="2.6775" ry="2.6775" cx="381.7222" cy="324.2874"/>
   <ellipse  rx="2.6775" ry="2.6775" cx="385.0840" cy="230.1573"/>
   <ellipse  rx="2.6775" ry="2.6775" cx="388.4457" cy="269.5581"/>
   <ellipse  rx="2.6775" ry="2.6775" cx="391.8075" cy="304.0224"/>
   <ellipse  rx="2.6775" ry="2.6775" cx="395.1693" cy="221.8835"/>
   <ellipse  rx="2.6775" ry="2.6775" cx="401.8927" cy="223.1683"/>
   <ellipse  rx="2.6775" ry="2.6775" cx="408.6163" cy="464.3256"/>
   <ellipse  rx="2.6775" ry="2.6775" cx="415.3398" cy="190.1377"/>
   <ellipse  rx="2.6775" ry="2.6775" cx="418.7015" cy="253.8800"/>
   <ellipse  rx="2.6775" ry="2.6775" cx="425.4250" cy="495.0579"/>
   <ellipse  rx="2.6775" ry="2.6775" cx="432.1485" cy="271.4958"/>
   <ellipse  rx="2.6775" ry="2.6775" cx="435.5103" cy="249.9099"/>
   <ellipse  rx="2.6775" ry="2.6775" cx="438.8720" cy="245.7760"/>
   <ellipse  rx="2.6775" ry="2.6775" cx="442.2338" cy="228.1575"/>
   <ellipse  rx="2.6775" ry="2.6775" cx="445.5955" cy="256.1277"/>
   <ellipse  rx="2.6775" ry="2.6775" cx="448.9573" cy="198.2879"/>
   <ellipse  rx="2.6775" ry="2.6775" cx="452.3190" cy="234.8081"/>
   <ellipse  rx="2.6775" ry="2.6775" cx="455.6808" cy="228.0998"/>
   <ellipse  rx="2.6775" ry="2.6775" cx="459.0425" cy="226.3175"/>
   <ellipse  rx="2.6775" ry="2.6775" cx="462.4042" cy="219.2401"/>
   <ellipse  rx="2.6775" ry="2.6775" cx="465.7660" cy="206.3960"/>
   <ellipse  rx="2.6775" ry="2.6775" cx="469.1278" cy="244.9610"/>
   <ellipse  rx="2.6775" ry="2.6775" cx="472.4895" cy="231.1427"/>
   <ellipse  rx="2.6775" ry="2.6775" cx="475.8513" cy="212.5277"/>
   <ellipse  rx="2.6775" ry="2.6775" cx="479.2130" cy="219.6575"/>
   <ellipse  rx="2.6775" ry="2.6775" cx="482.5748" cy="259.6784"/>
   <ellipse  rx="2.6775" ry="2.6775" cx="485.9365" cy="251.4473"/>
   <ellipse  rx="2.6775" ry="2.6775" cx="489.2982" cy="256.9085"/>
   <ellipse  rx="2.6775" ry="2.6775" cx="492.6600" cy="214.2748"/>
   <ellipse  rx="2.6775" ry="2.6775" cx="496.0217" cy="214.2315"/>
   <ellipse  rx="2.6775" ry="2.6775" cx="499.3835" cy="249.7168"/>
   <ellipse  rx="2.6775" ry="2.6775" cx="502.7453" cy="173.2043"/>
   <ellipse  rx="2.6775" ry="2.6775" cx="509.4688" cy="143.0189"/>
   <ellipse  rx="2.6775" ry="2.6775" cx="516.1923" cy="163.6836"/>
   <ellipse  rx="2.6775" ry="2.6775" cx="519.5540" cy="160.8543"/>
   <ellipse  rx="2.6775" ry="2.6775" cx="526.2775" cy="204.5207"/>
   <ellipse  rx="2.6775" ry="2.6775" cx="529.6392" cy="230.1365"/>
   <ellipse  rx="2.6775" ry="2.6775" cx="533.0010" cy="252.6201"/>
   <ellipse  rx="2.6775" ry="2.6775" cx="536.3628" cy="218.3226"/>
   <ellipse  rx="2.6775" ry="2.6775" cx="539.7245" cy="251.6765"/>
   <ellipse  rx="2.6775" ry="2.6775" cx="543.0862" cy="241.7323"/>
   <ellipse  rx="2.6775" ry="2.6775" cx="546.4480" cy="213.6463"/>
   <ellipse  rx="2.6775" ry="2.6775" cx="549.8098" cy="232.3244"/>
   <ellipse  rx="2.6775" ry="2.6775" cx="553.1715" cy="215.0110"/>
   <ellipse  rx="2.6775" ry="2.6775" cx="559.8950" cy="225.8496"/>
   <ellipse  rx="2.6775" ry="2.6775" cx="566.6185" cy="254.5052"/>
   <ellipse  rx="2.6775" ry="2.6775" cx="569.9802" cy="262.9866"/>
   <ellipse  rx="2.6775" ry="2.6775" cx="573.3420" cy="259.1567"/>
   <ellipse  rx="2.6775" ry="2.6775" cx="580.0655" cy="234.2148"/>
   <ellipse  rx="2.6775" ry="2.6775" cx="586.7890" cy="219.2414"/>
   <ellipse  rx="2.6775" ry="2.6775" cx="590.1508" cy="268.9933"/>
   <ellipse  rx="2.6775" ry="2.6775" cx="593.5125" cy="328.1302"/>
   <ellipse  rx="2.6775" ry="2.6775" cx="596.8742" cy="249.6362"/>
   <ellipse  rx="2.6775" ry="2.6775" cx="603.5978" cy="217.7970"/>
   <ellipse  rx="2.6775" ry="2.6775" cx="606.9595" cy="254.0150"/>
   <ellipse  rx="2.6775" ry="2.6775" cx="610.3212" cy="251.0284"/>
   <ellipse  rx="2.6775" ry="2.6775" cx="613.6830" cy="254.9019"/>
   <ellipse  rx="2.6775" ry="2.6775" cx="617.0448" cy="250.5956"/>
   <ellipse  rx="2.6775" ry="2.6775" cx="620.4065" cy="250.6439"/>
   <ellipse  rx="2.6775" ry="2.6775" cx="623.7683" cy="229.8760"/>
   <ellipse  rx="2.6775" ry="2.6775" cx="627.1300" cy="231.1364"/>
   <ellipse  rx="2.6775" ry="2.6775" cx="630.4918" cy="235.2647"/>
   <ellipse  rx="2.6775" ry="2.6775" cx="633.8535" cy="237.3066"/>
   <ellipse  rx="2.6775" ry="2.6775" cx="640.5770" cy="231.0651"/>
   <ellipse  rx="2.6775" ry="2.6775" cx="643.9387" cy="208.8566"/>
  </g>
  <g style="fill:none; stroke:#FF0000; stroke-width:  0.8925; stroke-linecap:butt; stroke-linejoin:miter; stroke-dasharray:none">
   <path d="M223.7200,156.4937L354.8282,193.2190L411.9780,157.2806L425.4250,155.9708L448.9573,206.3700L539.7245,186.5969L546.4480,213.1185"/>
  </g>
  <g style="fill:none; stroke:#FF0000; stroke-width:  0.4463; stroke-linecap:butt; stroke-linejoin:miter; stroke-dasharray:none">
   <path d="M223.7200,156.4937L223.7200,157.4118"/>
   <path d="M220.7450,157.4118L226.6950,157.4118"/>
   <path d="M223.7200,156.4937L223.7200,155.5755"/>
   <path d="M226.6950,155.5755L220.7450,155.5755"/>
   <path d="M354.8282,193.2190L354.8282,195.7017"/>
   <path d="M351.8532,195.7017L357.8032,195.7017"/>
   <path d="M354.8282,193.2190L354.8282,190.7363"/>
   <path d="M357.8032,190.7363L351.8532,190.7363"/>
   <path d="M411.9780,157.2806L411.9780,158.8075"/>
   <path d="M409.0030,158.8075L414.9530,158.8075"/>
   <path d="M411.9780,157.2806L411.9780,155.7538"/>
   <path d="M414.9530,155.7538L409.0030,155.7538"/>
   <path d="M425.4250,155.9708L425.4250,157.6191"/>
   <path d="M422.4500,157.6191L428.4000,157.6191"/>
   <path d="M425.4250,155.9708L425.4250,154.3225"/>
   <path d="M428.4000,154.3225L422.4500,154.3225"/>
   <path d="M448.9573,206.3700L448.9573,212.2262"/>
   <path d="M445.9823,212.2262L451.9323,212.2262"/>
   <path d="M448.9573,206.3700L448.9573,200.5137"/>
   <path d="M451.9323,200.5137L445.9823,200.5137"/>
   <path d="M539.7245,186.5969L539.7245,187.9743"/>
   <path d="M536.7495,187.9743L542.6995,187.9743"/>
   <path d="M539.7245,186.5969L539.7245,185.2194"/>
   <path d="M542.6995,185.2194L536.7495,185.2194"/>
   <path d="M546.4480,213.1185L546.4480,215.2906"/>
   <path d="M543.4730,215.2906L549.4230,215.2906"/>
   <path d="M546.4480,213.1185L546.4480,210.9463"/>
   <path d="M549.4230,210.9463L543.4730,210.9463"/>
   <path d="M221.4441,154.2178L221.4441,158.7695L225.9959,158.7695L225.9959,154.2178z"/>
   <path d="M352.5524,190.9431L352.5524,195.4949L357.1041,195.4949L357.1041,190.9431z"/>
   <path d="M409.7021,155.0048L409.7021,159.5565L414.2539,159.5565L414.2539,155.0048z"/>
   <path d="M423.1491,153.6949L423.1491,158.2467L427.7009,158.2467L427.7009,153.6949z"/>
   <path d="M446.6814,204.0941L446.6814,208.6458L451.2331,208.6458L451.2331,204.0941z"/>
   <path d="M537.4486,184.3210L537.4486,188.8727L542.0004,188.8727L542.0004,184.3210z"/>
   <path d="M544.1721,210.8426L544.1721,215.3943L548.7239,215.3943L548.7239,210.8426z"/>
  </g>
  <g style="fill:none; stroke:#000000; stroke-width:  0.8925; stroke-linecap:butt; stroke-linejoin:miter; stroke-dasharray:none">
   <path d="M89.2500,89.2500L761.6000,89.2500"/>
   <path d="M89.2500,505.7500L761.6000,505.7500"/>
  </g>
  <g style="fill:none; stroke:#000000; stroke-width:  0.4463; stroke-linecap:butt; stroke-linejoin:miter; stroke-dasharray:none">
   <path d="M173.2937,89.2500L173.2937,92.2250"/>
   <path d="M173.2937,505.7500L173.2937,502.7750"/>
   <path d="M341.3812,89.2500L341.3812,92.2250"/>
   <path d="M341.3812,505.7500L341.3812,502.7750"/>
   <path d="M509.4688,89.2500L509.4688,92.2250"/>
   <path d="M509.4688,505.7500L509.4688,502.7750"/>
   <path d="M677.5562,89.2500L677.5562,92.2250"/>
   <path d="M677.5562,505.7500L677.5562,502.7750"/>
   <path d="M89.2500,89.2500L89.2500,95.2000"/>
   <path d="M89.2500,505.7500L89.2500,499.8000"/>
   <path d="M257.3375,89.2500L257.3375,95.2000"/>
   <path d="M257.3375,505.7500L257.3375,499.8000"/>
   <path d="M425.4250,89.2500L425.4250,95.2000"/>
   <path d="M425.4250,505.7500L425.4250,499.8000"/>
   <path d="M593.5125,89.2500L593.5125,95.2000"/>
   <path d="M593.5125,505.7500L593.5125,499.8000"/>
   <path d="M761.6000,89.2500L761.6000,95.2000"/>
   <path d="M761.6000,505.7500L761.6000,499.8000"/>
  </g>
  <g style="fill:#000000; fill-rule:nonzero">
   <text   style="font-family:'Times','Nimbus Roman No9 L'; font-style:normal; font-weight:normal; font-size:595.0000" transform="matrix(0.0196,0.0000,-0.0000,-0.0196,86.7500,75.3000)">0</text>
   <text   style="font-family:'Times','Nimbus Roman No9 L'; font-style:normal; font-weight:normal; font-size:595.0000" transform="matrix(0.0196,0.0000,-0.0000,-0.0196,251.8375,75.3000)">50</text>
   <text   style="font-family:'Times','Nimbus Roman No9 L'; font-style:normal; font-weight:normal; font-size:595.0000" transform="matrix(0.0196,0.0000,-0.0000,-0.0196,416.9250,75.3000)">100</text>
   <text   style="font-family:'Times','Nimbus Roman No9 L'; font-style:normal; font-weight:normal; font-size:595.0000" transform="matrix(0.0196,0.0000,-0.0000,-0.0196,585.0125,75.3000)">150</text>
   <text   style="font-family:'Times','Nimbus Roman No9 L'; font-style:normal; font-weight:normal; font-size:595.0000" transform="matrix(0.0196,0.0000,-0.0000,-0.0196,753.1000,75.3000)">200</text>
   <text   style="font-family:'Times','Nimbus Roman No9 L'; font-style:normal; font-weight:normal; font-size:595.0000" transform="matrix(0.0280,0.0000,-0.0000,-0.0280,370.9250,58.3500)">Residue number</text>
  </g>
  <g style="fill:none; stroke:#000000; stroke-width:  0.8925; stroke-linecap:butt; stroke-linejoin:miter; stroke-dasharray:none">
   <path d="M89.2500,89.2500L89.2500,505.7500"/>
   <path d="M761.6000,89.2500L761.6000,505.7500"/>
  </g>
  <g style="fill:none; stroke:#000000; stroke-width:  0.4463; stroke-linecap:butt; stroke-linejoin:miter; stroke-dasharray:none">
   <path d="M89.2500,158.6667L92.2250,158.6667"/>
   <path d="M761.6000,158.6667L758.6250,158.6667"/>
   <path d="M89.2500,257.8333L92.2250,257.8333"/>
   <path d="M761.6000,257.8333L758.6250,257.8333"/>
   <path d="M89.2500,357.0000L92.2250,357.0000"/>
   <path d="M761.6000,357.0000L758.6250,357.0000"/>
   <path d="M89.2500,456.1667L92.2250,456.1667"/>
   <path d="M761.6000,456.1667L758.6250,456.1667"/>
   <path d="M89.2500,109.0833L95.2000,109.0833"/>
   <path d="M761.6000,109.0833L755.6500,109.0833"/>
   <path d="M89.2500,208.2500L95.2000,208.2500"/>
   <path d="M761.6000,208.2500L755.6500,208.2500"/>
   <path d="M89.2500,307.4167L95.2000,307.4167"/>
   <path d="M761.6000,307.4167L755.6500,307.4167"/>
   <path d="M89.2500,406.5833L95.2000,406.5833"/>
   <path d="M761.6000,406.5833L755.6500,406.5833"/>
   <path d="M89.2500,505.7500L95.2000,505.7500"/>
   <path d="M761.6000,505.7500L755.6500,505.7500"/>
  </g>
  <g style="fill:#000000; fill-rule:nonzero">
   <text   style="font-family:'Times','Nimbus Roman No9 L'; font-style:normal; font-weight:normal; font-size:595.0000" transform="matrix(0.0196,0.0000,-0.0000,-0.0196,72.3000,105.0833)">10</text>
   <text   style="font-family:'Times','Nimbus Roman No9 L'; font-style:normal; font-weight:normal; font-size:595.0000" transform="matrix(0.0196,0.0000,-0.0000,-0.0196,72.3000,204.2500)">15</text>
   <text   style="font-family:'Times','Nimbus Roman No9 L'; font-style:normal; font-weight:normal; font-size:595.0000" transform="matrix(0.0196,0.0000,-0.0000,-0.0196,72.3000,303.4167)">20</text>
   <text   style="font-family:'Times','Nimbus Roman No9 L'; font-style:normal; font-weight:normal; font-size:595.0000" transform="matrix(0.0196,0.0000,-0.0000,-0.0196,72.3000,402.5833)">25</text>
   <text   style="font-family:'Times','Nimbus Roman No9 L'; font-style:normal; font-weight:normal; font-size:595.0000" transform="matrix(0.0196,0.0000,-0.0000,-0.0196,72.3000,501.7500)">30</text>
   <text   style="font-family:'Times','Nimbus Roman No9 L'; font-style:normal; font-weight:normal; font-size:595.0000" transform="matrix(0.0000,0.0280,0.0280,-0.0070,59.6860,260.5000)">R</text>
   <text   style="font-family:'Times','Nimbus Roman No9 L'; font-style:normal; font-weight:normal; font-size:595.0000" transform="matrix(0.0000,0.0198,0.0198,-0.0049,66.3500,269.8340)">x</text>
   <text   style="font-family:'Times','Nimbus Roman No9 L'; font-style:normal; font-weight:normal; font-size:595.0000" transform="matrix(0.0000,0.0280,0.0280,-0.0000,59.6860,277.5000)"> (rad.s</text>
   <text   style="font-family:'Times','Nimbus Roman No9 L'; font-style:normal; font-weight:normal; font-size:595.0000" transform="matrix(0.0000,0.0198,0.0198,-0.0000,49.6900,319.5000)">-1</text>
   <text   style="font-family:'Times','Nimbus Roman No9 L'; font-style:normal; font-weight:normal; font-size:595.0000" transform="matrix(0.0000,0.0280,0.0280,-0.0000,59.6860,329.5000)">)</text>
  </g>
  <g style="fill:none; stroke:#000000; stroke-width:  0.4463; stroke-linecap:butt; stroke-linejoin:miter; stroke-dasharray:none">
   <path d="M89.2500,89.2500L89.2500,505.7500L761.6000,505.7500L761.6000,89.2500z"/>
  </g>
  <g style="fill:#FFFFFF; fill-rule:nonzero">
   <path  d="M505.7500,476.0000L505.7500,428.1500L620.9781,428.1500L620.9781,476.0000z"/>
  </g>
  <g style="fill:none; stroke:#000000; stroke-width:  0.8925; stroke-linecap:butt; stroke-linejoin:miter; stroke-dasharray:none">
   <path d="M505.7500,476.0000L505.7500,428.1500L620.9781,428.1500L620.9781,476.0000z"/>
  </g>
  <g style="fill:#000000; fill-rule:nonzero">
   <text   style="font-family:'Times','Nimbus Roman No9 L'; font-style:normal; font-weight:normal; font-size:595.0000" transform="matrix(0.0280,0.0000,-0.0000,-0.0280,547.0281,459.0500)">N spins</text>
  </g>
  <g style="fill:none; stroke:#000000; stroke-width:  0.8925; stroke-linecap:butt; stroke-linejoin:miter; stroke-dasharray:none">
   <path d="M514.6006,462.5500L538.4006,462.5500"/>
  </g>
  <g style="fill:none; stroke:#000000; stroke-width:  0.4463; stroke-linecap:butt; stroke-linejoin:miter; stroke-dasharray:none">
   <ellipse  rx="2.6775" ry="2.6775" cx="514.6006" cy="462.5500"/>
   <ellipse  rx="2.6775" ry="2.6775" cx="538.4006" cy="462.5500"/>
  </g>
  <g style="fill:#000000; fill-rule:nonzero">
   <text   style="font-family:'Times','Nimbus Roman No9 L'; font-style:normal; font-weight:normal; font-size:595.0000" transform="matrix(0.0280,0.0000,-0.0000,-0.0280,547.0281,438.1000)">NE1 spins</text>
  </g>
  <g style="fill:none; stroke:#FF0000; stroke-width:  0.8925; stroke-linecap:butt; stroke-linejoin:miter; stroke-dasharray:none">
   <path d="M514.6006,441.6000L538.4006,441.6000"/>
  </g>
  <g style="fill:none; stroke:#FF0000; stroke-width:  0.4463; stroke-linecap:butt; stroke-linejoin:miter; stroke-dasharray:none">
   <path d="M512.3247,439.3241L512.3247,443.8759L516.8765,443.8759L516.8765,439.3241z"/>
   <path d="M536.1248,439.3241L536.1248,443.8759L540.6765,443.8759L540.6765,439.3241z"/>
  </g>
 </g>
</svg>
